<svg viewBox="0 0 71.03 60.88" xmlns="http://www.w3.org/2000/svg"><path d="m5.39 6.4 7 7 4.61 4.6c-5 4-12.29 6-14.68 12.15 5.31 13.49 19.44 19.05 34.81 19.05 4.77 0 9.09-2 12.47 1.4l1.31 1.31 9 9 3.88-3.91-54.48-54.52zm17 17 4.75 4.75a9.62 9.62 0 0 0 -.24 2 9.24 9.24 0 0 0 9.23 9.22 9.94 9.94 0 0 0 2-.23l4.75 4.74a15 15 0 0 1 -6.74 1.63 15.37 15.37 0 0 1 -15.38-15.36 15.19 15.19 0 0 1 1.63-6.77z" fill="#383838"/><path d="m35.52 9.57c-13.58 0-25.88 7.43-34.96 19.48a2.79 2.79 0 0 0 0 3.36c9.08 12.07 21.38 19.5 35 19.5s25.88-7.43 35-19.49a2.81 2.81 0 0 0 0-3.35c-9.16-12.07-21.47-19.5-35.04-19.5zm1 36.08a14.94 14.94 0 1 1 13.9-13.94 14.95 14.95 0 0 1 -13.93 13.94zm-.52-6.89a8 8 0 1 1 7.51-7.51 8 8 0 0 1 -7.51 7.51z" fill="#383838"/><path d="m9.31 2.48 2.48-2.48 53.13 53.13-1.13 3.85z" fill="#fff"/></svg>