<svg viewBox="0 0 80.62 77.04" xmlns="http://www.w3.org/2000/svg"><g fill="#160e0b"><path d="m10.26 75.34h11a2 2 0 0 0 1.92 1.66h25a2 2 0 0 0 2-1.7h11a3.37 3.37 0 0 0 3.25-3.3h-57.53a3.36 3.36 0 0 0 3.36 3.34z"/><path d="m77.65 40.8c-2.8-2.27-6.74-2.31-9.34-2 .08-1.81.12-3.66.12-5.58h-68.43c0 18.47 2.8 31.78 20.51 36.78h27.41c7-2 11.67-5.28 14.75-9.68 6.72-.13 17.53-2.77 17.94-12.05.17-4.05-1.51-6.27-2.96-7.47zm-12.16 14.2a42.6 42.6 0 0 0 2.51-11.08c1.82-.3 5-.49 6.53.8.29.23 1.19 1 1.09 3.35-.25 4.81-6.22 6.42-10.13 6.93z"/><path d="m27.88 30.6s13-1 7.05-11.94c-4.79-8.81-3.7-14 2.44-18.66 0 0-20.09 5.12-8.38 21 4.3 6.85-1.11 9.6-1.11 9.6z"/><path d="m36.66 29.72s10.43-2.2 4.75-10.59c-2.06-3.64.78-4.94.78-4.94s-6.71.22-3.88 6c2.27 4.63 1.6 7.26-1.65 9.53z"/></g></svg>