<svg viewBox="0 0 82.61 131.25" xmlns="http://www.w3.org/2000/svg"><g fill="#24203f"><path d="m16.73 61.12a2.73 2.73 0 0 1 -1.44-.42 32.9 32.9 0 1 1 46.47-12 2.7 2.7 0 1 1 -4.76-2.59 27.49 27.49 0 1 0 -38.83 10 2.71 2.71 0 0 1 -1.46 5z"/><path d="m48.43 43.75a1.7 1.7 0 0 1 -.89-.24 1.77 1.77 0 0 1 -.63-2.41 16.23 16.23 0 1 0 -28.46-.8 1.76 1.76 0 0 1 -3.14 1.61 19.76 19.76 0 1 1 34.65 1 1.77 1.77 0 0 1 -1.53.84z"/><path d="m46.68 131.25h-.15a35.3 35.3 0 0 1 -28.68-15l-.09-.13c-5-7.05-12-21.22-15.64-29a10.3 10.3 0 0 1 17.17-11l4.21 5v-47.85a9.43 9.43 0 0 1 9.44-9.41h.16a9.22 9.22 0 0 1 9.21 9.21v19.11a9.4 9.4 0 0 1 12.82 5 9.29 9.29 0 0 1 4.68-1.18 9.43 9.43 0 0 1 9.13 7.15 9.41 9.41 0 0 1 4.3-1h.17a9.21 9.21 0 0 1 9.2 9.2v12.46c0 10-1 18.11-2.84 24.2l-.25.77-.06.16a35 35 0 0 1 -32.78 22.31zm-35.25-53.43a4.89 4.89 0 0 0 -4.43 6.98c3.61 7.66 10.38 21.51 15.16 28.22l.1.14a29.9 29.9 0 0 0 24.28 12.69h.14a29.66 29.66 0 0 0 27.72-18.85l.21-.65c1.72-5.54 2.59-13.14 2.59-22.57v-12.51a3.8 3.8 0 0 0 -3.79-3.8h-.17a4 4 0 0 0 -4 4v11.64a2.71 2.71 0 0 1 -5.41 0v-17.75a4 4 0 1 0 -8 0v12.1a2.71 2.71 0 1 1 -5.41 0v-16.8a4 4 0 1 0 -8 0l-.07 12.94a2.7 2.7 0 0 1 -2.7 2.69 2.71 2.71 0 0 1 -2.7-2.7v-40.52a3.8 3.8 0 0 0 -3.8-3.8h-.16a4 4 0 0 0 -4 4v55.13a2.71 2.71 0 0 1 -4.77 1.74l-9-10.59a4.9 4.9 0 0 0 -3.79-1.73z"/></g></svg>