<svg viewBox="0 0 81.23 71.4" xmlns="http://www.w3.org/2000/svg"><g fill="#160e0b"><path d="m73 42.84a8.64 8.64 0 0 0 -6.71 3.37l-1.9 2.51-1.9-2.51a7.87 7.87 0 0 0 -6.34-3.37c-4.62 0-8.23 3.93-8.23 8.94 0 5.79 5.5 10.39 12.46 16.22 1.31 1.1 2.65 2.22 4 3.4 1.44-1.25 2.85-2.43 4.19-3.56 7.13-6 12.65-10.34 12.65-16.06.01-5.01-3.6-8.94-8.22-8.94z"/><path d="m43.16 51.78a14 14 0 0 1 3.15-8.94h-12.83v23.8h18.06c-4.87-4.51-8.38-9.02-8.38-14.86z"/><path d="m51.35 14.28a9.43 9.43 0 0 0 1.33-4.76 9.53 9.53 0 0 0 -9.52-9.52 14.57 14.57 0 0 0 -12.06 6.41 14.28 14.28 0 0 0 -11.9-6.41 9.53 9.53 0 0 0 -9.52 9.52 9.42 9.42 0 0 0 1.32 4.76h-11v23.8h28.72v-23.8h-9.52a4.76 4.76 0 0 1 0-9.52 9.38 9.38 0 0 1 9.36 9.5h4.92a9.65 9.65 0 0 1 9.68-9.5 4.76 4.76 0 1 1 0 9.52h-9.68v23.8h28.72v-23.8z"/><path d="m0 42.84h28.72v23.8h-28.72z"/></g></svg>