<svg viewBox="0 0 52.47 49.98" xmlns="http://www.w3.org/2000/svg" xmlns:xlink="http://www.w3.org/1999/xlink"><linearGradient id="a" gradientUnits="userSpaceOnUse" x2="52.47" y1="24.99" y2="24.99"><stop offset="0" stop-color="#fbb03b"/><stop offset="1" stop-color="#f7931e"/></linearGradient><linearGradient id="b" gradientUnits="userSpaceOnUse" x1="9.7" x2="52.47" y1="33.81" y2="33.81"><stop offset="0" stop-color="#fbb03b"/><stop offset="1" stop-color="#fbb03b"/></linearGradient><path d="m27 .47 7.45 15.1a.85.85 0 0 0 .64.46l16.66 2.43a.84.84 0 0 1 .47 1.43l-12.07 11.76a.82.82 0 0 0 -.24.74l2.85 16.61a.85.85 0 0 1 -1.23.89l-14.91-7.89a.89.89 0 0 0 -.78 0l-14.91 7.88a.84.84 0 0 1 -1.22-.88l2.85-16.6a.84.84 0 0 0 -.24-.74l-12.06-11.77a.84.84 0 0 1 .46-1.43l16.67-2.46a.83.83 0 0 0 .63-.46l7.46-15.07a.84.84 0 0 1 1.52 0z" fill="url(#a)"/><path d="m26.23 4-6.64 12.82a2.23 2.23 0 0 1 -1.77 1.18l-14.43 1.34 15.24.71a2.22 2.22 0 0 0 2.19-1.45z" fill="#ffa631"/><path d="m10 47.08-.29 1.92a.84.84 0 0 0 1.22.89l14.91-7.89a.89.89 0 0 1 .78 0l14.91 7.84a.85.85 0 0 0 1.23-.84l-2.85-16.6a.82.82 0 0 1 .24-.74l12.06-11.77a.84.84 0 0 0 -.47-1.43l-5.58-.82c-9.03 16.21-22.86 24.74-36.16 29.44z" fill="url(#b)"/></svg>