<svg viewBox="0 0 188.71 188.71" xmlns="http://www.w3.org/2000/svg"><circle cx="94.35" cy="94.35" fill="#caeff9" r="94.35"/><path d="m124.87 152.53h-17.15a2 2 0 0 1 -1.94-2.43l1.08-4.81 4-17.73 3.29.95-2.79 16-.32 1.86a2 2 0 0 0 2.13 2.33c3.58-.3 9.86-.73 12.09-.24h.09a2 2 0 0 1 -.48 4.07z" fill="#f99621"/><path d="m90.57 152.53h-17.14a2 2 0 0 1 -.48-4h.09c2.23-.49 8.51-.06 12.09.24a2 2 0 0 0 2.13-2.33l-.32-1.86-2.79-16 3.29-.95 4 17.73 1.08 4.81a2 2 0 0 1 -1.95 2.36z" fill="#f99621"/><path d="m124.87 153.42h-17.15a2.86 2.86 0 0 1 -2.25-1.08 2.89 2.89 0 0 1 -.56-2.44l5.09-22.53a.89.89 0 0 1 1.74.39l-5.09 22.53a1.13 1.13 0 0 0 .22.94 1.11 1.11 0 0 0 .86.41h17.15a1.15 1.15 0 0 0 .28-2.26h-.08c-1.55-.34-5.86-.24-11.82.26a2.9 2.9 0 0 1 -3.09-3.37l3.12-17.91a.89.89 0 0 1 1.75.31l-3.11 17.9a1.1 1.1 0 0 0 1.18 1.29c4.4-.37 10.12-.7 12.34-.22h.12a2.93 2.93 0 0 1 -.69 5.77z" fill="#371a45"/><path d="m90.57 153.42h-17.14a2.93 2.93 0 0 1 -.69-5.77h.11c2.23-.48 8-.15 12.35.22a1.1 1.1 0 0 0 .91-.35 1.12 1.12 0 0 0 .27-.94l-3.11-17.9a.89.89 0 1 1 1.75-.31l3.11 17.91a2.85 2.85 0 0 1 -.71 2.44 2.9 2.9 0 0 1 -2.37.93c-6-.5-10.27-.6-11.82-.26h-.08a1.15 1.15 0 0 0 .28 2.26h17.14a1.12 1.12 0 0 0 .87-.41 1.09 1.09 0 0 0 .21-.94l-5.08-22.53a.88.88 0 0 1 .67-1.06.89.89 0 0 1 1.07.67l5.08 22.53a2.89 2.89 0 0 1 -.56 2.44 2.86 2.86 0 0 1 -2.26 1.07z" fill="#371a45"/><path d="m122.69 135.12a43.49 43.49 0 0 1 -47.08 0c-14.2-9.12-28.92-27.12-25.37-61.87 1.19-11.6 4.88-24.29 8-33.46 1.17-3.44 2.26-6.39 3.11-8.6a3.48 3.48 0 0 1 5.4-1.49l10 7.86a111 111 0 0 1 44.86 0l10-7.86a3.48 3.48 0 0 1 5.4 1.49c3.12 8.11 9.47 26.11 11.11 42.06 3.49 34.75-11.23 52.75-25.43 61.87z" fill="#a87c63"/><path d="m99.15 142.18a43.53 43.53 0 0 1 -23.62-7 54.08 54.08 0 0 1 -19.39-21.4c-5.62-11.19-7.65-24.85-6-40.59 1.21-11.79 5-24.73 8-33.5 1-2.92 2-5.81 3.12-8.6a3.62 3.62 0 0 1 5.62-1.54l9.92 7.81a111.08 111.08 0 0 1 44.78 0l9.92-7.81a3.62 3.62 0 0 1 5.62 1.54c3.46 9 9.51 26.44 11.12 42.1s-.42 29.4-6 40.59a54.15 54.15 0 0 1 -19.39 21.4 43.56 43.56 0 0 1 -23.7 7zm-34.54-113.09a3.11 3.11 0 0 0 -.9.13 3.29 3.29 0 0 0 -2.23 2c-1.07 2.78-2.12 5.68-3.11 8.59-3 8.76-6.78 21.67-8 33.43-3.6 35.2 11.77 53 25.3 61.74a43.37 43.37 0 0 0 46.94 0c13.53-8.74 28.9-26.54 25.3-61.74-1.6-15.62-7.64-33-11.1-42a3.35 3.35 0 0 0 -5.19-1.43l-10 7.9h-.06a111.18 111.18 0 0 0 -44.8 0h-.06l-10-7.9a3.33 3.33 0 0 0 -2.09-.72z" fill="#371a45"/><g opacity=".3"><path d="m87.44 127.56 4 17.73c-1.52-.18-3-.43-4.5-.74l-2.79-16z" fill="#6b184e"/><path d="m91.62 145.46h-.2c-1.51-.19-3-.44-4.51-.74h-.1v-.09l-2.81-16.22 3.55-1zm-4.56-1c1.38.28 2.79.51 4.2.69l-3.93-17.39-3 .86z" fill="#371a45"/></g><g opacity=".3"><path d="m114.15 128.51-2.79 16c-1.48.31-3 .56-4.5.74l4-17.73z" fill="#6b184e"/><path d="m106.68 145.46 4.08-18.07 3.55 1-2.83 16.26h-.09c-1.48.3-3 .55-4.51.74zm4.32-17.72-4 17.39c1.41-.18 2.82-.41 4.2-.69l2.8-15.84z" fill="#371a45"/></g><path d="m122.69 135.12a43.49 43.49 0 0 1 -47.08 0c-14.2-9.12-28.92-27.12-25.37-61.87 1.19-11.6 4.88-24.29 8-33.46 1.17-3.44 2.26-6.39 3.11-8.6a3.48 3.48 0 0 1 5.4-1.49l10 7.86a111 111 0 0 1 44.86 0l10-7.86a3.48 3.48 0 0 1 5.4 1.49c3.12 8.11 9.47 26.11 11.11 42.06 3.49 34.75-11.23 52.75-25.43 61.87z" fill="#b75d30"/><path d="m132.26 114.35a33 33 0 0 1 -5 17.5c-1.51 1.2-3 2.28-4.57 3.27a43.49 43.49 0 0 1 -47.08 0c-1.53-1-3.06-2.07-4.57-3.27a33.11 33.11 0 1 1 61.22-17.5z" fill="#ffd9b6"/><g fill="#371a45"><path d="m122.69 135.12a43.49 43.49 0 0 1 -47.08 0c-13.5-8.71-27.46-25.37-25.76-56.82 1.45 25 13.79 39 25.76 46.72a43.45 43.45 0 0 0 47.08 0c12-7.73 24.31-21.71 25.76-46.71 1.7 31.44-12.26 48.1-25.76 56.81z" opacity=".3"/><path d="m86.64 89.94a18.73 18.73 0 0 0 1.6 3.06 4.22 4.22 0 0 0 1 1 1.45 1.45 0 0 0 1.43.21 2.15 2.15 0 0 0 .51-.28 5.31 5.31 0 0 0 1-1.07 22.73 22.73 0 0 0 1.79-3 .59.59 0 0 1 .79-.25.6.6 0 0 1 .31.54 9.42 9.42 0 0 1 -.33 2 8.89 8.89 0 0 1 -.74 1.85 6 6 0 0 1 -1.37 1.76 4.51 4.51 0 0 1 -1.08.68 3.69 3.69 0 0 1 -1.32.3 3.57 3.57 0 0 1 -1.37-.21 3.87 3.87 0 0 1 -1.14-.66 5.6 5.6 0 0 1 -1.39-1.83 9.2 9.2 0 0 1 -.65-2 8.81 8.81 0 0 1 -.19-2 .58.58 0 0 1 1.11-.22z"/><path d="m95.48 103.45a19.56 19.56 0 0 0 1.61 3.06 4 4 0 0 0 1 1 1.46 1.46 0 0 0 1 .31 1.43 1.43 0 0 0 .49-.1 2.62 2.62 0 0 0 .51-.28 5.28 5.28 0 0 0 1-1.07 21.69 21.69 0 0 0 1.79-3 .58.58 0 0 1 1.09.29 9.4 9.4 0 0 1 -.32 2 8.93 8.93 0 0 1 -.75 1.9 6 6 0 0 1 -1.37 1.76 4.44 4.44 0 0 1 -1.07.68 3.74 3.74 0 0 1 -1.33.3 3.55 3.55 0 0 1 -1.36-.21 4.06 4.06 0 0 1 -1.15-.66 5.43 5.43 0 0 1 -1.38-1.83 8.2 8.2 0 0 1 -.65-2 8.78 8.78 0 0 1 -.19-2 .58.58 0 0 1 .6-.57.59.59 0 0 1 .51.34z"/><path d="m77.49 103.45a18.73 18.73 0 0 0 1.6 3.06 3.87 3.87 0 0 0 1 1 1.45 1.45 0 0 0 1.43.21 2.62 2.62 0 0 0 .51-.28 5.6 5.6 0 0 0 1-1.07 22.7 22.7 0 0 0 1.78-3 .58.58 0 0 1 .78-.25.61.61 0 0 1 .32.54 9.42 9.42 0 0 1 -.33 2 8.93 8.93 0 0 1 -.75 1.9 6 6 0 0 1 -1.37 1.76 4.25 4.25 0 0 1 -1.07.68 3.74 3.74 0 0 1 -1.33.3 3.55 3.55 0 0 1 -1.36-.21 3.87 3.87 0 0 1 -1.14-.66 5.46 5.46 0 0 1 -1.39-1.83 8.67 8.67 0 0 1 -.65-2 8.78 8.78 0 0 1 -.19-2 .58.58 0 0 1 .6-.57.59.59 0 0 1 .51.34z"/><path d="m86.4 128.69a21.92 21.92 0 0 0 1.65 3.13 4.6 4.6 0 0 0 1 1.11 1.71 1.71 0 0 0 1.09.37 2 2 0 0 0 1.16-.43 5.39 5.39 0 0 0 1.1-1.13 19.5 19.5 0 0 0 1.8-3.07.33.33 0 0 1 .44-.15.34.34 0 0 1 .19.32 8.88 8.88 0 0 1 -.34 1.92 8.35 8.35 0 0 1 -.73 1.86 6.07 6.07 0 0 1 -1.3 1.7 4.17 4.17 0 0 1 -1 .65 3.69 3.69 0 0 1 -1.23.29 3.49 3.49 0 0 1 -1.28-.19 3.69 3.69 0 0 1 -1.08-.61 5.23 5.23 0 0 1 -1.33-1.76 7.74 7.74 0 0 1 -.64-1.92 8 8 0 0 1 -.15-2 .33.33 0 0 1 .35-.32.36.36 0 0 1 .28.19z"/><path d="m104.09 128.69a21.92 21.92 0 0 0 1.65 3.13 4.6 4.6 0 0 0 1 1.11 1.72 1.72 0 0 0 1.1.37 2 2 0 0 0 1.15-.43 5.39 5.39 0 0 0 1.1-1.13 19.5 19.5 0 0 0 1.8-3.07.34.34 0 0 1 .45-.15.33.33 0 0 1 .18.32 9.7 9.7 0 0 1 -1.06 3.78 6.11 6.11 0 0 1 -1.31 1.7 4.17 4.17 0 0 1 -1 .65 3.63 3.63 0 0 1 -1.23.29 3.49 3.49 0 0 1 -1.28-.19 3.69 3.69 0 0 1 -1.08-.61 5.23 5.23 0 0 1 -1.33-1.76 8.18 8.18 0 0 1 -.64-1.92 8 8 0 0 1 -.15-2 .33.33 0 0 1 .35-.32.36.36 0 0 1 .28.19z"/><path d="m113.22 103.49a21.94 21.94 0 0 0 1.66 3.13 4.57 4.57 0 0 0 1 1.11 1.74 1.74 0 0 0 1.1.37 2 2 0 0 0 1.16-.42 5.64 5.64 0 0 0 1.1-1.13 19.25 19.25 0 0 0 1.79-3.08.33.33 0 0 1 .62.17 9.07 9.07 0 0 1 -.33 1.93 8.28 8.28 0 0 1 -.73 1.85 5.93 5.93 0 0 1 -1.3 1.7 4.37 4.37 0 0 1 -1 .65 3.47 3.47 0 0 1 -2.51.11 3.81 3.81 0 0 1 -1.08-.62 5.13 5.13 0 0 1 -1.34-1.76 8.14 8.14 0 0 1 -.63-1.92 8 8 0 0 1 -.16-2 .33.33 0 0 1 .35-.32.36.36 0 0 1 .29.19z"/><path d="m99.86 117a23 23 0 0 0 1.65 3.13 4.6 4.6 0 0 0 1 1.11 1.72 1.72 0 0 0 1.1.37 2 2 0 0 0 1.16-.42 5.65 5.65 0 0 0 1.1-1.13 20.38 20.38 0 0 0 1.79-3.08.33.33 0 0 1 .62.16 9.74 9.74 0 0 1 -.33 1.93 9.36 9.36 0 0 1 -.73 1.85 5.84 5.84 0 0 1 -1.31 1.7 4 4 0 0 1 -1 .65 3.21 3.21 0 0 1 -1.23.29 3.43 3.43 0 0 1 -1.27-.18 3.47 3.47 0 0 1 -1.08-.62 5.13 5.13 0 0 1 -1.33-1.76 8.14 8.14 0 0 1 -.63-1.92 8 8 0 0 1 -.16-2 .33.33 0 0 1 .35-.31.31.31 0 0 1 .28.19z"/><path d="m117.45 117a21.94 21.94 0 0 0 1.66 3.13 4.39 4.39 0 0 0 1 1.11 1.69 1.69 0 0 0 1.1.38 2.06 2.06 0 0 0 1.16-.43 5.39 5.39 0 0 0 1.1-1.13 19.57 19.57 0 0 0 1.79-3.08.32.32 0 0 1 .44-.15.32.32 0 0 1 .18.31 9.68 9.68 0 0 1 -1.06 3.79 5.93 5.93 0 0 1 -1.31 1.7 4.39 4.39 0 0 1 -1 .64 3.26 3.26 0 0 1 -1.24.29 3.34 3.34 0 0 1 -2.35-.8 5.13 5.13 0 0 1 -1.32-1.76 8.07 8.07 0 0 1 -.63-1.91 8.15 8.15 0 0 1 -.16-2 .33.33 0 0 1 .35-.31.32.32 0 0 1 .28.19z"/><path d="m73.26 117a18.73 18.73 0 0 0 1.6 3.06 4.1 4.1 0 0 0 1 1 1.46 1.46 0 0 0 .94.3 1.23 1.23 0 0 0 .49-.1 2.15 2.15 0 0 0 .51-.28 5.06 5.06 0 0 0 1-1.07 22.09 22.09 0 0 0 1.79-3 .58.58 0 0 1 1.1.3 9.22 9.22 0 0 1 -.33 2 8.89 8.89 0 0 1 -.74 1.9 6.22 6.22 0 0 1 -1.37 1.76 4.22 4.22 0 0 1 -1.08.68 3.53 3.53 0 0 1 -1.32.3 3.77 3.77 0 0 1 -1.37-.2 3.9 3.9 0 0 1 -1.14-.67 5.5 5.5 0 0 1 -1.34-1.88 9.12 9.12 0 0 1 -.65-1.95 8.93 8.93 0 0 1 -.19-2 .58.58 0 0 1 .6-.56.55.55 0 0 1 .51.34z"/></g><path d="m140.06 39.79c-18.48 3.06-38.72 15.9-40.91 31.86-2.2-16-22.43-28.86-40.91-31.86 1.17-3.44 2.26-6.39 3.11-8.6a3.48 3.48 0 0 1 5.4-1.49l10 7.86a111 111 0 0 1 44.86 0l10-7.86a3.48 3.48 0 0 1 5.4 1.49c.79 2.21 1.88 5.16 3.05 8.6z" fill="#873413"/><path d="m140.06 39.51-.57.1c-.77-2.19-1.49-4.11-2.09-5.67a3.52 3.52 0 0 0 -5.47-1.49l-10.09 7.94a111 111 0 0 0 -13.3-1.92 1.34 1.34 0 0 1 0 .35c0 1.77-3.17 3.2-7.09 3.2s-7.08-1.43-7.08-3.2a1.47 1.47 0 0 1 .15-.65 112 112 0 0 0 -18.11 2.22l-10.04-7.94a3.52 3.52 0 0 0 -5.47 1.49c-.6 1.56-1.32 3.47-2.09 5.67l-.57-.1c1.17-3.44 2.26-6.39 3.11-8.6a3.48 3.48 0 0 1 5.4-1.48l10 7.85a111 111 0 0 1 44.86 0l10-7.85a3.48 3.48 0 0 1 5.39 1.48c.8 2.21 1.89 5.16 3.06 8.6z" fill="#fff" opacity=".4"/><path d="m99.15 142.93a44.25 44.25 0 0 1 -24-7.07 54.9 54.9 0 0 1 -19.66-21.69c-5.68-11.32-7.74-25.12-6.11-41 1.62-15.75 7.62-33.26 11.14-42.3a4.36 4.36 0 0 1 6.78-1.87l9.7 7.6a111.37 111.37 0 0 1 44.4 0l9.6-7.6a4.36 4.36 0 0 1 6.78 1.86c3.48 9 9.55 26.55 11.16 42.29 1.63 15.89-.43 29.69-6.11 41a55 55 0 0 1 -19.66 21.69 44.25 44.25 0 0 1 -24.02 7.09zm-23.06-8.56a42.61 42.61 0 0 0 46.12 0c13.35-8.62 28.53-26.21 25-61-1.65-16.11-8.28-34.62-11-41.83a2.59 2.59 0 0 0 -4-1.11l-10.3 8.11-.4-.08a109.35 109.35 0 0 0 -44.5 0l-.4.08-10.41-8.14a2.59 2.59 0 0 0 -4 1.11c-2.78 7.21-9.4 25.72-11 41.83-3.64 34.82 11.53 52.41 24.89 61.03z" fill="#371a45"/><path d="m104.62 71.65c0 3-5.47 5.47-5.47 5.47s-5.47-2.45-5.47-5.47a5.47 5.47 0 1 1 10.94 0z" fill="#ffd400"/><path d="m104.62 71.65a2.64 2.64 0 0 1 -.12.78 5.48 5.48 0 0 0 -10.71 0 3 3 0 0 1 -.12-.78 5.48 5.48 0 1 1 11 0z" fill="#fff" opacity=".4"/><path d="m104.62 71.65c0 3-5.47 5.47-5.47 5.47s-5.48-2.45-5.48-5.47a5.5 5.5 0 0 1 .25-1.65 4.91 4.91 0 0 0 .6 1 5.9 5.9 0 0 0 9.25 0 4.55 4.55 0 0 0 .61-1 5.5 5.5 0 0 1 .24 1.65z" fill="#371a45" opacity=".3"/><path d="m99.15 78.09-.36-.16c-.62-.27-6-2.79-6-6.28a6.36 6.36 0 1 1 12.72 0c0 3.49-5.38 6-6 6.28zm0-11a4.6 4.6 0 0 0 -4.59 4.59c0 1.83 3.09 3.74 4.59 4.49 1.5-.75 4.58-2.67 4.58-4.49a4.59 4.59 0 0 0 -4.58-4.62z" fill="#371a45"/><path d="m90.65 66.7a14.54 14.54 0 0 1 -29.07 0 14.12 14.12 0 0 1 .16-2.17l.47.14a48.58 48.58 0 0 0 27.81 0l.47-.14a14.12 14.12 0 0 1 .16 2.17z" fill="#fff"/><path d="m76.12 81.37a14.69 14.69 0 0 1 -14.68-14.67 16 16 0 0 1 .16-2.19v-.16l.15.05.47.14a48.48 48.48 0 0 0 27.73 0l.47-.14.15-.05v.16a14.29 14.29 0 0 1 .16 2.19 14.69 14.69 0 0 1 -14.61 14.67zm-14.26-16.66a13.32 13.32 0 0 0 -.14 2 14.4 14.4 0 1 0 28.66-2l-.32.1a48.85 48.85 0 0 1 -27.89 0z" fill="#371a45"/><circle cx="76.12" cy="66.7" fill="#371a45" r="6.97"/><path d="m76.12 82.12a15.44 15.44 0 0 1 -15.43-15.42 16 16 0 0 1 .17-2.3l.16-1 1 .3a47.67 47.67 0 0 0 28.23 0l1-.3.15 1a14.66 14.66 0 0 1 .17 2.3 15.44 15.44 0 0 1 -15.45 15.42zm-13.61-16.43v1a13.65 13.65 0 1 0 27.29 0c0-.34 0-.68 0-1a49.38 49.38 0 0 1 -27.29 0z" fill="#371a45"/><path d="m136.55 66.7a14.54 14.54 0 0 1 -29.08 0 15.5 15.5 0 0 1 .16-2.17l.48.14a48.55 48.55 0 0 0 27.8 0l.47-.14a14.12 14.12 0 0 1 .17 2.17z" fill="#fff"/><path d="m122 81.37a14.64 14.64 0 0 1 -14.5-16.86v-.16l.16.05.46.14a48.48 48.48 0 0 0 27.73 0l.47-.14.16-.05v.16a14.7 14.7 0 0 1 -14.48 16.86zm-14.25-16.66a14.79 14.79 0 0 0 -.14 2 14.4 14.4 0 1 0 28.8 0 14.79 14.79 0 0 0 -.14-2l-.32.1a48.82 48.82 0 0 1 -27.88 0z" fill="#371a45"/><path d="m122 82.12a15.44 15.44 0 0 1 -15.42-15.42 16 16 0 0 1 .17-2.3l.16-1 1 .3a47.64 47.64 0 0 0 28.22 0l1-.3.15 1a14.66 14.66 0 0 1 .17 2.3 15.44 15.44 0 0 1 -15.45 15.42zm-13.6-16.43v1a13.65 13.65 0 1 0 27.3 0c0-.34 0-.68 0-1a49.38 49.38 0 0 1 -27.3 0z" fill="#371a45"/><path d="m90.49 64.53a48.75 48.75 0 0 1 -28.75 0 14.54 14.54 0 0 1 28.75 0z" fill="#b75d30"/><path d="m90.49 64.53-.58.18a14.54 14.54 0 0 0 -27.59 0l-.58-.18a14.54 14.54 0 0 1 28.75 0z" fill="#fff" opacity=".4"/><path d="m76.12 67.6a49.52 49.52 0 0 1 -14.64-2.22l-.73-.22.11-.76a15.43 15.43 0 0 1 30.51 0l.11.76-.73.22a49.45 49.45 0 0 1 -14.63 2.22zm-13.36-3.69a47.62 47.62 0 0 0 26.72 0 13.65 13.65 0 0 0 -26.72 0z" fill="#371a45"/><circle cx="122.01" cy="66.7" fill="#371a45" r="6.97"/><path d="m136.38 64.53a48.75 48.75 0 0 1 -28.75 0 14.54 14.54 0 0 1 28.75 0z" fill="#b75d30"/><path d="m136.38 64.53-.58.18a14.54 14.54 0 0 0 -27.58 0l-.59-.18a14.54 14.54 0 0 1 28.75 0z" fill="#fff" opacity=".4"/><path d="m122 67.6a49.52 49.52 0 0 1 -14.64-2.22l-.73-.22.11-.76a15.52 15.52 0 0 1 15.26-13.13 15.42 15.42 0 0 1 15.26 13.13l.12.76-.73.22a49.57 49.57 0 0 1 -14.65 2.22zm-13.36-3.69a47.62 47.62 0 0 0 26.72 0 13.65 13.65 0 0 0 -26.72 0z" fill="#371a45"/><path d="m76.83 90.13-.37 3.64-3.1 29.81c-.16.76 1.55 1.83 4.33 2.86a57.6 57.6 0 0 0 14.9 3.11c3 .16 5-.13 5.11-.89l9.3-29.23.9-2.82z" fill="#23b574"/><path d="m94.11 129.74c-.55 0-1.07 0-1.53-.05a51.86 51.86 0 0 1 -7.58-1.06 51.29 51.29 0 0 1 -7.37-2.06c-1.75-.64-4.66-1.9-4.42-3l3.47-33.44a.11.11 0 0 1 .06-.1.14.14 0 0 1 .11 0l31.07 6.49a.11.11 0 0 1 .09.07.11.11 0 0 1 0 .11l-10.2 32.06c-.14.78-2 .98-3.7.98zm-17.11-39.44-3.45 33.3c-.11.51.95 1.48 4.23 2.7a52.1 52.1 0 0 0 7.33 2 51.38 51.38 0 0 0 7.53 1.06c3.5.2 4.85-.27 5-.77l10.15-31.91z" fill="#371a45"/><path d="m107.9 96.61-.9 2.82-1.42 4.47-7.88 24.76c-.16.76-2.15 1.06-5.11.89a53.66 53.66 0 0 1 -7.59-1.06c-1.09-.23-2.14-.48-3.13-.74-1.57-.41-3-.86-4.21-1.31-2.79-1-4.5-2.1-4.34-2.86l.28-2.7.29-2.81 1.26-12.14.39-3.72.88-8.44.38-3.64z" fill="#16b767"/><path d="m94.12 129.74c-.55 0-1.08 0-1.54-.05a54.33 54.33 0 0 1 -7.58-1.06c-1.09-.23-2.15-.48-3.14-.74-1.57-.42-3-.86-4.22-1.32-1.76-.65-4.66-1.9-4.43-3l3.5-33.57 31.37 6.54-10.24 32.17c-.17.83-2.02 1.03-3.72 1.03zm-17.12-39.44-3.5 33.3c-.11.52 1 1.49 4.24 2.7 1.23.46 2.64.9 4.2 1.31 1 .26 2 .51 3.13.74a52.26 52.26 0 0 0 7.53 1.05c3.5.2 4.86-.26 5-.77l10.16-31.91z" fill="#371a45"/><path d="m105.9 96.19-.75 2.35-1.42 4.46-7.88 24.76c-.16.76-2.15 1-5.11.89a53.62 53.62 0 0 1 -7.55-1.07c-1.09-.22-2.14-.47-3.14-.73a43.33 43.33 0 0 1 -4.21-1.32c-.37-.13-.71-.27-1-.4a19.64 19.64 0 0 0 2.9 1.3c1.21.45 2.64.9 4.21 1.31 1 .26 2 .51 3.13.74a53.66 53.66 0 0 0 7.55 1.06c3 .17 5-.13 5.11-.89l7.88-24.76 1.38-4.46.9-2.82z" fill="#fff" opacity=".4"/><path d="m94.15 130.53c-.48 0-1 0-1.61-.05a52.36 52.36 0 0 1 -7.69-1.08 52.9 52.9 0 0 1 -7.48-2.08c-4.63-1.72-5.1-3-4.94-3.87l3.47-33.45a1 1 0 0 1 .38-.66 1 1 0 0 1 .75-.16l31.06 6.48a1 1 0 0 1 .62.45.94.94 0 0 1 .08.75l-10.18 32c-.19.83-.93 1.67-4.46 1.67zm-19.85-6.92c.21.27 1.15 1 3.72 2a52.12 52.12 0 0 0 7.21 2 51.44 51.44 0 0 0 7.41 1c2.74.16 3.9-.14 4.19-.3l9.86-31-29-6z" fill="#371a45"/><path d="m76.83 90.13-.37 3.64a61.54 61.54 0 0 0 13.92 4.39c7.3 1.52 13.74 2 16.62 1.27l.9-2.82z" fill="#371a45" opacity=".3"/><path d="m110.2 95.19.06-2.61.07-2.64a.61.61 0 0 1 0 .12.61.61 0 0 0 0-.12c.36-1.77-6.73-4.75-15.86-6.65s-16.82-2-17.19-.25l-.94 2.3-1 2.57-.1.24c-.39 1.87 7.13 5 16.8 7s17.82 2.13 18.21.25z" fill="#a34f31"/><path d="m105 96.93h-.46a70.66 70.66 0 0 1 -12.54-1.59 69.57 69.57 0 0 1 -12.2-3.59c-2.29-1-5-2.37-4.71-3.63l.11-.26 2-4.87c.24-1.17 3.09-1.38 5.44-1.35a65.8 65.8 0 0 1 11.86 1.51 65.77 65.77 0 0 1 11.5 3.38c2.16.91 4.68 2.23 4.46 3.42l-.13 5.51c-.24 1.2-2.92 1.47-5.33 1.47zm-22.86-15c-2.84 0-4.6.42-4.75 1.14l-2.1 5.13c-.16.79 1.54 2 4.55 3.29a69.16 69.16 0 0 0 12.16 3.57 69.26 69.26 0 0 0 12.56 1.58c3.27 0 5.32-.41 5.49-1.22l.12-5.4v-.07c.15-.76-1.45-1.92-4.29-3.12a65.77 65.77 0 0 0 -11.46-3.37 65.9 65.9 0 0 0 -11.85-1.49z" fill="#371a45"/><path d="m75.19 88.15c-.39 1.87 7.13 5 16.79 7s17.83 2.13 18.22.25v-.26l.12-5.25c-.21 1-4.17 3.16-17.34.49-12.23-2.44-15.92-6.3-15.7-7.38l-2 4.87z" fill="#a34f31"/><path d="m105 96.93a69.09 69.09 0 0 1 -13-1.59c-8.68-1.81-17.37-5-16.91-7.22l2.05-5.12.28.08a1 1 0 0 0 .22.63c1.21 1.85 6 4.67 15.37 6.59 13.48 2.74 17 .36 17.18-.38h.28l-.13 5.52c-.21 1.04-2.28 1.49-5.34 1.49zm-29.67-8.74c-.33 1.58 6.32 4.71 16.67 6.87s17.72 1.94 18 .36v-.23l.11-4.75c-1.1 1.1-5.44 2.52-17.21.13-9.5-1.93-14.32-4.82-15.56-6.71a2 2 0 0 1 -.17-.32z" fill="#371a45"/><path d="m77 84.44c-.21 1 3.48 4.9 15.71 7.38 13.16 2.68 17.13.55 17.34-.49l-.11 4.78a.8.8 0 0 0 .21-.38v-.26l.12-5.25c-.22 1-4.18 3.16-17.34.48-12.23-2.48-15.93-6.35-15.71-7.38l-2 4.87-.1.24a.76.76 0 0 0 .05.44z" fill="#fff" opacity=".4"/><path d="m105.05 97.73h-.49a71.53 71.53 0 0 1 -12.77-1.6 70.52 70.52 0 0 1 -12.34-3.64c-3.84-1.61-5.48-3-5.18-4.52a.75.75 0 0 1 0-.16l2.06-5c.37-1.35 2.36-2 6.22-1.9a67.38 67.38 0 0 1 12.06 1.52 66.59 66.59 0 0 1 11.66 3.43c3.57 1.49 5.14 2.84 4.94 4.23l-.12 5.19v.26a.44.44 0 0 1 0 .16c-.27 1.36-2.2 2.03-6.04 2.03zm-28.92-9.41c.47 1.07 6.05 3.88 16.05 6s16.23 1.74 17.09 1v-.06l.11-4.86a.93.93 0 0 1 0-.44c-.48-1-5.77-3.64-15.1-5.59s-15.35-1.64-16.1-.89a.36.36 0 0 1 0 .09z" fill="#371a45"/><path d="m105.1 97.37a73.12 73.12 0 0 1 -13.23-1.61c-6.25-1.31-17.87-4.6-17.24-7.76v-.1l2.09-5.1a.57.57 0 0 1 1.09.31c.06.83 3.82 4.4 15.26 6.73 12.89 2.62 16.49.48 16.67-.05a.57.57 0 0 1 1.12.13l-.12 5.52a.36.36 0 0 1 0 .1c-.26 1.36-2.58 1.83-5.64 1.83zm-29.36-9.07c0 .3.75 1.31 4.3 2.8a70 70 0 0 0 12.06 3.54 69.27 69.27 0 0 0 12.48 1.58c3.84 0 4.93-.57 5-.85l.09-4.09c-2.14 1.13-7.37 1.63-16.85-.3-9.05-1.83-13.93-4.58-15.56-6.52zm2.09-5.14" fill="#371a45"/><path d="m82.56 78.66c-.16.77 1.57 1.84 4.39 2.89a54 54 0 0 0 7.45 2.08 53.48 53.48 0 0 0 7.66 1.07c3 .17 5-.12 5.18-.89.28-1.33-5-3.55-11.84-5s-12.57-1.48-12.84-.15z" fill="#a34f31"/><path d="m103.58 84.89c-.54 0-1.08 0-1.53 0a57.76 57.76 0 0 1 -15.15-3.21c-1.77-.65-4.72-1.93-4.48-3.05.33-1.59 6.87-1.21 13 .07s12.28 3.55 11.95 5.13c-.17.86-2.06 1.06-3.79 1.06zm-20.88-6.2c-.11.5 1 1.49 4.3 2.73a53.52 53.52 0 0 0 7.43 2.07 54.53 54.53 0 0 0 7.63 1.07c3.56.2 4.93-.27 5-.78.23-1.09-4.43-3.28-11.73-4.8s-12.41-1.38-12.63-.29z" fill="#371a45"/><path d="m85.19 81c-.13.58 1.19 1.4 3.33 2.19a43.76 43.76 0 0 0 11.48 2.35c2.28.13 3.81-.09 3.93-.67.21-1-3.81-2.7-9-3.77s-9.54-1.1-9.74-.1z" fill="#9b5639"/><path d="m101.17 85.73c-.4 0-.81 0-1.2 0a40.85 40.85 0 0 1 -5.83-.82 39.61 39.61 0 0 1 -5.67-1.58c-1.66-.61-3.6-1.52-3.43-2.36.12-.58 1.19-.86 3.16-.83a38.16 38.16 0 0 1 6.8.86c4.61 1 9.36 2.67 9.09 4-.17.55-1.5.73-2.92.73zm-13.17-5.34c-1.84 0-2.56.3-2.62.6-.08.35.73 1.1 3.24 2a40.77 40.77 0 0 0 5.63 1.57 41.69 41.69 0 0 0 5.79.81c2.67.15 3.7-.21 3.78-.56.16-.8-3.44-2.47-8.87-3.6a37.66 37.66 0 0 0 -6.71-.85z" fill="#371a45"/><path d="m85.19 81c-.13.58 1.19 1.4 3.33 2.19a43.76 43.76 0 0 0 11.48 2.35c2.28.13 3.81-.09 3.93-.67.21-1-3.81-2.7-9-3.77s-9.54-1.1-9.74-.1z" fill="#a34f31"/><path d="m101.17 85.72c-.4 0-.81 0-1.2 0a40.85 40.85 0 0 1 -5.83-.82 41.36 41.36 0 0 1 -5.67-1.58c-1.66-.62-3.6-1.52-3.42-2.36.12-.58 1.17-.85 3.15-.83a37.35 37.35 0 0 1 6.8.87c4.6 1 9.35 2.66 9.09 3.93-.18.62-1.5.79-2.92.79zm-13.17-5.33c-1.84 0-2.56.3-2.62.6-.08.35.73 1.1 3.24 2a40.77 40.77 0 0 0 5.63 1.57 38.87 38.87 0 0 0 5.79.81c2.67.15 3.71-.21 3.78-.56.17-.8-3.44-2.47-8.87-3.61a36.55 36.55 0 0 0 -6.71-.84z" fill="#371a45"/><path d="m85.19 81c-.13.58 1.19 1.4 3.33 2.19a43.76 43.76 0 0 0 11.48 2.35c2.28.13 3.81-.09 3.93-.67.21-1-3.81-2.7-9-3.77s-9.54-1.1-9.74-.1z" fill="#371a45" opacity=".2"/><path d="m101.11 86.43c-.37 0-.77 0-1.22 0a40.18 40.18 0 0 1 -5.89-.86 42.38 42.38 0 0 1 -5.74-1.57c-3.56-1.32-3.81-2.26-3.69-2.85.17-.83 1.31-1.2 3.58-1.16a37.35 37.35 0 0 1 6.84.86 38.65 38.65 0 0 1 6.61 1.94c2.09.88 3 1.67 2.81 2.5-.11.49-.59 1.14-3.3 1.14zm-15.37-5.07a7.82 7.82 0 0 0 2.92 1.54 39.92 39.92 0 0 0 5.57 1.55 41 41 0 0 0 5.72.81 7.69 7.69 0 0 0 3.29-.25c-.44-.57-3.2-2-8.49-3.08s-8.38-.93-9.01-.57z" fill="#371a45"/><path d="m81 82.47c-.29 1.4 5.32 3.76 12.54 5.26s13.31 1.59 13.6.19v-.19l.09-3.92c-.16.77-2.18 1.06-5.18.89a53.48 53.48 0 0 1 -7.66-1.07 54 54 0 0 1 -7.39-2.08c-2.82-1-4.55-2.12-4.39-2.89l-1.49 3.63z" fill="#9b5639"/><path d="m103.28 89.07h-.34a52.67 52.67 0 0 1 -9.43-1.19c-6.49-1.36-13-3.76-12.65-5.44l1.56-3.81a.15.15 0 0 1 .28.09c-.11.5 1 1.49 4.3 2.72a52.17 52.17 0 0 0 7.43 2.07 53.21 53.21 0 0 0 7.63 1.08c3.55.19 4.93-.28 5-.78a.14.14 0 0 1 .16-.12.15.15 0 0 1 .13.15l-.1 4.12c-.15.9-2.17 1.11-3.97 1.11zm-22.14-6.56c-.2 1.16 4.72 3.47 12.43 5.08a51.08 51.08 0 0 0 9.37 1.18c2.4 0 3.92-.29 4.06-.86l.08-3.63c-.88.68-3.43.66-5 .57a53.63 53.63 0 0 1 -7.68-1.08 54.11 54.11 0 0 1 -7.47-2.08c-1.51-.56-3.85-1.56-4.39-2.54z" fill="#371a45"/><path d="m82.56 78.66-.75 1.83-.74 1.8-.07.18c-.29 1.4 5.32 3.76 12.54 5.26s13.31 1.6 13.6.19v-.19-2.14-1.78c-.16.77-2.18 1.06-5.18.89a53.48 53.48 0 0 1 -7.66-1.07 54 54 0 0 1 -7.3-2.08c-2.87-1.05-4.6-2.12-4.44-2.89z" fill="#a34f31"/><path d="m103.26 89.05a51.41 51.41 0 0 1 -9.75-1.18 52 52 0 0 1 -9.11-2.68c-1.73-.72-3.74-1.79-3.54-2.75l.08-.2 1.48-3.64.28.09c-.11.51 1 1.49 4.3 2.73a58.27 58.27 0 0 0 15.06 3.14c3.55.2 4.93-.27 5-.78h.28l-.09 4.12c-.13.81-1.7 1.15-3.99 1.15zm-20.75-9.91-1.38 3.38c-.11.56 1.15 1.47 3.38 2.41a51.51 51.51 0 0 0 9.06 2.66c7.74 1.62 13.19 1.46 13.44.3v-.16l.08-3.46c-.88.69-3.44.66-5 .57a53.12 53.12 0 0 1 -7.68-1.07 53.44 53.44 0 0 1 -7.47-2.09c-1.55-.56-3.94-1.56-4.43-2.54z" fill="#371a45"/><path d="m82.61 78.38-.75 1.83c1.37 1.38 6.23 3.2 12.18 4.44 6.3 1.32 11.74 1.55 13.22.66v-1.78c-.16.77-2.18 1.06-5.19.89a53.56 53.56 0 0 1 -7.65-1.07 54 54 0 0 1 -7.42-2.08c-2.81-1.04-4.55-2.12-4.39-2.89z" fill="#fff" opacity=".4"/><path d="m103.31 89.78h-.38a52.25 52.25 0 0 1 -9.56-1.2 53.41 53.41 0 0 1 -9.25-2.72c-3-1.26-4.21-2.35-4-3.56a.58.58 0 0 1 0-.14l1.54-3.76c.3-1.1 1.78-1.57 4.79-1.53a50.28 50.28 0 0 1 9 1.14 50.24 50.24 0 0 1 8.74 2.57c2.77 1.17 4 2.19 3.78 3.32l.03 3.85v.19a.78.78 0 0 1 0 .16c-.26 1.15-1.71 1.68-4.69 1.68zm-21.43-7.2c.52.77 4.4 2.77 11.84 4.32s11.79 1.28 12.58.78l.08-3.89c-.43-.7-4.11-2.61-11.17-4.08s-11.15-1.2-11.85-.73v.02a4 4 0 0 1 -.09.4 1.27 1.27 0 0 1 -.3.52z" fill="#371a45"/><path d="m103.3 89.49h-.37a52.56 52.56 0 0 1 -9.5-1.2c-5.07-1.05-13.5-3.49-13-5.94v-.1l1.57-3.81a.57.57 0 0 1 1.09.33c0 .19.83 1.06 4 2.25a52.68 52.68 0 0 0 7.37 2 51.86 51.86 0 0 0 7.57 1.06c3.41.2 4.49-.28 4.6-.46a.56.56 0 0 1 .62-.44.57.57 0 0 1 .5.59l-.1 4.12a.34.34 0 0 1 0 .1c-.08.68-.65 1.5-4.35 1.5zm-21.74-6.89c.14.76 4.34 3 12.1 4.58s12.48 1.28 12.92.64l.06-2.85a13.37 13.37 0 0 1 -4.62.3 53.27 53.27 0 0 1 -7.74-1.09 54 54 0 0 1 -7.53-2.1 13.12 13.12 0 0 1 -4.11-2.08z" fill="#371a45"/><path d="m88.23 113.45a16.25 16.25 0 0 0 3.24-4.09 12.93 12.93 0 0 1 1.62-2.14 9.9 9.9 0 0 1 2.84-2.13 7.91 7.91 0 0 1 .84-.37 10.52 10.52 0 0 1 1.2-.37.62.62 0 0 1 .86.38 5.39 5.39 0 0 1 .54 2.32 6 6 0 0 1 -.26 1.72 11.66 11.66 0 0 1 -10.11 7.86 6.19 6.19 0 0 1 -4.46-1.3 8.59 8.59 0 0 0 3.69-1.88z" fill="#fcf7fb"/><path d="m97.15 102.69a11.17 11.17 0 0 0 -5 2.78 15.85 15.85 0 0 0 -2.7 3.6 10.79 10.79 0 0 1 -1.45 1.93 8.19 8.19 0 0 1 -4.35 2.67.71.71 0 0 1 -.92-.44 5.53 5.53 0 0 1 -.27-4.11 11.42 11.42 0 0 1 5.9-6.64 10.88 10.88 0 0 1 4.28-1.15h1a5.53 5.53 0 0 1 3.51 1.36z" fill="#fcf7fb"/><g opacity=".3"><path d="m75.78 100.26a1.87 1.87 0 0 0 0 .53z" fill="#6b184e"/><path d="m75.73 100.94a.15.15 0 0 1 -.14-.14 1.85 1.85 0 0 1 .06-.57.14.14 0 0 1 .17-.11.15.15 0 0 1 .12.16l-.06.53a.14.14 0 0 1 -.15.13z" fill="#371a45"/></g><path d="m148.53 80.06s-14.66 3.69-16.67 14.83 2.77 29.94 2.77 29.94 9.71-5.77 13.27-16.88a48.45 48.45 0 0 0 .63-27.89z" fill="#873413"/><path d="m134.54 125.05v-.18c-.05-.19-4.76-19-2.76-30s16.57-14.87 16.72-14.94h.12v.12a49 49 0 0 1 -.62 28c-3.55 11-13.24 16.89-13.34 17zm13.9-44.82c-1.44.4-14.57 4.31-16.44 14.68s2.23 27.72 2.72 29.7c1.27-.81 9.79-6.55 13.05-16.7a49 49 0 0 0 .67-27.68z" fill="#371a45"/><path d="m150.26 92.66a49.48 49.48 0 0 1 -2.36 15.34c-3.56 11.11-13.27 16.88-13.27 16.88s-4.51-17.77-2.92-29a85.15 85.15 0 0 0 .95 11 6.48 6.48 0 0 0 11.76 2.75 29 29 0 0 0 3.82-7.68 49.29 49.29 0 0 0 2.02-9.29z" fill="#371a45" opacity=".3"/><path d="m133.23 98.26c-1.41 7.79.12 18.89 1.49 26.24h-.09s-4.78-18.8-2.77-29.94 16.67-14.83 16.67-14.83.32 1 .69 2.63c-4.86 1.89-14.32 6.64-15.99 15.9z" fill="#fff" opacity=".4"/><path d="m134.06 126.2-.3-1.15c-.19-.78-4.79-19.12-2.77-30.32 2.09-11.57 16.7-15.37 17.32-15.53l.8-.2.26.78a48.87 48.87 0 0 1 -.62 28.45c-3.63 11.29-13.26 17.12-13.67 17.37zm13.87-45c-3.05 1-13.57 4.92-15.19 13.88-1.66 9.2 1.46 24 2.46 28.33 2.53-1.81 9.11-7.16 11.86-15.7a48.8 48.8 0 0 0 .87-26.54z" fill="#371a45"/><path d="m76.69 126.67a33.7 33.7 0 0 1 -3.85-.39z" fill="#6b184e"/><path d="m76.81 126.82h-.13a31.63 31.63 0 0 1 -3.86-.4v-.27l4 .4z" fill="#371a45"/><path d="m76.69 126.67a33.7 33.7 0 0 1 -3.85-.39z" fill="#6b184e"/><path d="m76.81 126.82h-.13a31.63 31.63 0 0 1 -3.86-.4v-.27l4 .4z" fill="#371a45"/><g opacity=".3"><path d="m81.51 98.39c-1.49-.53-4.15 0-7 .89l-1.87 24.46c-.13.72 1.51 1.68 4.16 2.58a49.26 49.26 0 0 0 7 1.74c1 .19 2 .35 3 .47 4.1-1.81 5-4.88 5-4.88a37.18 37.18 0 0 0 5.41-.77l3.2-11.07a52.37 52.37 0 0 0 -18.9-13.42z" fill="#6b184e"/><path d="m86.81 128.67c-1-.13-2-.28-3-.47a49.6 49.6 0 0 1 -7-1.75c-1.67-.57-4.45-1.68-4.25-2.74l1.87-24.54h.09c3.36-1.06 5.75-1.36 7.09-.89a52.68 52.68 0 0 1 18.93 13.47h.05v.08l-3.29 11.17h-.08a37.78 37.78 0 0 1 -5.33.76 8.93 8.93 0 0 1 -5 4.88zm-12.16-29.29-1.87 24.37c-.09.49.94 1.37 4.07 2.44a50.43 50.43 0 0 0 7 1.74c1 .18 2 .33 3 .46a8.65 8.65 0 0 0 4.88-4.78v-.09h.09a37.54 37.54 0 0 0 5.31-.74l3.15-10.93a52.17 52.17 0 0 0 -18.81-13.33c-1.28-.45-3.57-.16-6.82.86z" fill="#371a45"/></g><path d="m79.39 95.26c-2.91-1-10.3 1.93-14.75 3.92a8.94 8.94 0 0 1 -8-.29c-10.17-5.59-6.75-13.22-6.64-13.39-.27.29-14.75 16-10.48 37.76a21.42 21.42 0 0 0 4.3 8.81 1.49 1.49 0 0 0 2.62-1.23 33.22 33.22 0 0 1 -.78-6.15 17.74 17.74 0 0 0 10.14 10.94 3.1 3.1 0 0 0 4.35-2.44c.24-1.92.49-4.06.58-5.13h.56a22.32 22.32 0 0 0 12.21 5.94 3.36 3.36 0 0 0 3.81-4 28.66 28.66 0 0 1 -.62-3.23h-1 .12l.85.09c11.06.44 13-6.14 13-6.14a30.93 30.93 0 0 0 11-2.6 3.07 3.07 0 0 0 1.28-4.4c-6.59-10.66-18.59-17.07-22.55-18.46zm8.43 25.89.44-.54 1.4-.08z" fill="#873413"/><path d="m57 136a3.28 3.28 0 0 1 -1.33-.28 18 18 0 0 1 -9.92-10.2 39 39 0 0 0 .75 5.26 1.61 1.61 0 0 1 -.91 1.79 1.57 1.57 0 0 1 -2-.45 21.68 21.68 0 0 1 -4.32-8.88c-4.25-21.69 9.9-37.22 10.51-37.87l.58-.64-.35.79c-.15.31-3.39 7.72 6.64 13.21a8.84 8.84 0 0 0 7.85.28c4.26-1.91 11.86-5 14.85-3.92 4.65 1.63 16.28 8.26 22.56 18.32a3.23 3.23 0 0 1 .36 2.62 3.15 3.15 0 0 1 -1.7 2 30.86 30.86 0 0 1 -10.9 2.6c-.29.81-2.74 6.5-12.93 6.16 0 .32.19 1.13.61 3.05a3.49 3.49 0 0 1 -4 4.22 22.5 22.5 0 0 1 -12.28-5.88h-.37c-.1 1.16-.36 3.34-.57 5a3.24 3.24 0 0 1 -3.13 2.82zm-11.5-12.15.26.8a17.72 17.72 0 0 0 10.06 10.85 3 3 0 0 0 2.69-.12 2.92 2.92 0 0 0 1.49-2.21c.22-1.72.49-4 .58-5.12v-.13h.75a22.19 22.19 0 0 0 12.17 5.85 3.14 3.14 0 0 0 2.83-1 3.23 3.23 0 0 0 .81-2.92c-.37-1.68-.57-2.71-.62-3.13h-.82l-.77-.06.89-.26.9.09c9.53.36 12.19-4.57 12.7-5.78l-2 .68.78-1h.06c.46 0 .91 0 1.4-.08h.16a30.5 30.5 0 0 0 10.74-2.58 2.91 2.91 0 0 0 1.54-1.73 3 3 0 0 0 -.33-2.39c-6.25-10.01-17.77-16.61-22.42-18.21-2.9-1-10.42 2-14.65 3.91a9.15 9.15 0 0 1 -8.1-.3c-8.6-4.7-7.6-10.81-7.01-12.87-2.55 3-13.79 17.52-10 37.09a21.37 21.37 0 0 0 4.31 8.77 1.32 1.32 0 0 0 1.61.37 1.33 1.33 0 0 0 .76-1.49 32.12 32.12 0 0 1 -.78-6.18zm42.82-3.11-.09.12.39-.13z" fill="#371a45"/><path d="m49.54 86 .18.22a5.4 5.4 0 0 1 .28-.72s-.21.19-.46.5zm51.46 26.19c-1.14 1.87-13.33 5.63-23 6.93 2.59 5.35-4.7 6.23-4.7 6.23-8.94 0-17.53-4.92-17.53-4.92-.31 3.15 1.76 7.71 1.76 7.71-9.07-2.41-10.91-5.33-12.29-9.61-.06 3.65.16 8.3.16 8.3a21.88 21.88 0 0 1 -6.62-8.26 44.32 44.32 0 0 0 .65 4.69 21.42 21.42 0 0 0 4.3 8.81 1.49 1.49 0 0 0 2.61-1.23 34 34 0 0 1 -.77-6.15 17.74 17.74 0 0 0 10.14 10.94 3.1 3.1 0 0 0 4.35-2.44c.24-1.92.49-4.06.58-5.13h.56a22.32 22.32 0 0 0 12.3 5.94 3.36 3.36 0 0 0 3.81-4 28.66 28.66 0 0 1 -.62-3.23h-1 .12l.84.09c11.06.44 13-6.14 13-6.14l-1.84.62.43-.54 1.41-.08a30.55 30.55 0 0 0 11.09-2.67 3.07 3.07 0 0 0 1.1-4.66c-.19-.45-.46-.76-.84-1.2z" fill="#371a45" opacity=".3"/><path d="m79.39 95c-2.91-1-10.3 1.92-14.75 3.91a8.94 8.94 0 0 1 -8-.29c-10.17-5.62-6.75-13.23-6.64-13.4a44.78 44.78 0 0 0 -6.7 10.31 40.51 40.51 0 0 1 4.83-6.78c-.08.17-3.51 7.8 6.7 13.39a9 9 0 0 0 8 .29c4.45-2 11.83-4.94 14.75-3.92 4.07 1.43 16.64 8.16 23 19.16h.06a3.06 3.06 0 0 0 1.27-4.4c-6.56-10.49-18.56-16.89-22.52-18.27z" fill="#fff" opacity=".4"/><path d="m44.92 133.52a2.35 2.35 0 0 1 -1.83-.89 22.59 22.59 0 0 1 -4.47-9.2 43.58 43.58 0 0 1 2.6-25.2 48.59 48.59 0 0 1 7.53-12.68 1 1 0 0 1 1.25-.25 1 1 0 0 1 .52 1.21c-.59 2-1.15 7.19 6.12 11.37a8.65 8.65 0 0 0 7.83.38c7.63-3.4 12.74-4.69 15.17-3.83 4.73 1.65 16.57 8.39 23 18.63a4 4 0 0 1 .44 3.22 3.92 3.92 0 0 1 -2.09 2.45 31.79 31.79 0 0 1 -11.26 2.69.89.89 0 0 1 -.13-1.78 29.89 29.89 0 0 0 10.63-2.52 2.13 2.13 0 0 0 1.15-1.34 2.23 2.23 0 0 0 -.25-1.78c-6.75-10.81-19.1-16.87-22-17.9-1.91-.67-7 .71-13.86 3.79a10.47 10.47 0 0 1 -9.44-.47c-6-3.47-7.3-7.74-7.32-10.63-3.79 5.24-11.29 18.09-8.12 34.29a20.78 20.78 0 0 0 4.12 8.44.56.56 0 0 0 .71.16.58.58 0 0 0 .34-.66 33.84 33.84 0 0 1 -.79-6.34.9.9 0 0 1 .89-.88.88.88 0 0 1 .87.9 31.55 31.55 0 0 0 .76 6 2.41 2.41 0 0 1 -2.36 2.85z" fill="#371a45"/><path d="m78.58 120c.92 0 1.84-.06 2.74-.09l2.72-.09c.9 0 1.79-.09 2.68-.11s1.78-.06 2.68 0a.89.89 0 0 1 .12 1.77 15.22 15.22 0 0 1 -2.78.18 23.49 23.49 0 0 1 -2.78-.22c-.91-.11-1.83-.27-2.73-.46a24.57 24.57 0 0 1 -2.68-.71.13.13 0 0 1 -.09-.16.16.16 0 0 1 .12-.11z" fill="#371a45"/><path d="m76.63 127.36a3.55 3.55 0 0 1 -1 0 7.13 7.13 0 0 1 -1-.22 8.18 8.18 0 0 1 -2-.8.1.1 0 0 1 0-.14.08.08 0 0 1 .07 0 15 15 0 0 1 2-.26 8.41 8.41 0 0 1 1 0 4.67 4.67 0 0 1 1 .11.7.7 0 0 1 -.06 1.38z" fill="#371a45"/><path d="m77.74 127.58h-.84a.91.91 0 0 1 -.87-.92.89.89 0 0 1 .92-.86c10 .31 11.79-5.28 11.86-5.52a.89.89 0 0 1 1.71.51c-.09.27-2.11 6.79-12.78 6.79z" fill="#371a45"/><path d="m57.05 136.8a4 4 0 0 1 -1.62-.35 18.7 18.7 0 0 1 -10.43-10.89.89.89 0 1 1 1.67-.6 17 17 0 0 0 9.49 9.86 2.16 2.16 0 0 0 2-.09 2.19 2.19 0 0 0 1.11-1.66c.5-4 .59-5.19.61-5.52a.89.89 0 1 1 1.77.06c0 .64-.23 2.55-.61 5.68a4 4 0 0 1 -2 3 4 4 0 0 1 -1.99.51z" fill="#371a45"/><path d="m44.88 119.23c.28 1 .57 1.93.87 2.86.16.46.32.91.46 1.37.07.22.15.45.2.68a5.25 5.25 0 0 1 .15.71v.05a.84.84 0 0 1 -.73.94.83.83 0 0 1 -.85-.44 5.7 5.7 0 0 1 -.53-1.48 9.35 9.35 0 0 1 -.19-1.57 11.86 11.86 0 0 1 0-1.58 7 7 0 0 1 .32-1.55.12.12 0 0 1 .16-.08s.06 0 .08.08z" fill="#371a45"/><path d="m74 134.88a4 4 0 0 1 -.69 0 23.08 23.08 0 0 1 -12.94-6.36.9.9 0 0 1 0-1.26.89.89 0 0 1 1.26 0 21.26 21.26 0 0 0 12 5.86 2.4 2.4 0 0 0 2.19-.74 2.46 2.46 0 0 0 .62-2.24 17.94 17.94 0 0 1 -.64-3.44.89.89 0 0 1 .89-.87.89.89 0 0 1 .87.91c0 .07.06.57.61 3a4.26 4.26 0 0 1 -4.17 5.14z" fill="#371a45"/><path d="m58.77 124.79c.51.39 1 .78 1.43 1.16.22.19.45.38.65.59a3.09 3.09 0 0 1 .55.69.72.72 0 0 1 -.27 1 .7.7 0 0 1 -.75 0 3.94 3.94 0 0 1 -1.19-1.46 7.75 7.75 0 0 1 -.39-.89 5 5 0 0 1 -.23-1 .12.12 0 0 1 .1-.12h.07z" fill="#371a45"/></svg>