<svg viewBox="0 0 188.71 188.71" xmlns="http://www.w3.org/2000/svg" xmlns:xlink="http://www.w3.org/1999/xlink"><clipPath id="a"><circle cx="94.35" cy="94.35" r="94.35"/></clipPath><linearGradient id="b" gradientUnits="userSpaceOnUse" x1="55.01" x2="78.31" y1="266.31" y2="134.16"><stop offset="0" stop-color="#ff957c"/><stop offset=".98" stop-color="#d17d67"/></linearGradient><linearGradient id="c" gradientUnits="userSpaceOnUse" x1="90.34" x2="118.1" y1="285.73" y2="128.28"><stop offset="0" stop-color="#ff957c"/><stop offset=".98" stop-color="#ffae78"/></linearGradient><radialGradient id="d" cx="66.09" cy="-1697.29" gradientTransform="matrix(1 0 0 2.38 0 4228.19)" gradientUnits="userSpaceOnUse" r="27.28"><stop offset="0" stop-color="#ffeadb"/><stop offset=".96" stop-color="#542a58"/></radialGradient><radialGradient id="e" cx="106.17" cy="-1914.91" gradientTransform="matrix(1 0 0 2.84 0 5623.46)" gradientUnits="userSpaceOnUse" r="24.91"><stop offset="0" stop-color="#ffeadb"/><stop offset=".95" stop-color="#542a58"/></radialGradient><linearGradient id="f" gradientUnits="userSpaceOnUse" x1="107.55" x2="107.55" y1="264.5" y2="134.01"><stop offset="0" stop-color="#fff"/><stop offset=".99" stop-color="#b07ede"/></linearGradient><linearGradient id="g" x1="71.2" x2="71.2" xlink:href="#f" y1="257.57" y2="156.91"/><linearGradient id="h" gradientTransform="matrix(-.98 -.19 -.19 .98 5322.49 531.47)" gradientUnits="userSpaceOnUse" x1="5155.83" x2="5159.95" y1="645.56" y2="622.19"><stop offset="0" stop-color="#ff957c"/><stop offset=".98" stop-color="#ff8767"/></linearGradient><linearGradient id="i" gradientUnits="userSpaceOnUse" x1="128.38" x2="128.38" y1="141.32" y2="104.05"><stop offset=".01" stop-color="#c4c2ff"/><stop offset="1" stop-color="#b8bfff"/></linearGradient><clipPath id="j"><ellipse cx="144.86" cy="163.73" rx="16.19" ry="15.78"/></clipPath><linearGradient id="k" gradientTransform="matrix(.2317479 .97277588 -.97277588 .2317479 270.9 -15.58)" gradientUnits="userSpaceOnUse" x1="129.82" x2="160.82" y1="163.73" y2="163.73"><stop offset=".02" stop-color="#5b454c"/><stop offset=".99" stop-color="#563757"/></linearGradient><linearGradient id="l" gradientUnits="userSpaceOnUse" x1="144.86" x2="144.86" y1="177.12" y2="149.45"><stop offset="0" stop-color="#ebe8ff"/><stop offset=".98" stop-color="#e3d1fe"/></linearGradient><clipPath id="m"><path clip-rule="evenodd" d="m145.32 164.02h.75l-.38-13.76h-.37z"/></clipPath><clipPath id="n"><path clip-rule="evenodd" d="m154.22 163.72v-.44h-8.53v.74z"/></clipPath><clipPath id="o"><circle cx="145.32" cy="174.2" r=".75"/></clipPath><clipPath id="p"><path clip-rule="evenodd" d="m133.82 163.28a.75.75 0 1 1 -.75-.75.75.75 0 0 1 .75.75z"/></clipPath><clipPath id="q"><path clip-rule="evenodd" d="m157.18 163.28a.75.75 0 1 1 -1.5 0 .75.75 0 0 1 1.5 0z"/></clipPath><clipPath id="r"><circle cx="145.32" cy="150.54" r=".75"/></clipPath><linearGradient id="s" gradientUnits="userSpaceOnUse" x1="141.33" x2="153.57" y1="152.37" y2="152.37"><stop offset=".01" stop-color="#be6888"/><stop offset="1" stop-color="#8e81f4"/></linearGradient><linearGradient id="t" gradientTransform="matrix(-.98 -.19 -.19 .98 5322.49 531.47)" gradientUnits="userSpaceOnUse" x1="5147.62" x2="5150.51" y1="637.93" y2="623.35"><stop offset=".02" stop-color="#ffae78"/><stop offset="1" stop-color="#ff866f"/></linearGradient><linearGradient id="u" x1="135.98" x2="135.98" xlink:href="#s" y1="134.01" y2="118.35"/><linearGradient id="v" x1="128.21" x2="128.21" xlink:href="#s" y1="141.32" y2="106.9"/><linearGradient id="w" x1="134.97" x2="135.98" xlink:href="#s" y1="144.6" y2="138.85"/><linearGradient id="x" x1="138.87" x2="140" xlink:href="#s" y1="153.09" y2="146.63"/><linearGradient id="y" gradientUnits="userSpaceOnUse" x1="173.75" x2="176.11" y1="133.04" y2="119.65"><stop offset="0" stop-color="#ff7459"/><stop offset=".98" stop-color="#c75659"/></linearGradient><linearGradient id="z" x1="115.25" x2="167.41" xlink:href="#i" y1="102.15" y2="102.15"/><clipPath id="A"><path clip-rule="evenodd" d="m177.2 118.88-2.31 4.47 3.59 2.18 2.83-4.31z"/></clipPath><linearGradient id="B" x1="176.18" x2="178.42" xlink:href="#c" y1="134.79" y2="122.06"/><linearGradient id="C" gradientTransform="matrix(.87394193 .48603035 -.48603035 .87394193 2737.86 -431.51)" gradientUnits="userSpaceOnUse" x1="-1968.09" x2="-1968.09" y1="1726.34" y2="1707.83"><stop offset=".01" stop-color="#ffff7a"/><stop offset="1" stop-color="#ffc027"/></linearGradient><linearGradient id="D" x1="170.78" x2="174.03" xlink:href="#c" y1="132.1" y2="113.68"/><linearGradient id="E" x1="158.61" x2="163.77" xlink:href="#s" y1="114.05" y2="114.05"/><linearGradient id="F" x1="115.25" x2="167.41" xlink:href="#s" y1="102.15" y2="102.15"/><linearGradient id="G" gradientUnits="userSpaceOnUse" x1="179.91" x2="179.91" y1="127.36" y2="124.65"><stop offset=".02" stop-color="#d1a1d6"/><stop offset=".99" stop-color="#bd89c4"/></linearGradient><linearGradient id="H" x1="176.27" x2="176.27" xlink:href="#G" y1="128.86" y2="126.04"/><linearGradient id="I" x1="174.78" x2="174.78" xlink:href="#G" y1="131.26" y2="129.47"/><linearGradient id="J" x1="36.3" x2="36.3" xlink:href="#y" y1="56.66" y2="49.36"/><linearGradient id="K" gradientUnits="userSpaceOnUse" x1="29.17" x2="34.38" y1="70.73" y2="41.22"><stop offset="0" stop-color="#ff957c"/><stop offset=".98" stop-color="#f48767"/></linearGradient><linearGradient id="L" x1="28.99" x2="35.73" xlink:href="#G" y1="52.39" y2="52.39"/><linearGradient id="M" x1="27.11" x2="31.05" xlink:href="#c" y1="67.67" y2="45.3"/><linearGradient id="N" x1="30.29" x2="61.58" xlink:href="#i" y1="81.44" y2="81.44"/><radialGradient id="O" cx="33.77" cy="113.66" gradientUnits="userSpaceOnUse" r="10.66"><stop offset=".02" stop-color="#c71f20"/><stop offset=".99" stop-color="#ae0340"/></radialGradient><radialGradient id="P" cx="38.85" cy="85.05" r="11.25" xlink:href="#O"/><linearGradient id="Q" x1="44.47" x2="52.84" xlink:href="#s" y1="80.81" y2="80.81"/><linearGradient id="R" x1="32.06" x2="36.21" xlink:href="#G" y1="47.62" y2="47.62"/><linearGradient id="S" x1="34.14" x2="36.24" xlink:href="#G" y1="46.06" y2="46.06"/><linearGradient id="T" x1="32.36" x2="35.24" xlink:href="#G" y1="59.39" y2="59.39"/><linearGradient id="U" gradientUnits="userSpaceOnUse" x1="33.8" x2="33.8" y1="127.21" y2="118.96"><stop offset="0" stop-color="#ffceb1"/><stop offset="1" stop-color="#ea9a6b"/></linearGradient><radialGradient id="V" cx="29.18" cy="113.25" r="9.99" xlink:href="#O"/><linearGradient id="W" gradientUnits="userSpaceOnUse" x1="74.19" x2="80.9" y1="74.82" y2="36.73"><stop offset="0" stop-color="#ff957c"/><stop offset=".98" stop-color="#f47867"/></linearGradient><linearGradient id="X" x1="78.81" x2="78.81" xlink:href="#G" y1="66.72" y2="44.7"/><linearGradient id="Y" x1="70.84" x2="74.73" xlink:href="#c" y1="64.93" y2="42.86"/><clipPath id="Z"><path clip-rule="evenodd" d="m77.16 62.57-5.11-26.57s7.17-1.82 12.2-1l5.12 24.77z"/></clipPath><clipPath id="aa"><path clip-rule="evenodd" d="m72.05 36.01-.65 1.95 4.75 24.61h1.01z"/></clipPath><clipPath id="ab"><path clip-rule="evenodd" d="m72.62 36.92 4.54 23.86 11.16-2.3-4.32-22.8a38 38 0 0 0 -11.38 1.24z"/></clipPath><linearGradient id="ac" x1="141.2" x2="146.15" xlink:href="#K" y1="106.35" y2="78.25"/><linearGradient id="ad" gradientUnits="userSpaceOnUse" x1="85.82" x2="85.82" y1="177.6" y2="110.44"><stop offset=".01" stop-color="#442145"/><stop offset=".98" stop-color="#5b454c"/></linearGradient><linearGradient id="ae" gradientTransform="matrix(.99 -.17 .17 .99 -843.65 415.39)" x1="911.95" x2="916.07" xlink:href="#h" y1="-108.19" y2="-131.56"/><linearGradient id="af" gradientTransform="matrix(.99909335 .04257316 -.04257316 .99909335 227.02 -80.4)" gradientUnits="userSpaceOnUse" x1="-184.42" x2="-184.42" y1="261.9" y2="226.41"><stop offset=".01" stop-color="#ffc202"/><stop offset="1" stop-color="#ffca00"/></linearGradient><linearGradient id="ag" gradientTransform="matrix(.99909335 .04257316 -.04257316 .99909335 227.02 -80.4)" gradientUnits="userSpaceOnUse" x1="-162.87" x2="-162.87" y1="260.42" y2="233.67"><stop offset=".02" stop-color="#e3d1fe"/><stop offset="1" stop-color="#ebe8ff"/></linearGradient><linearGradient id="ah" gradientTransform="matrix(.99 -.17 .17 .99 -843.65 415.39)" x1="939.47" x2="939.47" xlink:href="#i" y1="-129.44" y2="-173.96"/><linearGradient id="ai" gradientTransform="matrix(.99 -.17 .17 .99 -843.65 415.39)" x1="916.59" x2="962.35" xlink:href="#s" y1="-151.18" y2="-151.18"/><linearGradient id="aj" gradientTransform="matrix(.99 -.17 .17 .99 -843.65 415.39)" x1="918.61" x2="926.89" xlink:href="#s" y1="-142.62" y2="-142.62"/><linearGradient id="ak" x1="33.04" x2="33.04" xlink:href="#G" y1="146.53" y2="137.49"/><linearGradient id="al" gradientTransform="matrix(.99 -.17 .17 .99 -843.65 415.39)" x1="903.88" x2="906.4" xlink:href="#t" y1="-115.9" y2="-130.41"/><linearGradient id="am" x1="41.05" x2="41.05" xlink:href="#G" y1="133" y2="129.05"/><linearGradient id="an" gradientUnits="userSpaceOnUse" x1="32.3" x2="32.3" y1="174.2" y2="149.03"><stop offset="0" stop-color="#d67ede"/><stop offset="1" stop-color="#fff"/></linearGradient><linearGradient id="ao" gradientUnits="userSpaceOnUse" x1="96.92" x2="105.4" y1="67.28" y2="19.22"><stop offset=".01" stop-color="#512438"/><stop offset=".99" stop-color="#832e31"/></linearGradient><linearGradient id="ap" x1="100.7" x2="100.7" xlink:href="#y" y1="74.03" y2="51.11"/><linearGradient id="aq" x1="132.62" x2="141.85" xlink:href="#G" y1="93.41" y2="93.41"/><linearGradient id="ar" gradientUnits="userSpaceOnUse" x1="94.1" x2="101.39" y1="59.41" y2="18.05"><stop offset=".02" stop-color="#ffae78"/><stop offset="1" stop-color="#ff957c"/></linearGradient><linearGradient id="as" gradientUnits="userSpaceOnUse" x1="98.23" x2="98.23" y1="58.91" y2="17.89"><stop offset="0" stop-color="#ffeadb"/><stop offset=".99" stop-color="#b060f4"/></linearGradient><linearGradient id="at" gradientUnits="userSpaceOnUse" x1="103.33" x2="103.33" y1="77.1" y2="15.84"><stop offset=".01" stop-color="#772438"/><stop offset=".99" stop-color="#994540"/></linearGradient><linearGradient id="au" gradientUnits="userSpaceOnUse" x1="109.17" x2="110.97" y1="42.28" y2="32.07"><stop offset=".01" stop-color="#512438"/><stop offset=".99" stop-color="#6d1d20"/></linearGradient><linearGradient id="av" gradientUnits="userSpaceOnUse" x1="70.37" x2="70.37" y1="97.97" y2="65.26"><stop offset=".01" stop-color="#9786de"/><stop offset="1" stop-color="#a4a2dc"/></linearGradient><linearGradient id="aw" gradientUnits="userSpaceOnUse" x1="63.04" x2="63.04" y1="98.89" y2="67.62"><stop offset=".01" stop-color="#ddd9ff"/><stop offset=".99" stop-color="#fdfcff"/></linearGradient><linearGradient id="ax" x1="152.73" x2="152.73" xlink:href="#ag" y1="92.34" y2="69.52"/><linearGradient id="ay" x1="153.07" x2="153.07" xlink:href="#ag" y1="97.74" y2="69.52"/><linearGradient id="az" gradientUnits="userSpaceOnUse" x1="153.07" x2="153.07" y1="97.74" y2="69.52"><stop offset="0" stop-color="#8e8ec9"/><stop offset=".99" stop-color="#be6888"/></linearGradient><linearGradient id="aA" x1="142.24" x2="144.07" xlink:href="#c" y1="82.96" y2="72.57"/><linearGradient id="aB" x1="86.9" x2="86.9" xlink:href="#at" y1="35.39" y2="28.92"/><linearGradient id="aC" x1="100.18" x2="100.18" xlink:href="#at" y1="32.85" y2="28.68"/><linearGradient id="aD" gradientUnits="userSpaceOnUse" x1="100.2" x2="100.2" y1="40.7" y2="34.26"><stop offset="0" stop-color="#e1dbfb"/><stop offset="1" stop-color="#fff"/></linearGradient><linearGradient id="aE" x1="87.89" x2="87.89" xlink:href="#aD" y1="42.8" y2="36.36"/><linearGradient id="aF" gradientUnits="userSpaceOnUse" x1="98.06" x2="98.06" y1="40.05" y2="34.26"><stop offset=".02" stop-color="#85757a"/><stop offset=".99" stop-color="#563757"/></linearGradient><linearGradient id="aG" x1="86.67" x2="86.67" xlink:href="#aF" y1="42.21" y2="36.36"/><linearGradient id="aH" x1="88.76" x2="88.76" xlink:href="#U" y1="46.02" y2="40.61"/><linearGradient id="aI" gradientUnits="userSpaceOnUse" x1="105.57" x2="108.71" y1="37.28" y2="19.5"><stop offset=".01" stop-color="#b45e52"/><stop offset=".99" stop-color="#c16140"/></linearGradient><linearGradient id="aJ" x1="113.97" x2="118.22" xlink:href="#aI" y1="71.82" y2="47.72"/><linearGradient id="aK" gradientUnits="userSpaceOnUse" x1="96.2" x2="99.19" y1="48.25" y2="48.25"><stop offset=".01" stop-color="#b060f4"/><stop offset="1" stop-color="#ffeadb"/></linearGradient><linearGradient id="aL" x1="87.5" x2="87.5" xlink:href="#as" y1="44.3" y2="28.96"/><linearGradient id="aM" x1="104.76" x2="104.76" xlink:href="#G" y1="59.78" y2="51.11"/><linearGradient id="aN" x1="91.72" x2="91.72" xlink:href="#au" y1="30.25" y2="18.57"/><linearGradient id="aO" x1="111.52" x2="111.52" xlink:href="#s" y1="77.1" y2="20.03"/><linearGradient id="aP" x1="112.67" x2="114.81" xlink:href="#ar" y1="50.04" y2="37.91"/><linearGradient id="aQ" x1="114.2" x2="114.2" xlink:href="#as" y1="47.63" y2="39.58"/><linearGradient id="aR" x1="109.41" x2="110.11" xlink:href="#aI" y1="22.93" y2="18.99"/><linearGradient id="aS" x1="91.23" x2="93.86" xlink:href="#aI" y1="30.98" y2="16.07"/><linearGradient id="aT" x1="104.98" x2="104.98" xlink:href="#aw" y1="120.68" y2="62.57"/><linearGradient id="aU" gradientUnits="userSpaceOnUse" x1="102.08" x2="102.08" y1="74.89" y2="61.55"><stop offset=".01" stop-color="#efedff"/><stop offset="1" stop-color="#ebe8ff"/></linearGradient><linearGradient id="aV" x1="94.65" x2="94.65" xlink:href="#aU" y1="74.48" y2="62.33"/><linearGradient id="aW" x1="73.76" x2="73.76" xlink:href="#aU" y1="74.56" y2="67.62"/><linearGradient id="aX" x1="90.86" x2="90.86" xlink:href="#s" y1="116.8" y2="83.75"/><linearGradient id="aY" gradientUnits="userSpaceOnUse" x1="103.63" x2="103.63" y1="106.6" y2="87.14"><stop offset="0" stop-color="#8e81f4"/><stop offset=".99" stop-color="#be6888"/></linearGradient><linearGradient id="aZ" gradientUnits="userSpaceOnUse" x1="75.38" x2="75.38" y1="101.67" y2="83.75"><stop offset="0" stop-color="#fff"/><stop offset=".98" stop-color="#a77cbb"/></linearGradient><linearGradient id="a0" x1="95.45" x2="95.45" xlink:href="#aZ" y1="116.8" y2="87.14"/><linearGradient id="a1" x1="134.96" x2="134.96" xlink:href="#aU" y1="102.35" y2="92.39"/><linearGradient id="a2" x1="122.13" x2="122.13" xlink:href="#s" y1="120.68" y2="86.02"/><linearGradient id="a3" x1="61.96" x2="61.96" xlink:href="#s" y1="98.89" y2="73.43"/><linearGradient id="a4" x1="119.53" x2="119.53" xlink:href="#s" y1="107.75" y2="99.18"/><linearGradient id="a5" x1="135.11" x2="135.11" xlink:href="#s" y1="117.04" y2="116.98"/><linearGradient id="a6" gradientTransform="matrix(.41754992 -.90865399 .90865399 .41754992 -3459.88 4734.17)" gradientUnits="userSpaceOnUse" x1="5639.9" x2="5640.39" y1="1215.53" y2="1203.88"><stop offset=".01" stop-color="#8db102"/><stop offset="1" stop-color="#5eaa00"/></linearGradient><linearGradient id="a7" gradientTransform="matrix(.3 .95 -.95 .3 6552.59 1685.61)" gradientUnits="userSpaceOnUse" x1="-3528.81" x2="-3528.19" y1="5711.95" y2="5697.3"><stop offset=".01" stop-color="#ff55c9"/><stop offset="1" stop-color="#ff64cc"/></linearGradient><linearGradient id="a8" x1="147.63" x2="148.12" xlink:href="#a6" y1="198.98" y2="187.43"/><linearGradient id="a9" gradientUnits="userSpaceOnUse" x1="4.55" x2="43.78" y1="193.3" y2="193.3"><stop offset=".02" stop-color="#f2d1fe"/><stop offset="1" stop-color="#fff"/></linearGradient><circle cx="94.35" cy="94.35" fill="#fff" r="94.35"/><g clip-path="url(#a)"><path d="m155.36 69.9 15.23-.82v1.44l2.23.64s-9.82 15.53-14.13 27.73z" fill="#9addff" fill-rule="evenodd"/><path d="m144.8 100.37s6.83.32 10.48 2.62 9 12.46 9 12.46 2.26.21 2.69.64a2.92 2.92 0 0 1 .47 1.54s3.3-3 4.83-3a21.49 21.49 0 0 1 4.3.8l.43-.36s-.37-6.63 4.21-10.08 8.75-2.53 9.67 2.09.88 7.41-7.1 13l-1.11 2.17 1.44 2.06-2.31 2.69-14.39-2z" fill="#9addff" fill-rule="evenodd"/><path d="m131.12 110.33s3.36 3 4.51 5.48 2.06 13 2.06 13.71 3.64 4.49 3.64 4.49l-1.6 2.6.35 2.49s6.27.85 8.09 1.76 3.94 8.22 3.94 8.22 7.18 2.51 8.94 9.49.34 13.17-6.83 18l-15.69-32z" fill="#9addff" fill-rule="evenodd"/><path d="m40.7 69.22 3.14 1.27 1.78 2.65-3.7.29z" fill="#9addff" fill-rule="evenodd"/><path d="m37 41.68 1.24.74v1.26l-.62 4.9.62 1v6.83l-.62.64.62 1.77s-1 5.26-2.73 7.35l1.37 1.17h3l3.79 6.13-12.19-2.66.88-15.6z" fill="#9addff" fill-rule="evenodd"/><path d="m107.14 18.24s8.06.41 9.79 2.14 7.88 9.74 8.49 17.58c.72 9.28-3 39.86-3 39.86l-.32.64.51 1.93 8.18 10.4-15.57-6z" fill="#9addff" fill-rule="evenodd"/><path d="m77.76 264.5 2.57-9.16 1.12-1.65s-1-4.52-5.71-10.7c0 0-1.58-3.49-1.58-4.73s10.84-18.33 10.1-26.83-5.69-14.55-6.34-16.78 2.41-17.9 2.41-17.9l-5.36-4-4.65 74 4.68 7.44z" fill="#9addff" fill-rule="evenodd"/><path d="m123.22 262.83s.14-4.71.39-5.87.42-2.66.42-2.66-3-6.26-3-12.13c0-2.73 5-18.22 4-27.94s-8.63-15.34-9.72-18.65 1.49-38.75-2.25-54.68-14.56-28.2-14.56-28.2l.62-2.26.93-2-.65-1.36 7.85-14.95-15.09 13.4 13.34 56.09 7.25 69.92 9.38 36.46z" fill="#9addff" fill-rule="evenodd"/><path d="m73.05 238.67a10.26 10.26 0 0 0 1.25 4.33l-2.3 6.23c-1.6 2.06-3.42 4.48-5.17 6.84-4 5.45-7.79 10.63-7.79 10.63h-1.83s7-21.5 8.64-32.44.87-30.92.87-30.92l-1.92-3.17c-1.67-6.37-3.35-17.6-4.47-26-.83-6.1-1.33-10.69-1.33-10.69 0-1.86 0-4.11.09-6.57.23-10.87.88-25.56.88-25.56 17.72 0 22 15.87 22 15.87s-1.27 10.28-2.59 21.24c-1.38 11.4-2.73 23.54-2.73 25.67 0 4.17 6.77 8.21 6.77 16.84s-10.37 25.59-10.37 27.7z" fill="url(#b)"/><path d="m123.3 264.13c.23 4.37.54 10.06.54 13a80.23 80.23 0 0 1 -.76 10l-18.15 1.15-.68-1.34s3.56-6.33 4.23-9 3.84-16.42 3.84-18-.71-4.52-.71-6.55.71-4.39.71-8.52-5.28-18.43-6.72-24.29a43.05 43.05 0 0 1 -.95-7.92c-.22-4.11-.17-8-.64-9.55-.76-2.64-5.51-8.45-8.78-19.87-.34-1.2-.69-2.46-1-3.77-1-3.74-2.11-7.86-3.11-11.68-2-7.67-3.61-14.17-3.61-14.17l-5.51-6.4c0-12.34 17.55-22.22 17.55-22.22s4.24 2.83 8.45 13.74a93.67 93.67 0 0 1 3.74 12.56c4.92 21.45 1.63 39.74 2.69 44.83s8.26 10.18 9.41 18.82-3.2 23.74-3.2 27.2a49.27 49.27 0 0 0 2.17 11.65c.57 1.45.21 3 .21 4.69-.02.67.12 2.89.28 5.64z" fill="url(#c)"/><path d="m73.05 238.67a10.26 10.26 0 0 0 1.25 4.33l-2.3 6.23c-1.6 2.06-3.42 4.48-5.17 6.84-4 5.45-7.79 10.63-7.79 10.63h-1.83s7-21.5 8.64-32.44.87-30.92.87-30.92l-1.92-3.17c-1.67-6.37-3.35-17.6-4.47-26-.83-6.1-1.33-10.69-1.33-10.69 0-1.86 0-4.11.09-6.57.23-10.87.88-25.56.88-25.56 17.72 0 22 15.87 22 15.87s-1.27 10.28-2.59 21.24c-1.38 11.4-2.73 23.54-2.73 25.67 0 4.17 6.77 8.21 6.77 16.84s-10.37 25.59-10.37 27.7z" fill="url(#d)" opacity=".8"/><path d="m123.3 264.13c.23 4.37.54 10.06.54 13a80.23 80.23 0 0 1 -.76 10l-18.15 1.15-.68-1.34s3.56-6.33 4.23-9 3.84-16.42 3.84-18-.71-4.52-.71-6.55.71-4.39.71-8.52-5.28-18.43-6.72-24.29a43.05 43.05 0 0 1 -.95-7.92c-.22-4.11-.17-8-.64-9.55-.76-2.64-5.51-8.45-8.78-19.87-.34-1.2-.69-2.46-1-3.77-1-3.74-2.11-7.86-3.11-11.68-2-7.67-3.61-14.17-3.61-14.17l-5.51-6.4c0-12.34 17.55-22.22 17.55-22.22s4.24 2.83 8.45 13.74a93.67 93.67 0 0 1 3.74 12.56c4.92 21.45 1.63 39.74 2.69 44.83s8.26 10.18 9.41 18.82-3.2 23.74-3.2 27.2a49.27 49.27 0 0 0 2.17 11.65c.57 1.45.21 3 .21 4.69-.02.67.12 2.89.28 5.64z" fill="url(#e)" opacity=".8"/><path d="m123 258.5c0 .66.12 2.88.28 5.63l-.23.37s-2.88-8.26-6.14-8.26-4.61 3.74-4.61 3.74c0-1.53-.71-4.52-.71-6.55s.71-4.39.71-8.52-5.28-18.43-6.72-24.29a43.05 43.05 0 0 1 -.95-7.92c5.17 7.62 7.86 27.31 7.86 27.31s2.88 7.11 4.23 5.76 5.76-13.91 4.12-25.15-7.84-15.74-7.84-15.74h-4.63l-2.87-1.88 4.46.77 2.74-3.46s1.64-12.9-2.74-17.28-15.38-3.51-15.78-3.48c-1-3.74-2.11-7.86-3.11-11.68l.85-10.69 13.08-23.18 3 4.74a93.67 93.67 0 0 1 3.74 12.56c4.92 21.45 1.63 39.74 2.69 44.83s8.26 10.18 9.41 18.82-3.2 23.74-3.2 27.2a49.27 49.27 0 0 0 2.17 11.65c.57 1.46.19 2.97.19 4.7z" fill="url(#f)" fill-rule="evenodd" opacity=".8"/><path d="m73.05 238.67a10.26 10.26 0 0 0 1.25 4.33l-2.3 6.23c-1.6 2.06-3.42 4.48-5.17 6.84l-2 1.5 7.43-14.57.12-2.11-1-2c8.19-23 3.55-35.52 3.55-35.52-2.69-2.69-7.7 1.54-7.7 1.54l-.55-1.54-1.92-3.17 1.49 1.75 1 .57s3.29-22.52 2.34-24.92-9.26-3.4-9.26-3.4c-.83-6.13-1.33-10.72-1.33-10.72 0-1.86 0-4.11.09-6.57l3.56.23 16.76 11.32c-1.41 11.4-2.76 23.54-2.76 25.67 0 4.17 6.77 8.21 6.77 16.84s-10.37 25.59-10.37 27.7z" fill="url(#g)" fill-rule="evenodd" opacity=".8"/><path d="m147.83 141.65a26 26 0 0 0 -7.89-1.56l-.39-1.11-8.44-.49s1.45 17.6 4.7 23.83l12.86.27s-1.94-9.12-1.66-14.24z" fill="url(#h)"/><path d="m138.81 135.77.92 3.74c-.89 2.23-8.36 1.77-8.36 1.77l-.43-1.87c-2-5.69-14.26-29-14.26-29a9.73 9.73 0 0 1 .66-1c2.85-3.77 8.42-5.38 8.42-5.38s1.07 1.22 2.47 2.85c.89 1 1.92 2.25 2.89 3.43a33.1 33.1 0 0 1 3.49 4.74 12.39 12.39 0 0 1 .5 1.91.13.13 0 0 0 0 .06.59.59 0 0 1 0 .13c.07.34.14.72.22 1.12v.06c.6 3.37 1.27 8.21 1.64 10.31.09.52.16.87.2 1 .33.83 2.88 3.71 2.88 4a11.58 11.58 0 0 1 -1.24 2.13z" fill="url(#i)" fill-rule="evenodd"/><g clip-path="url(#j)"><path d="m128.67 147.94h32.38v31.56h-32.38z" fill="#3e1b40"/><path d="m149.06 144.26c9.32.31 16.69 6.1 16.46 12.93s-8 12.12-17.29 11.8-16.69-6.1-16.46-12.94 7.97-12.11 17.29-11.79z" fill="#3e1b40"/><ellipse cx="148.65" cy="156.62" fill="#3f1c40" rx="11.77" ry="16.06" transform="matrix(.03 -1 1 .03 -12.91 299.9)"/><ellipse cx="148.65" cy="156.62" fill="#401c40" rx="11.17" ry="15.24" transform="matrix(.03367848 -.99943272 .99943272 .03367848 -12.91 299.9)"/><ellipse cx="148.65" cy="156.62" fill="#411d40" rx="10.56" ry="14.41" transform="matrix(.03367848 -.99943272 .99943272 .03367848 -12.91 299.9)"/><ellipse cx="148.65" cy="156.62" fill="#421e3f" rx="9.96" ry="13.59" transform="matrix(.03367848 -.99943272 .99943272 .03367848 -12.91 299.9)"/><ellipse cx="148.65" cy="156.62" fill="#431e3f" rx="9.35" ry="12.76" transform="matrix(.03367848 -.99943272 .99943272 .03367848 -12.91 299.9)"/><ellipse cx="148.65" cy="156.62" fill="#441f3f" rx="8.75" ry="11.93" transform="matrix(.03367848 -.99943272 .99943272 .03367848 -12.91 299.9)"/><ellipse cx="148.65" cy="156.62" fill="#451f3f" rx="8.14" ry="11.11" transform="matrix(.03367848 -.99943272 .99943272 .03367848 -12.91 299.9)"/><path d="m148.9 149.09c5.68.19 10.16 3.72 10 7.88s-4.85 7.38-10.53 7.19-10.16-3.72-10-7.88 4.85-7.38 10.53-7.19z" fill="#46203f"/><path d="m148.88 149.7c5.22.17 9.35 3.42 9.22 7.24s-4.47 6.79-9.69 6.61-9.35-3.42-9.22-7.24 4.47-6.79 9.69-6.61z" fill="#47213f"/><path d="m148.86 150.3c4.77.16 8.53 3.12 8.41 6.62s-4.07 6.19-8.84 6-8.53-3.12-8.41-6.62 4.07-6.16 8.84-6z" fill="#49213e"/><ellipse cx="148.65" cy="156.62" fill="#4a223e" rx="5.72" ry="7.81" transform="matrix(.03367848 -.99943272 .99943272 .03367848 -12.91 299.9)"/><path d="m148.82 151.51c3.85.13 6.9 2.53 6.8 5.35s-3.29 5-7.15 4.88-6.9-2.53-6.8-5.35 3.33-5.01 7.15-4.88z" fill="#4b233e"/><ellipse cx="148.65" cy="156.62" fill="#4c233e" rx="4.51" ry="6.16" transform="matrix(.03385292 -.99942683 .99942683 .03385292 -12.91 299.9)"/><ellipse cx="148.65" cy="156.62" fill="#4d243e" rx="3.91" ry="5.33" transform="matrix(.03 -1 1 .03 -12.91 299.9)"/><path d="m148.76 153.32c2.49.09 4.45 1.63 4.39 3.46s-2.13 3.23-4.62 3.15-4.45-1.63-4.39-3.46 2.13-3.23 4.62-3.15z" fill="#4e243e"/><path d="m148.74 153.93c2 .07 3.64 1.33 3.59 2.82s-1.74 2.64-3.77 2.57-3.64-1.32-3.56-2.82 1.71-2.64 3.74-2.57z" fill="#4f253d"/><path d="m148.72 154.53c1.57.06 2.82 1 2.78 2.19s-1.35 2.05-2.92 2-2.83-1-2.79-2.19 1.35-2.05 2.93-2z" fill="#50263d"/><path d="m148.7 155.14c1.12 0 2 .73 2 1.55s-1 1.46-2.08 1.42-2-.73-2-1.55.96-1.46 2.08-1.42z" fill="#51263d"/><path d="m148.68 155.74c.66 0 1.19.44 1.17.93s-.57.86-1.23.84-1.19-.44-1.18-.93.56-.86 1.24-.84z" fill="#52273d"/></g><circle cx="145.32" cy="163.73" fill="url(#k)" r="15.5" transform="matrix(.2317479 -.97277588 .97277588 .2317479 -47.63 267.14)"/><path d="m159.16 163.28a13.84 13.84 0 0 1 -13.84 13.85h-.46a13.84 13.84 0 0 1 0-27.67 3.54 3.54 0 0 1 .46 0 13.85 13.85 0 0 1 13.84 13.82z" fill="#6f72ce" fill-rule="evenodd"/><path d="m158.25 163.28a13.4 13.4 0 1 1 -13.39-13.83 13.85 13.85 0 0 1 13.39 13.83z" fill="url(#l)" fill-rule="evenodd"/><g clip-path="url(#m)"><path d="m145.32 150.26h.75v13.76h-.75z" fill="#3e1b40"/><path d="m145.94 149.4a8 8 0 0 1 4.55 1.51h-3.66v6.57h3.45a8.43 8.43 0 0 1 -9.21-.3h3.49v-3.35h-5.29c.09-2.57 3.07-4.55 6.67-4.43z" fill="#3e1b40"/><path d="m145.93 149.62c3.42.12 6.12 2.19 6 4.63s-2.91 4.33-6.33 4.22-6.13-2.19-6-4.63 2.91-4.33 6.33-4.22z" fill="#3f1c40"/><path d="m145.92 149.85c3.24.11 5.81 2.07 5.73 4.39s-2.76 4.11-6 4-5.81-2.07-5.73-4.39 2.76-4.11 6-4z" fill="#401c40"/><path d="m145.91 150.08c3.07.1 5.5 2 5.43 4.15s-2.62 3.88-5.69 3.78-5.49-2-5.42-4.15 2.62-3.86 5.68-3.78z" fill="#411d40"/><path d="m145.91 150.31c2.89.09 5.18 1.84 5.11 3.91s-2.47 3.66-5.36 3.57-5.18-1.85-5.11-3.92 2.45-3.66 5.36-3.56z" fill="#421e3f"/><path d="m145.9 150.53c2.71.09 4.86 1.74 4.8 3.68s-2.32 3.44-5 3.35-4.87-1.74-4.81-3.68 2.29-3.44 5.01-3.35z" fill="#431e3f"/><path d="m145.89 150.76c2.54.08 4.55 1.62 4.49 3.44s-2.17 3.22-4.71 3.13-4.55-1.62-4.49-3.44 2.17-3.21 4.71-3.13z" fill="#441f3f"/><path d="m145.88 151c2.37.08 4.24 1.51 4.18 3.2s-2 3-4.38 2.91-4.23-1.51-4.18-3.19 2.02-3.01 4.38-2.92z" fill="#451f3f"/><path d="m145.88 151.21c2.18.08 3.92 1.4 3.87 3s-1.87 2.77-4.06 2.7-3.92-1.4-3.87-3 1.87-2.77 4.06-2.7z" fill="#46203f"/><path d="m145.87 151.44c2 .07 3.6 1.29 3.56 2.73s-1.72 2.55-3.73 2.48-3.61-1.29-3.56-2.72 1.71-2.55 3.73-2.49z" fill="#47213f"/><path d="m145.86 151.67c1.84.06 3.29 1.17 3.25 2.49s-1.57 2.32-3.41 2.26-3.29-1.17-3.24-2.48 1.54-2.33 3.4-2.27z" fill="#49213e"/><path d="m145.85 151.9c1.66 0 3 1.06 2.94 2.25s-1.42 2.1-3.08 2-3-1.07-2.94-2.25 1.42-2.06 3.08-2z" fill="#4a223e"/><path d="m145.85 152.12c1.48 0 2.66.95 2.62 2s-1.26 1.89-2.75 1.84-2.66-.95-2.63-2 1.27-1.89 2.76-1.84z" fill="#4b233e"/><path d="m145.84 152.35c1.31 0 2.35.84 2.32 1.77s-1.12 1.66-2.43 1.62-2.35-.84-2.32-1.77 1.12-1.66 2.43-1.62z" fill="#4c233e"/><path d="m145.83 152.58c1.14 0 2 .72 2 1.53s-1 1.44-2.11 1.4-2-.72-2-1.53.98-1.44 2.11-1.4z" fill="#4d243e"/><path d="m145.82 152.81c1 0 1.72.61 1.7 1.29s-.82 1.22-1.78 1.19-1.72-.62-1.69-1.3.81-1.22 1.77-1.18z" fill="#4e243e"/><path d="m145.82 153c.78 0 1.4.5 1.38 1.06s-.67 1-1.45 1-1.4-.5-1.39-1.06.64-1 1.46-1z" fill="#4f253d"/><path d="m145.81 153.26c.61 0 1.09.39 1.07.82s-.52.77-1.12.75-1.09-.39-1.08-.82.52-.77 1.13-.75z" fill="#50263d"/><path d="m145.8 153.49c.43 0 .77.27.76.58s-.36.55-.8.53-.77-.27-.76-.58.37-.55.8-.53z" fill="#51263d"/><path d="m145.79 153.71c.26 0 .46.17.46.35a.42.42 0 0 1 -.48.32c-.26 0-.46-.17-.45-.35s.22-.32.47-.32z" fill="#52273d"/></g><g clip-path="url(#n)"><path d="m145.69 163.28h8.52v.74h-8.52z" fill="#3e1b40"/><path d="m151 161.94c1.2 0 2.14.76 2.11 1.62s-1 1.51-2.21 1.47-2.13-.76-2.11-1.62 1.02-1.51 2.21-1.47z" fill="#3e1b40"/><path d="m151 162c1.13 0 2 .72 2 1.53s-1 1.44-2.11 1.4-2-.72-2-1.53.98-1.4 2.11-1.4z" fill="#3f1c40"/><path d="m151 162.09c1.07 0 1.93.69 1.9 1.46s-.92 1.36-2 1.33-1.93-.69-1.9-1.46.92-1.36 2-1.33z" fill="#401c40"/><path d="m151 162.17c1 0 1.82.65 1.79 1.38s-.86 1.28-1.88 1.25-1.82-.65-1.8-1.38.89-1.28 1.89-1.25z" fill="#411d40"/><path d="m151 162.24c1 0 1.72.62 1.7 1.3s-.82 1.22-1.78 1.19-1.72-.62-1.69-1.3.77-1.22 1.77-1.19z" fill="#421e3f"/><path d="m151 162.32c.9 0 1.61.58 1.59 1.22s-.77 1.14-1.67 1.11-1.61-.58-1.59-1.22.76-1.14 1.67-1.11z" fill="#431e3f"/><path d="m151 162.4c.84 0 1.51.53 1.49 1.14s-.72 1.06-1.56 1-1.51-.53-1.49-1.13.71-1.04 1.56-1.01z" fill="#441f3f"/><path d="m151 162.47c.78 0 1.4.5 1.38 1.06s-.67 1-1.45 1-1.41-.5-1.39-1.06.66-1.02 1.46-1z" fill="#451f3f"/><path d="m151 162.55c.73 0 1.3.46 1.29 1s-.62.92-1.35.89-1.3-.46-1.28-1 .6-.92 1.34-.89z" fill="#46203f"/><path d="m151 162.62c.67 0 1.2.43 1.18.91s-.57.84-1.24.82-1.19-.43-1.18-.9.55-.85 1.24-.83z" fill="#47213f"/><path d="m151 162.7c.61 0 1.09.39 1.08.82s-.52.77-1.13.75-1.09-.39-1.08-.82.5-.77 1.13-.75z" fill="#49213e"/><path d="m151 162.77c.55 0 1 .35 1 .75s-.47.7-1 .68-1-.35-1-.75.43-.7 1-.68z" fill="#4a223e"/><path d="m151 162.85c.5 0 .89.31.88.66s-.43.63-.92.61-.88-.31-.87-.66.39-.63.91-.61z" fill="#4b233e"/><path d="m151 162.92c.44 0 .78.28.77.59s-.37.55-.81.54-.77-.28-.76-.59.34-.55.8-.54z" fill="#4c233e"/><path d="m151 163c.38 0 .67.24.66.51s-.32.47-.69.46-.68-.24-.67-.51.29-.46.7-.46z" fill="#4d243e"/><path d="m151 163.07c.31 0 .57.21.56.43s-.27.41-.59.4-.57-.21-.56-.43.24-.41.59-.4z" fill="#4e243e"/><path d="m151 163.15c.26 0 .47.17.46.35s-.22.33-.48.32-.46-.16-.46-.35.18-.33.48-.32z" fill="#4f253d"/><path d="m151 163.22c.2 0 .36.13.36.28s-.17.25-.38.25-.36-.13-.35-.28.13-.25.37-.25z" fill="#50263d"/><path d="m151 163.3c.14 0 .26.09.25.19s-.12.19-.26.18-.26-.09-.26-.19.09-.18.27-.18z" fill="#51263d"/><path d="m151 163.38c.08 0 .15.05.15.11a.16.16 0 0 1 -.16.11c-.09 0-.15-.06-.15-.12s.03-.11.16-.1z" fill="#52273d"/></g><g clip-path="url(#o)"><path d="m144.57 173.45h1.5v1.5h-1.5z" fill="#3e1b40"/><path d="m145.51 173.29c.45 0 .8.28.79.6s-.38.56-.82.55-.8-.29-.79-.6.38-.57.82-.55z" fill="#3e1b40"/><path d="m145.51 173.32c.42 0 .76.27.75.57s-.36.53-.78.52-.76-.27-.75-.57.36-.54.78-.52z" fill="#3f1c40"/><path d="m145.51 173.34c.4 0 .72.26.71.55s-.34.5-.74.49-.72-.26-.71-.54.34-.51.74-.5z" fill="#401c40"/><path d="m145.51 173.37c.38 0 .68.24.67.52s-.32.48-.7.46-.68-.24-.67-.51.32-.48.7-.47z" fill="#411d40"/><path d="m145.51 173.4c.36 0 .64.23.63.48s-.3.46-.66.44-.64-.22-.63-.48.3-.45.66-.44z" fill="#421e3f"/><path d="m145.51 173.43c.33 0 .6.21.59.45s-.28.43-.62.42-.6-.22-.59-.46.28-.42.62-.41z" fill="#431e3f"/><path d="m145.51 173.46c.31 0 .56.2.55.42s-.26.4-.58.39-.56-.2-.55-.43.26-.39.58-.38z" fill="#441f3f"/><path d="m145.51 173.48c.29 0 .52.19.51.4s-.25.37-.54.36-.52-.19-.51-.39.25-.37.54-.37z" fill="#451f3f"/><path d="m145.51 173.51c.27 0 .48.18.47.37s-.23.34-.5.33-.48-.17-.47-.36.23-.35.5-.34z" fill="#46203f"/><path d="m145.51 173.54c.24 0 .44.16.43.34s-.21.31-.46.3-.44-.15-.44-.33.22-.32.47-.31z" fill="#47213f"/><path d="m145.5 173.57c.23 0 .41.14.41.31s-.2.28-.43.28-.4-.15-.4-.31a.37.37 0 0 1 .42-.28z" fill="#49213e"/><path d="m145.5 173.6c.21 0 .37.13.37.27s-.18.26-.38.26-.37-.13-.37-.28a.33.33 0 0 1 .38-.25z" fill="#4a223e"/><path d="m145.5 173.63c.19 0 .33.11.33.24a.3.3 0 0 1 -.34.23c-.19 0-.33-.12-.33-.25a.3.3 0 0 1 .34-.22z" fill="#4b233e"/><path d="m145.5 173.65c.16 0 .29.11.29.22a.26.26 0 0 1 -.3.2.26.26 0 0 1 -.29-.22c.01-.11.14-.2.3-.2z" fill="#4c233e"/><path d="m145.5 173.68c.14 0 .25.09.25.19s-.12.18-.26.17a.23.23 0 0 1 -.25-.19c0-.1.12-.17.26-.17z" fill="#4d243e"/><path d="m145.5 173.71a.19.19 0 0 1 .21.16c0 .08-.1.15-.22.15s-.21-.08-.21-.16.1-.15.22-.15z" fill="#4e243e"/><path d="m145.5 173.74c.1 0 .17.06.17.13s-.08.12-.18.12-.17-.06-.17-.13.08-.13.18-.12z" fill="#4f253d"/><path d="m145.5 173.77c.07 0 .13 0 .13.1s-.06.09-.14.09a.12.12 0 0 1 -.13-.1c0-.06.06-.1.14-.09z" fill="#50263d"/><path d="m145.5 173.79c.05 0 .09 0 .09.08s0 .06-.1.06a.08.08 0 0 1 -.09-.07s.04-.07.1-.07z" fill="#51263d"/><path d="m145.5 173.82a0 0 0 0 1 .05 0s0 0-.06 0a0 0 0 0 1 -.05 0s.02 0 .06 0z" fill="#52273d"/></g><g clip-path="url(#p)"><path d="m132.32 162.53h1.5v1.5h-1.5z" fill="#3e1b40"/><path d="m133.26 162.37c.45 0 .8.28.79.6s-.38.56-.83.55-.79-.29-.78-.6.38-.57.82-.55z" fill="#3e1b40"/><path d="m133.26 162.4c.42 0 .76.27.75.57s-.36.53-.78.52-.76-.27-.75-.57.36-.54.78-.52z" fill="#3f1c40"/><path d="m133.26 162.43c.4 0 .72.25.71.54s-.34.5-.74.49-.72-.25-.71-.54.34-.51.74-.49z" fill="#401c40"/><path d="m133.26 162.45c.38 0 .68.25.67.52s-.32.48-.7.46-.68-.24-.67-.51.32-.48.7-.47z" fill="#411d40"/><path d="m133.26 162.48c.36 0 .64.23.63.48s-.3.46-.66.45-.64-.23-.63-.49.3-.45.66-.44z" fill="#421e3f"/><path d="m133.26 162.51c.33 0 .6.21.59.45s-.29.43-.62.42-.6-.22-.59-.46.28-.42.62-.41z" fill="#431e3f"/><path d="m133.26 162.54c.31 0 .56.2.55.42s-.27.4-.58.39-.56-.2-.55-.43.26-.39.58-.38z" fill="#441f3f"/><path d="m133.26 162.57c.29 0 .52.18.51.39s-.25.37-.54.36-.52-.19-.51-.39.28-.37.54-.36z" fill="#451f3f"/><path d="m133.26 162.59c.27 0 .48.18.47.37s-.23.34-.5.33-.48-.17-.48-.36.25-.35.51-.34z" fill="#46203f"/><path d="m133.25 162.62c.25 0 .45.16.44.34s-.21.31-.46.31-.44-.16-.44-.34.21-.32.46-.31z" fill="#47213f"/><path d="m133.25 162.65c.23 0 .41.14.4.31s-.19.28-.42.28-.4-.15-.4-.31a.37.37 0 0 1 .42-.28z" fill="#49213e"/><path d="m133.25 162.68a.33.33 0 0 1 .37.28.34.34 0 0 1 -.38.25c-.21 0-.37-.13-.37-.28a.33.33 0 0 1 .38-.25z" fill="#4a223e"/><path d="m133.25 162.71c.19 0 .33.11.33.24a.3.3 0 0 1 -.34.23c-.19 0-.33-.12-.33-.25a.3.3 0 0 1 .34-.22z" fill="#4b233e"/><path d="m133.25 162.73c.16 0 .29.11.29.22a.26.26 0 0 1 -.3.2.26.26 0 0 1 -.29-.22c.05-.11.14-.2.3-.2z" fill="#4c233e"/><path d="m133.25 162.76c.14 0 .25.09.25.19a.23.23 0 0 1 -.26.17c-.14 0-.25-.08-.25-.18s.12-.18.26-.18z" fill="#4d243e"/><path d="m133.25 162.79a.19.19 0 0 1 .21.16c0 .09-.1.15-.22.15s-.21-.08-.21-.16.1-.15.22-.15z" fill="#4e243e"/><path d="m133.25 162.82c.09 0 .17.06.17.13s-.08.12-.18.12-.17-.06-.17-.13.08-.12.18-.12z" fill="#4f253d"/><path d="m133.25 162.85c.07 0 .13 0 .13.1s-.06.09-.14.09a.12.12 0 0 1 -.13-.1.11.11 0 0 1 .14-.09z" fill="#50263d"/><path d="m133.25 162.87c.05 0 .09 0 .09.08s-.05.06-.1.06a.08.08 0 0 1 -.09-.07s.04-.07.1-.07z" fill="#51263d"/><path d="m133.25 162.9a0 0 0 0 1 .05 0s0 0-.06 0a0 0 0 0 1 -.05 0s.02 0 .06 0z" fill="#52273d"/></g><g clip-path="url(#q)"><path d="m155.68 162.53h1.5v1.5h-1.5z" fill="#3e1b40"/><path d="m156.63 162.37c.44 0 .79.28.78.6s-.38.56-.82.55-.8-.29-.79-.6.38-.57.83-.55z" fill="#3e1b40"/><path d="m156.63 162.4c.42 0 .75.27.74.57s-.36.53-.78.52-.76-.27-.75-.57.36-.54.79-.52z" fill="#3f1c40"/><path d="m156.62 162.43c.41 0 .72.25.71.54s-.34.5-.74.49-.72-.25-.71-.54.34-.51.74-.49z" fill="#401c40"/><path d="m156.62 162.45c.38 0 .68.25.67.52s-.32.48-.7.46-.68-.24-.67-.51.33-.48.7-.47z" fill="#411d40"/><path d="m156.62 162.48c.36 0 .64.23.63.48s-.3.46-.66.45-.64-.23-.63-.49.31-.45.66-.44z" fill="#421e3f"/><path d="m156.62 162.51c.34 0 .6.21.6.45s-.29.43-.63.42-.6-.22-.59-.46.29-.42.62-.41z" fill="#431e3f"/><path d="m156.62 162.54c.31 0 .56.2.56.42s-.27.4-.59.39-.56-.2-.55-.43.27-.39.58-.38z" fill="#441f3f"/><path d="m156.62 162.57c.29 0 .52.18.52.39s-.25.37-.54.36-.53-.19-.52-.39.25-.37.54-.36z" fill="#451f3f"/><path d="m156.62 162.59c.27 0 .48.18.48.37s-.23.34-.5.33-.49-.17-.48-.36.23-.35.5-.34z" fill="#46203f"/><path d="m156.62 162.62c.25 0 .44.16.44.34s-.21.31-.46.31-.45-.16-.44-.34.21-.32.46-.31z" fill="#47213f"/><path d="m156.62 162.65c.22 0 .4.14.4.31s-.19.28-.42.28-.41-.15-.4-.31.19-.29.42-.28z" fill="#49213e"/><path d="m156.62 162.68a.33.33 0 0 1 .36.28.34.34 0 0 1 -.38.25c-.21 0-.37-.13-.36-.28s.17-.26.38-.25z" fill="#4a223e"/><path d="m156.62 162.71c.18 0 .32.11.32.24s-.16.24-.34.23-.33-.12-.32-.25.15-.23.34-.22z" fill="#4b233e"/><path d="m156.61 162.73c.17 0 .29.11.29.22s-.14.21-.3.2a.26.26 0 0 1 -.29-.22c.01-.11.14-.2.3-.2z" fill="#4c233e"/><path d="m156.61 162.76c.14 0 .25.09.25.19s-.12.18-.26.17-.25-.08-.25-.18.12-.18.26-.18z" fill="#4d243e"/><path d="m156.61 162.79c.12 0 .22.08.21.16s-.1.15-.22.15-.21-.08-.21-.16.1-.15.22-.15z" fill="#4e243e"/><path d="m156.61 162.82c.1 0 .18.06.17.13s-.08.12-.18.12-.17-.06-.17-.13.09-.12.18-.12z" fill="#4f253d"/><path d="m156.61 162.85c.08 0 .14 0 .13.1s-.06.09-.14.09a.12.12 0 0 1 -.13-.1c0-.05.07-.1.14-.09z" fill="#50263d"/><path d="m156.61 162.87s.1 0 .09.08 0 .06-.09.06-.1 0-.1-.07.05-.07.1-.07z" fill="#51263d"/><path d="m156.61 162.9a.06.06 0 0 1 .06 0 0 0 0 0 1 -.06 0s-.06 0-.06 0 .03 0 .06 0z" fill="#52273d"/></g><g clip-path="url(#r)"><path d="m144.57 149.79h1.5v1.5h-1.5z" fill="#3e1b40"/><path d="m145.51 149.63c.45 0 .8.28.79.6s-.38.56-.82.55-.8-.29-.79-.61.38-.56.82-.54z" fill="#3e1b40"/><path d="m145.51 149.66c.42 0 .76.26.75.57s-.36.53-.78.52-.76-.27-.75-.57.36-.54.78-.52z" fill="#3f1c40"/><path d="m145.51 149.68c.4 0 .72.26.71.55s-.34.5-.74.49-.72-.26-.71-.54.34-.51.74-.5z" fill="#401c40"/><path d="m145.51 149.71c.38 0 .68.24.67.51s-.32.48-.7.47-.68-.24-.67-.51.32-.48.7-.47z" fill="#411d40"/><path d="m145.51 149.74c.36 0 .64.23.63.48s-.3.45-.66.44-.64-.22-.63-.48.3-.45.66-.44z" fill="#421e3f"/><path d="m145.51 149.77c.33 0 .6.21.59.45s-.28.43-.62.42-.6-.22-.59-.46.28-.42.62-.41z" fill="#431e3f"/><path d="m145.51 149.8c.31 0 .56.2.55.42s-.26.4-.58.39-.56-.2-.55-.43.26-.39.58-.38z" fill="#441f3f"/><path d="m145.51 149.82c.29 0 .52.19.51.4s-.25.37-.54.36-.52-.19-.51-.4.25-.37.54-.36z" fill="#451f3f"/><path d="m145.51 149.85c.27 0 .48.17.47.37s-.23.34-.5.33-.48-.17-.47-.36.23-.35.5-.34z" fill="#46203f"/><path d="m145.51 149.88c.24 0 .44.16.43.34s-.21.31-.46.3-.44-.16-.44-.33.22-.32.47-.31z" fill="#47213f"/><path d="m145.5 149.91c.23 0 .41.14.41.3s-.2.29-.43.28-.4-.14-.4-.3a.37.37 0 0 1 .42-.28z" fill="#49213e"/><path d="m145.5 149.94c.21 0 .37.13.37.27s-.18.26-.38.26-.37-.13-.37-.28a.33.33 0 0 1 .38-.25z" fill="#4a223e"/><path d="m145.5 150c.19 0 .33.12.33.25s-.16.23-.34.23-.33-.12-.33-.25.16-.23.34-.23z" fill="#4b233e"/><path d="m145.5 150c.16 0 .29.11.29.22a.26.26 0 0 1 -.3.2.26.26 0 0 1 -.29-.22c.01-.12.14-.2.3-.2z" fill="#4c233e"/><path d="m145.5 150a.23.23 0 0 1 .25.19c0 .1-.12.18-.26.17a.23.23 0 0 1 -.25-.19c0-.08.12-.17.26-.17z" fill="#4d243e"/><path d="m145.5 150.05c.12 0 .21.07.21.16s-.1.15-.22.14-.21-.07-.21-.16.1-.19.22-.14z" fill="#4e243e"/><path d="m145.5 150.08c.1 0 .17.06.17.13s-.08.12-.18.12-.17-.07-.17-.13.08-.13.18-.12z" fill="#4f253d"/><path d="m145.5 150.1c.07 0 .13.05.13.11s-.06.09-.14.09a.12.12 0 0 1 -.13-.1c0-.06.06-.1.14-.1z" fill="#50263d"/><path d="m145.5 150.13a.09.09 0 0 1 .09.07s0 .07-.1.07a.08.08 0 0 1 -.09-.07s.04-.07.1-.07z" fill="#51263d"/><path d="m145.5 150.16a0 0 0 0 1 .05 0s0 0-.06 0a0 0 0 0 1 -.05 0s.02 0 .06 0z" fill="#52273d"/></g><path d="m141.33 148.56 1.34 1.21s4.58 6.64 10.9 6.74l-4.4-7.95a22.66 22.66 0 0 0 -7.84 0z" fill="url(#s)" fill-rule="evenodd" opacity=".5"/><path d="m147.83 141.65a7.21 7.21 0 0 0 -4.48 5.57s1 1.36 4.39 1.68l.82 1 .35 3.16s.52 2.59 4.66 3.41l1.43-.47-3.85-6s-1.44-6.63-3.32-8.35z" fill="url(#t)"/><path d="m137 128.66a8 8 0 0 1 -2 5.35s1.21-10 .4-15.66c.6 3.37 1.23 8.21 1.6 10.31z" fill="url(#u)" fill-rule="evenodd" opacity=".5"/><path d="m139.73 139.51c-.89 2.23-8.36 1.77-8.36 1.77l-.43-1.87c-2-5.69-14.26-29-14.26-29a9.73 9.73 0 0 1 .66-1l10.89-2.53c.89 1 1.92 2.25 2.89 3.43 0 0-7.44 6.14-7.44 9.21s7.44 17.48 7.44 17.48a12.38 12.38 0 0 0 7.69-1.26z" fill="url(#v)" fill-rule="evenodd" opacity=".5"/><path d="m139.94 140.09-8.24 3.91-.33-2.74s7 .6 8.36-1.77z" fill="url(#w)" opacity=".5"/><path d="m143.35 147.22-5.28 1-4.25 4s3.48-4 11.1-4z" fill="url(#x)" opacity=".5"/><path d="m175.49 119.53 4.8 3.56-4.47 5.46-1.49 2.98-2.14 1.23-1.89-.75v-6.52z" fill="url(#y)"/><path d="m167.41 119.86s-3 4.5-7.45 4.5c0 0-22.76-15.27-28.94-19.08s-15.77-8.86-15.77-8.86 2-14 6.1-16.49c0 0 11.12 12.95 14.38 16.21 2.23 2.24 7.26 3.65 11.45 5l.48.16a29.4 29.4 0 0 1 4.4 1.66c1.76.9 4.28 3.58 6.55 6.28 2.78 3.32 5.16 6.67 5.16 6.67s1.87.08 2.2.41.36 2.91.36 2.91z" fill="url(#z)" fill-rule="evenodd"/><g clip-path="url(#A)"><path d="m174.89 118.88h6.43v6.64h-6.43z" fill="#6f5570"/><path d="m179.32 118.45c1.88.26 3.24 1.56 3.05 2.9s-1.87 2.2-3.74 1.94-3.23-1.57-3-2.91 1.82-2.2 3.69-1.93z" fill="#6f5570"/><path d="m179.3 118.59c1.77.25 3 1.47 2.87 2.73s-1.75 2.08-3.52 1.83-3-1.48-2.87-2.74 1.76-2.08 3.52-1.82z" fill="#6f556f"/><path d="m179.28 118.72c1.66.24 2.87 1.39 2.7 2.57s-1.65 2-3.31 1.72-2.86-1.39-2.69-2.57 1.65-1.95 3.3-1.72z" fill="#6f556e"/><path d="m179.26 118.86c1.55.22 2.68 1.3 2.52 2.41s-1.54 1.82-3.09 1.6-2.67-1.3-2.52-2.4 1.55-1.83 3.09-1.61z" fill="#6f566d"/><ellipse cx="178.98" cy="120.87" fill="#6f566c" rx="1.88" ry="2.64" transform="matrix(.14124681 -.98997441 .98997441 .14124681 34.04 280.98)"/><path d="m179.22 119.14c1.34.19 2.31 1.12 2.17 2.07s-1.32 1.57-2.66 1.38-2.3-1.12-2.17-2.07 1.33-1.52 2.66-1.38z" fill="#6e566b"/><path d="m179.2 119.28c1.23.18 2.12 1 2 1.9s-1.22 1.45-2.45 1.27-2.12-1-2-1.9 1.25-1.44 2.45-1.27z" fill="#6e566a"/><path d="m179.18 119.42c1.12.16 1.94.94 1.82 1.74s-1.11 1.31-2.23 1.15-1.93-.93-1.82-1.73 1.12-1.32 2.23-1.16z" fill="#6e5769"/><path d="m179.17 119.56c1 .14 1.74.85 1.64 1.57s-1 1.19-2 1-1.74-.84-1.64-1.56.98-1.15 2-1.01z" fill="#6e5768"/><path d="m179.15 119.7c.9.13 1.56.75 1.46 1.4s-.9 1.06-1.8.93-1.56-.75-1.47-1.4.9-1.06 1.81-.93z" fill="#6e5766"/><path d="m179.13 119.84c.79.11 1.37.66 1.29 1.23s-.79.94-1.59.83-1.37-.67-1.29-1.24.79-.94 1.59-.82z" fill="#6e5765"/><path d="m179.11 120c.68.1 1.18.57 1.11 1.06s-.68.81-1.37.72-1.19-.58-1.12-1.07.69-.83 1.38-.71z" fill="#6e5864"/><path d="m179.09 120.12c.58.08 1 .48.94.9s-.58.68-1.16.6-1-.49-.94-.9.58-.72 1.16-.6z" fill="#6e5863"/><path d="m179.07 120.26c.47.06.81.39.76.73s-.47.56-.94.49-.82-.4-.77-.74.47-.55.95-.48z" fill="#6d5862"/><path d="m179.05 120.39c.36.06.63.31.59.57s-.36.43-.73.38-.63-.31-.59-.57.36-.43.73-.38z" fill="#6d5861"/><path d="m179 120.53c.25 0 .44.22.41.4s-.25.31-.51.27-.44-.22-.42-.4.29-.3.52-.27z" fill="#6d5960"/><path d="m179 120.67a.25.25 0 0 1 .24.24.25.25 0 0 1 -.3.15c-.15 0-.26-.13-.24-.23s.16-.18.3-.16z" fill="#6d595f"/></g><path d="m179.69 122.3s-1.68 1.53-1.68 2.35l-2.8-1.16a4.37 4.37 0 0 0 -1.47 2.55 4.74 4.74 0 0 0 -1.74 2.53l.58.9s-1.69 1.26-1.69 2.64l5.32 2.68 1.48-2.95-.37-.58 2.37-4.37 2.11.47 1.95-2.71s-3-2.35-4.06-2.35z" fill="url(#B)"/><path d="m187.94 104.47c-3.4-1.89-9.62 3.1-10 6.91s.67 5-.15 6.47-.12 2.11-.12 2.11l1.23.68 1.23.68s.9.28 1.73-1.2 2.36-1.25 5.42-3.55 4.05-10.21.66-12.1z" fill="url(#C)" fill-rule="evenodd"/><path d="m161.57 124.16 1.58 1.47a13.08 13.08 0 0 0 7.15 6.37s2.16-3 2.16-5.95c0 0 2.69-2.69 2.69-5.9l1.1-.43 3.41.57s3.41-1 4.42-3.41v-1.44l-6.67 1.44s-4.52-1-5.43-1-4.57 4-4.57 4z" fill="url(#D)"/><path d="m161.57 118.88a29.93 29.93 0 0 0 -3-9.66c2.78 3.32 5.16 6.67 5.16 6.67a11.56 11.56 0 0 1 -2.16 2.99z" fill="url(#E)" fill-rule="evenodd" opacity=".5"/><path d="m167.41 119.86s-3 4.5-7.45 4.5c0 0-22.76-15.27-28.94-19.08s-15.77-8.86-15.77-8.86 2-14 6.1-16.49c0 0 11.12 12.95 14.38 16.21 2.23 2.24 7.26 3.65 11.45 5l-.26-.07s-5.12-.53-8.39 1.31a29.65 29.65 0 0 0 17.76 17.76c3.43 1.27 7.13-.42 7.46-.57l-4.44 2.2h.57s4.93-1 6.45-2.53z" fill="url(#F)" fill-rule="evenodd" opacity=".5"/><path d="m181.8 127.36-3.79-2.72 1.68 2.25z" fill="url(#G)" fill-rule="evenodd" opacity=".91"/><path d="m173.74 126.04 5.05 2.51-.16.31z" fill="url(#H)" fill-rule="evenodd" opacity=".91"/><path d="m172.58 129.47 4.74 1.79-5.08-1.5z" fill="url(#I)" fill-rule="evenodd" opacity=".91"/><path d="m28.48 127.21h3.82l1.05-27.92h-2s-5.18 17.71-2.87 27.92z" fill="#771f20" fill-rule="evenodd"/><path d="m44.34 72.23 1.51 27.06-2.88.7-1.61-28.74z" fill="#771f20" fill-rule="evenodd"/><path d="m36.24 49.36 1.15.3s1.16 2.73-.31 7l-2.31-5.23z" fill="url(#J)"/><path d="m26.64 48.21s2.83-3.39 5.42-4.31l4.94-2.22.79.6-.79 6.6-.72.48.24 1.92-.27.29-.38.86-.36.18s1.92 4.67 2.28 5.92-3.38 7.53-3.38 7.53l1.1 2.4-4.51 2.59-1.79-3.43-3-14.85z" fill="url(#K)"/><path d="m29.06 53.26 3.91 1.58 2.76-1.58-.26-.65-4.68-2.66-1.8 1.69z" fill="url(#L)" fill-rule="evenodd" opacity=".91"/><path d="m29.43 68.08s-4.26-9.24-5.26-17.81c0 0 5.94-5 6.48-5s4.82 7.38 4.82 7.38a4.33 4.33 0 0 1 -1.87.58c-.9 0-2.81-3.24-2.81-3.24l-1.79 1.65.07 1.62s4.79 4 5.37 5.25-1.35 6.49-1.35 6.49z" fill="url(#M)"/><path d="m58.28 96.14a52.69 52.69 0 0 1 -6.08-3.6 84.24 84.24 0 0 1 -21.91-21.48 9.06 9.06 0 0 1 5.18-4.33l1.63 1.35 2.45-.46a15.64 15.64 0 0 0 4.63 4.76c3.31 2.3 15.89 4.38 15.89 4.38s4.39 13.24-1.79 19.38z" fill="url(#N)" fill-rule="evenodd"/><path d="m29.2 128.02 2.16-28.73h5.87l1.11 28.73z" fill="url(#O)" fill-rule="evenodd"/><path d="m37.22 99.29h11.49a171.06 171.06 0 0 1 2.52 18.58 68.94 68.94 0 0 1 0 10.15h-12.89z" fill="#771f20" fill-rule="evenodd"/><path d="m52.84 92.71-.64-.17a84.24 84.24 0 0 1 -21.91-21.48 9.06 9.06 0 0 1 5.18-4.33l1.63 1.35-1.62 4.49a60.06 60.06 0 0 1 4.07-4.95 23.67 23.67 0 0 0 -.7 9.48c.77 4.72 6.63 8.92 6.63 8.92z" fill="#8b689a" fill-rule="evenodd" opacity=".6"/><path d="m44.34 72.23-1.34-1.33-2.23-.74s-4.45-.46-5.2 1.56c-.39 1-2.19 28.27-2.19 28.27h2.73s1.59-26.53 1.83-27c.94-1.82 3.45-1.73 3.45-1.73z" fill="url(#P)" fill-rule="evenodd"/><path d="m44.47 74.48s1.7 8 8.37 12.66c0 0-5.35-3.39-7-5.52-1.37-1.79-1.37-7.14-1.37-7.14z" fill="url(#Q)" fill-rule="evenodd" opacity=".5"/><path d="m32.06 43.9s3.72 3.7 4.15 7.67c0 0-.1-3.36-3.66-7.89z" fill="url(#R)" fill-rule="evenodd" opacity=".91"/><path d="m34.14 43s2.1 3.61 2.1 6.4a12.79 12.79 0 0 0 -1.68-6.6z" fill="url(#S)" fill-rule="evenodd" opacity=".91"/><path d="m32.36 55.21s2.5 2.55 2.83 3.56-1 4.8-1 4.8 1-3.16.29-5.06a12.31 12.31 0 0 0 -2.12-3.3z" fill="url(#T)" fill-rule="evenodd" opacity=".5"/><path d="m29.82 127.22 4.32-8.26 3.63 8.26z" fill="url(#U)" fill-rule="evenodd"/><path d="m28.48 127.21h-1.37s-1.19-16.8 4.25-27.92v.7a69.2 69.2 0 0 0 -2.88 27.22z" fill="url(#V)" fill-rule="evenodd"/><path d="m86 61.21c-.43 1.25-2.57 3.52-4.64 5.51-2.13 2-4.19 3.79-4.19 3.79s-3.92 4.33-5 3.94-.09-6.84-.09-6.84a8.21 8.21 0 0 0 .61-2.36c0-.9-3.49-14.69-3.49-14.69s2.17-15.36 2.85-15.36a5.79 5.79 0 0 1 1.71.44l11 8.26s.83 5.89 1.23 10.87c.26 2.91.34 5.51.01 6.44z" fill="url(#W)"/><path d="m86 61.21c-.43 1.25-2.57 3.52-4.64 5.51l2.42-2.45-7.64-1.7-4.74-10.89 2-7 7.08 6.41 5.52 3.68c.25 2.91.33 5.51 0 6.44z" fill="url(#X)" fill-rule="evenodd" opacity=".91"/><path d="m72.73 65.26a4.73 4.73 0 0 0 3.27-3.56c.47-2.8-4.13-9.44-4.13-9.44v-.91s1.47-4.23 1.13-7.05l-.7-1.88-3.9 10.44s3.66 8.23 4.33 12.4z" fill="url(#Y)"/><g clip-path="url(#Z)"><path d="m72.05 34.19h17.33v28.38h-17.33z" fill="#3e1b40"/><path d="m83.06 32.59a16.88 16.88 0 0 1 9.67 3.21h-2.6v14h2.14a16.86 16.86 0 0 1 -9.86 2.57c-7.63-.3-13.67-4.92-13.49-10.37s6.51-9.66 14.14-9.41z" fill="#3e1b40"/><path d="m83 33.07a16.15 16.15 0 0 1 9.2 3h-2.07v13.33h1.68a16.13 16.13 0 0 1 -9.38 2.44c-7.26-.24-13-4.64-12.83-9.82s6.19-9.19 13.4-8.95z" fill="#3f1c40"/><ellipse cx="82.73" cy="42.45" fill="#401c40" rx="8.91" ry="12.47" transform="matrix(.03298074 -.99945599 .99945599 .03298074 37.58 123.75)"/><ellipse cx="82.73" cy="42.45" fill="#411d40" rx="8.43" ry="11.79" transform="matrix(.03298074 -.99945599 .99945599 .03298074 37.58 123.75)"/><ellipse cx="82.73" cy="42.45" fill="#421e3f" rx="7.94" ry="11.12" transform="matrix(.03298074 -.99945599 .99945599 .03298074 37.58 123.75)"/><ellipse cx="82.73" cy="42.45" fill="#431e3f" rx="7.46" ry="10.44" transform="matrix(.03 -1 1 .03 37.58 123.75)"/><ellipse cx="82.73" cy="42.45" fill="#441f3f" rx="6.98" ry="9.77" transform="matrix(.03298074 -.99945599 .99945599 .03298074 37.58 123.75)"/><path d="m83 36c5 .17 9 3.21 8.87 6.79s-4.28 6.36-9.3 6.19-9-3.2-8.87-6.79 4.23-6.39 9.3-6.19z" fill="#451f3f"/><path d="m82.93 36.44c4.65.16 8.33 3 8.22 6.29s-4 5.89-8.61 5.73-8.33-3-8.22-6.28 3.97-5.89 8.61-5.74z" fill="#46203f"/><ellipse cx="82.73" cy="42.45" fill="#47213f" rx="5.53" ry="7.74" transform="matrix(.03298074 -.99945599 .99945599 .03298074 37.58 123.75)"/><ellipse cx="82.73" cy="42.45" fill="#49213e" rx="5.05" ry="7.07" transform="matrix(.03298074 -.99945599 .99945599 .03298074 37.58 123.75)"/><path d="m82.88 37.89c3.53.12 6.32 2.25 6.24 4.77s-3 4.47-6.54 4.36-6.31-2.26-6.23-4.78 3.01-4.46 6.53-4.35z" fill="#4a223e"/><path d="m82.87 38.37c3.15.11 5.65 2 5.58 4.27s-2.7 4-5.85 3.89-5.6-2.01-5.6-4.26 2.71-4 5.87-3.9z" fill="#4b233e"/><path d="m82.85 38.86c2.78.09 5 1.77 4.92 3.76s-2.37 3.52-5.15 3.43-5-1.78-4.92-3.76 2.37-3.53 5.15-3.43z" fill="#4c233e"/><path d="m82.84 39.34c2.41.08 4.31 1.54 4.26 3.26s-2.06 3-4.47 3-4.31-1.6-4.26-3.29 2.06-3.05 4.47-2.97z" fill="#4d243e"/><path d="m82.82 39.82c2 .07 3.65 1.3 3.6 2.76s-1.74 2.57-3.77 2.51-3.65-1.3-3.6-2.76 1.74-2.58 3.77-2.51z" fill="#4e243e"/><path d="m82.81 40.3c1.66.06 3 1.06 2.94 2.25s-1.42 2.11-3.09 2.05-3-1.06-2.94-2.25 1.42-2.1 3.09-2.05z" fill="#4f253d"/><path d="m82.79 40.79c1.29 0 2.31.82 2.28 1.74s-1.1 1.63-2.39 1.59-2.31-.82-2.28-1.74 1.1-1.64 2.39-1.59z" fill="#50263d"/><path d="m82.77 41.27c.92 0 1.65.58 1.63 1.24s-.79 1.16-1.7 1.13-1.65-.59-1.63-1.24.79-1.16 1.7-1.13z" fill="#51263d"/><path d="m82.76 41.75c.54 0 1 .35 1 .74s-.46.69-1 .67-1-.35-1-.74.45-.69 1-.67z" fill="#52273d"/></g><g clip-path="url(#aa)"><path d="m71.4 36.01h5.76v26.55h-5.76z" fill="#563757"/><path d="m75.25 35.25h2.67v16.55h1.68a17.26 17.26 0 0 1 -4.95.54 15.41 15.41 0 0 1 -8.84-2.93h4.83v-12.77h-4.41a15.51 15.51 0 0 1 9-2.35z" fill="#563757"/><path d="m75.23 34.92a16.11 16.11 0 0 1 4.55.81h-1.86v13.8h5.15a15.32 15.32 0 0 1 -16.63-.53h4.2v-11.89h-3.8a14.43 14.43 0 0 1 8.39-2.19z" fill="#563856"/><path d="m75.21 35.55a13.34 13.34 0 0 1 7.61 2.53h-4.9v11h4.54a14.17 14.17 0 0 1 -15.38-.5h3.56v-11h-3.2a13.35 13.35 0 0 1 7.77-2.03z" fill="#573955"/><path d="m75.19 36.18a12.27 12.27 0 0 1 7 2.32h-4.27v10.1h3.93a13 13 0 0 1 -14.13-.47h2.92v-10.13h-2.59a12.29 12.29 0 0 1 7.14-1.82z" fill="#573a54"/><path d="m75.16 36.81a11.23 11.23 0 0 1 6.38 2.12h-3.62v9.2h3.32a11.14 11.14 0 0 1 -6.5 1.69c-5-.16-9-3.21-8.9-6.8s4.3-6.37 9.32-6.21z" fill="#583b54"/><path d="m75.14 37.44a10 10 0 0 1 5.76 1.92h-3v4.23h5.25c-.1 3.24-3.87 5.75-8.41 5.6s-8.14-2.9-8-6.14 3.86-5.76 8.4-5.61z" fill="#583c53"/><ellipse cx="74.95" cy="43.32" fill="#583d52" rx="5.25" ry="7.35" transform="matrix(.03 -1 1 .03 29.19 116.8)"/><ellipse cx="74.95" cy="43.32" fill="#593f51" rx="4.62" ry="6.46" transform="matrix(.03298074 -.99945599 .99945599 .03298074 29.19 116.8)"/><path d="m75.08 39.33c3.08.11 5.52 2 5.45 4.17s-2.63 3.9-5.71 3.8-5.52-2-5.45-4.17 2.63-3.9 5.71-3.8z" fill="#594050"/><path d="m75.06 40c2.59.09 4.65 1.66 4.59 3.51s-2.22 3.29-4.81 3.2-4.65-1.71-4.58-3.55 2.21-3.28 4.8-3.16z" fill="#59414f"/><path d="m75 40.59c2.11.07 3.77 1.35 3.72 2.85s-1.72 2.67-3.86 2.56-3.77-1.34-3.72-2.85 1.79-2.63 3.86-2.56z" fill="#5a424f"/><path d="m75 41.22c1.62.06 2.9 1 2.86 2.19s-1.38 2.05-3 2-2.9-1-2.86-2.19 1.4-2.05 3-2z" fill="#5a434e"/><path d="m75 41.85c1.13 0 2 .73 2 1.54s-1 1.43-2.1 1.39-2-.72-2-1.53.97-1.43 2.1-1.4z" fill="#5b444d"/><path d="m75 42.48c.64 0 1.15.42 1.14.88s-.55.81-1.2.79-1.15-.41-1.14-.87.53-.82 1.2-.8z" fill="#5b454c"/></g><g clip-path="url(#ab)"><path d="m72.62 35.29h15.7v25.49h-15.7z" fill="#6f5570"/><path d="m82.6 33.61a15.41 15.41 0 0 1 8.76 2.91h-2.28v12.65h1.92a15.41 15.41 0 0 1 -9 2.33c-6.91-.23-12.39-4.42-12.22-9.36s5.91-8.76 12.82-8.53z" fill="#6f5570"/><path d="m82.58 34.13c6.52.21 11.67 4.16 11.52 8.81s-5.56 8.26-12.1 8.06-11.68-4.16-11.52-8.81 5.59-8.28 12.1-8.06z" fill="#6f556f"/><ellipse cx="82.3" cy="42.55" fill="#6f556e" rx="7.92" ry="11.08" transform="matrix(.03 -1 1 .03 37.07 123.41)"/><ellipse cx="82.3" cy="42.55" fill="#6f566d" rx="7.4" ry="10.36" transform="matrix(.03298074 -.99945599 .99945599 .03298074 37.06 123.41)"/><path d="m82.53 35.67c5.32.17 9.54 3.4 9.41 7.2s-4.54 6.74-9.86 6.57-9.54-3.4-9.41-7.2 4.54-6.75 9.86-6.57z" fill="#6f566c"/><ellipse cx="82.3" cy="42.55" fill="#6e566b" rx="6.37" ry="8.92" transform="matrix(.03298074 -.99945599 .99945599 .03298074 37.07 123.41)"/><path d="m82.5 36.7c4.52.15 8.11 2.89 8 6.12s-3.86 5.74-8.39 5.59-8.11-2.89-8-6.13 3.89-5.73 8.39-5.58z" fill="#6e566a"/><path d="m82.48 37.21c4.13.14 7.4 2.64 7.3 5.59s-3.52 5.2-7.65 5.1-7.4-2.64-7.3-5.59 3.52-5.23 7.65-5.1z" fill="#6e5769"/><ellipse cx="82.3" cy="42.55" fill="#6e5768" rx="4.83" ry="6.76" transform="matrix(.03 -1 1 .03 37.07 123.41)"/><path d="m82.45 38.24c3.33.11 6 2.13 5.89 4.51s-2.84 4.25-6.18 4.12-6-2.13-5.9-4.52 2.85-4.22 6.19-4.11z" fill="#6e5766"/><path d="m82.43 38.75c2.94.1 5.26 1.88 5.19 4s-2.5 3.72-5.44 3.62-5.26-1.87-5.2-4 2.51-3.71 5.45-3.62z" fill="#6e5765"/><path d="m82.41 39.27c2.54.08 4.55 1.62 4.49 3.44s-2.16 3.21-4.7 3.13-4.56-1.62-4.5-3.44 2.17-3.22 4.71-3.13z" fill="#6e5864"/><path d="m82.4 39.78c2.14.07 3.83 1.37 3.78 2.9s-1.82 2.72-4 2.65-3.84-1.37-3.79-2.9 1.86-2.72 4.01-2.65z" fill="#6e5863"/><path d="m82.38 40.3c1.74.05 3.13 1.11 3.08 2.36s-1.46 2.21-3.23 2.15-3.13-1.11-3.09-2.36 1.49-2.21 3.24-2.15z" fill="#6d5862"/><path d="m82.36 40.81c1.35 0 2.42.86 2.38 1.82s-1.15 1.71-2.49 1.67-2.42-.86-2.39-1.83 1.14-1.7 2.5-1.66z" fill="#6d5861"/><path d="m82.34 41.32c1 0 1.71.61 1.68 1.29s-.81 1.2-1.76 1.17-1.7-.6-1.68-1.28.81-1.21 1.76-1.18z" fill="#6d5960"/><path d="m82.33 41.84c.55 0 1 .35 1 .75s-.47.7-1 .68-1-.35-1-.75.44-.7 1-.68z" fill="#6d595f"/></g><path d="m72.73 44.84.83-.94 2.04 10.56-.83.96z" fill="#d1acb3" fill-rule="evenodd"/><path d="m74.97 51.18 9.7-14.18 4.7 22.82-12.21 2.75z" fill="#523e7a" fill-rule="evenodd" opacity=".5"/><path d="m155.71 79.93a24.69 24.69 0 0 1 -5.33 13 44 44 0 0 1 -8.53 4.44c-2.65 1.03-4.65 1.63-4.65 1.63l-2.73 3-2.41 2.68.56-3 1.78-9.39c.1-1.61.23-3.13.37-4.51.44-4.24 1-7.08 1-7.08 1.72-.79 6.19-.07 6.19-.07a27.14 27.14 0 0 0 13.75-.7z" fill="url(#ac)"/><path d="m114.43 171.09a33.8 33.8 0 0 0 -4.47-16c-3.29 7.37-4.7 18.47-4.87 19.83a.57.57 0 0 1 0 .13s-12.63 4-23.49 2-23.6-14.51-23.6-14.51a172.14 172.14 0 0 1 0-32c2.5-4.76 6.8-9.56 10.42-13.12 3.45-3.42 6.28-5.7 6.28-5.7l22.78-1.31-.23 2.18s12.24 20.73 14.12 27.36c3.06 10.88 3.06 31.14 3.06 31.14z" fill="url(#ad)" fill-rule="evenodd"/><path d="m104.08 167.1s-4.25 6.92-8 8.17a32.68 32.68 0 0 0 5.11-1.16s2.89-5.31 2.89-7.01z" fill="#523e7a" fill-rule="evenodd" opacity=".5"/><path d="m111.36 140c-1.06-3.74-5.43-12-9-18.45-2.77-5-5.09-8.91-5.09-8.91l.23-2.18-22.78 1.31s-2.83 2.28-6.28 5.7c.4.14 8.63 4.85 12.3 4.85s13.94-.94 13.94-.94-6 15.82-16.92 20.65c0 0-7.87-5.94-10.46-10.67.28.63 5.84 11.4 11.11 15.19 0 0 5-3.91 13-17.48a29.43 29.43 0 0 1 5.79 5.32l-16.49 39.81 6.47-3 11-35.6a45.29 45.29 0 0 1 2.86 3.93s5.65 17.66 4 35.38c.17-1.36 1.58-12.46 4.87-19.83a33.8 33.8 0 0 1 4.47 16s.05-20.25-3.02-31.08z" fill="#523e7a" fill-rule="evenodd" opacity=".5"/><path d="m67 126.18s4.78 6.89 11.36 9.39l3.64-.57-3.6 2.5s-6.28-3.05-11.4-11.32z" fill="#523e7a" fill-rule="evenodd" opacity=".5"/><path d="m74.97 172.78 9.28-13.46-7.09 14.88z" fill="#523e7a" fill-rule="evenodd" opacity=".5"/><path d="m28.69 131.81a26 26 0 0 1 7.93-1.37l.41-1.1 8.45-.29s-1.87 17.56-5.26 23.71h-12.86s2.15-9.07 2-14.19z" fill="url(#ae)"/><path d="m14.6 137.18a104.42 104.42 0 0 0 -7.9 29.28l1 .71 42.1 7s4.11-15.82 8.06-25.17l-9.54-1.46-.3-4.43a300.65 300.65 0 0 0 -33.42-5.93z" fill="url(#af)" fill-rule="evenodd"/><path d="m48.15 144.64 14.48 3-11.29 26.63-1.51-.07s4.57-17.75 8.06-25.2l-9.54-1.46z" fill="#cf6b5e" fill-rule="evenodd"/><path d="m48.23 145.87 10.56 2.34 1.6.74-9.06 23.83h-.53s4.15-16.23 7.74-23.38l-10.19-1.8z" fill="url(#ag)" fill-rule="evenodd"/><path d="m77.15 92.9s-11 10.77-18.18 19.7-12.9 16.12-12.9 16.12c-5.24 3.1-9 .62-9 .62l.1-2.43a2.85 2.85 0 0 1 -.7-1c-.08-.43 1.76-1.7 1.76-1.7s3.27-10.12 5.77-14.91a7.94 7.94 0 0 1 1.51-2.3c.31-.27.66-.54 1-.82 2.37-1.75 5.62-3.47 7.91-4.82 2-1.17 5.15-4.88 6.57-6.63l.74-.93 10.92-14.1z" fill="url(#ah)" fill-rule="evenodd"/><path d="m77.15 92.9s-11 10.77-18.18 19.7-12.9 16.12-12.9 16.12c-5.24 3.1-9 .62-9 .62l.1-2.43a2.85 2.85 0 0 1 -.7-1c2.7 1.9 8.33.37 8.33.37l8.2-7.9a24 24 0 0 1 -9.73 5.62c7.94-3.1 16.37-18.08 16.37-18.08s-1-3.83-3-4.07-9.64 4.15-10.08 4.36c2.37-1.75 5.62-3.47 7.91-4.82 2-1.17 5.15-4.88 6.57-6.63l11.61-14z" fill="url(#ai)" fill-rule="evenodd" opacity=".5"/><path d="m44 109.3c-.23.57-3.89 9.67-3.68 15l-2.13-.14s3.31-10.07 5.81-14.86z" fill="url(#aj)" fill-rule="evenodd" opacity=".5"/><path d="m56.89 99.4a22.09 22.09 0 0 1 5.91 8.67l14.35-15.17-3.1-12.51z" fill="#8b689a" fill-rule="evenodd" opacity=".6"/><path d="m22.6 146.53 4.76-.66 9.86-5.09 6.25 1.3-10.47-4.59s-.82 1.14-3.68 1.49l-.37.3-.38-.22-3.43 1z" fill="url(#ak)" fill-rule="evenodd" opacity=".91"/><path d="m28.69 131.81a7.22 7.22 0 0 1 4.31 5.68s-1.06 1.33-4.43 1.57l-.84 1-.43 3.15s-.57 2.58-4.74 3.3l-1.37-.51 4-5.9s1.58-6.61 3.5-8.29z" fill="url(#al)"/><path d="m36.62 130.44 8.38 2.56.49-3.95s-4.63 1.61-8.45.29z" fill="url(#am)" opacity=".91"/><path d="m6.7 166.46 41.53 6.32s6.55-20.63 9.66-23.75c0 0-5.74 15.54-8.06 25.17l-42.1-7z" fill="url(#an)" fill-rule="evenodd" opacity=".8"/><path d="m88.25 65.75 27.47 4.77 3.28-30.76-11.7-17.71-8.32-4-11.17 1.95a44.94 44.94 0 0 0 -4.68 22.46c.92 12.2 3.21 21.38 5.12 23.29z" fill="url(#ao)"/><path d="m109.49 51.11s-1.68 8.23-1 13.8c0 0-9.89 9.12-14 9.12s-2-7.87-2-7.87 4.26-1.43 6-3.22 2.21-6.84 2.21-6.84z" fill="url(#ap)"/><path d="m141.85 97.34c-2.65 1.06-4.65 1.66-4.65 1.66l-2.73 3-1.85-.28 1.78-9.39c.1-1.61.23-3.13.37-4.51l5-3.11z" fill="url(#aq)" fill-rule="evenodd" opacity=".91"/><path d="m110.3 49.08-.3 1.12c-1 3-8.86 6.78-13.44 8.26l-.52.16a10.64 10.64 0 0 1 -1.49.29 9.09 9.09 0 0 1 -2.62.1c-.58-.2-1.75-2.43-3.14-3.81s-4.5-5.11-4.5-7.38a10.28 10.28 0 0 1 .9-3.52 10.8 10.8 0 0 0 .94-3c.13-3.79-1.42-8.71-1.42-9.86a9.47 9.47 0 0 1 .71-2.44l.25-.59s0 0 0 0c1.54-3.43 4.84-8.64 10.13-10.19a17.86 17.86 0 0 1 7.87.38l6.33 8.56s1.43 10.76.46 14.65a16.73 16.73 0 0 0 -.16 7.27z" fill="url(#ar)"/><path d="m110.3 49.08-.3 1.12c-1 3-8.86 6.78-13.44 8.26l-2 .45s9.53-3.72 11.44-10.21a12.9 12.9 0 0 0 -.9-9.94c-3.95 2.41-9.68 3.24-9.68 3.24-.63-2.81 0-13.27 0-13.27l6.7 1.53a33.93 33.93 0 0 0 -2-6.58c-4.17-3-7.79-2.16-7.79-2.16-3.39 1.4-5.83 5.4-6.65 6.88 1.54-3.43 4.84-8.64 10.13-10.19a17.86 17.86 0 0 1 7.87.38l6.32 8.57s1.45 11.37.49 15.26a13.76 13.76 0 0 0 -.19 6.66z" fill="url(#as)" fill-rule="evenodd" opacity=".8"/><path d="m123.68 51.1v.72l-.13 2.54v.47c-.38 7.6-.87 15.55-1.12 19.58 0 .43 0 .8-.07 1.13l-.1 1.55-8.6-8.74v-29.66s-8.8-9.88-10.27-12.25l-4-6.41c-.27-.42-.41-.66-.41-.66-.29-.46-.45-.73-.45-.73s-5.53.61-6.53 1.36c0 0-6.08 4.65-7.37 11.37s-1.75 21.88 3.57 34.34h-1.68s-5.18-18.14-3.6-30.82 5.57-17.9 6.5-18.84 8.45 1 12 1.45 10.22 1 13.3 2.54 8.5 13.25 9.16 16.7c.3 1.34.12 7.35-.2 14.36z" fill="url(#at)"/><path d="m107.29 31.42s2.2 5.89 2.2 10.5l.47.5s2-2 3.65-3.73z" fill="url(#au)"/><path d="m86.38 65.26-.55 5.85-.13 1.4-.26 2.75-10.23 11.95-2.21 1.5c-3.27 2.23-9.26 6.26-11.21 7.14a43.44 43.44 0 0 1 -7.44 2.15l18.06-23a42.83 42.83 0 0 0 6-3.63c4.04-2.88 7.97-6.11 7.97-6.11z" fill="url(#av)" fill-rule="evenodd"/><path d="m77.15 70.52-2.15 2.91c-2.82 3.86-7.57 10.49-8.91 13.42 0 0-3.82 6.76-8.71 9.93 0 0-4.71 2.11-7 2.11-.86 0-3-8.43.49-15.15a14 14 0 0 1 1.43-2.22s16.36-9.52 19.82-13.9c0 0-.07 3.91.84 4.83s4.04-1.77 4.19-1.93z" fill="url(#aw)" fill-rule="evenodd"/><path d="m169.73 71.34h2.11s-9.51 15.07-13.15 27.55h-18.63s6.43-15.84 15.65-26.78z" fill="#4d1a4f" fill-rule="evenodd"/><path d="m151.55 70s-11.55 12.63-15.82 21.63l21.71.71s8-17.06 12.29-22.82z" fill="url(#ax)" fill-rule="evenodd"/><path d="m138.24 91.02-1.83 1.32 4.41 5.4 16.62-.96 12.29-24.29v-2.97l-13.44 22.82z" fill="url(#ay)" fill-rule="evenodd"/><path d="m169.73 69.52v3l-12.29 24.26-16.62 1-4.41-5.4 20.16.84s6.87-15.69 13.16-23.7z" fill="url(#az)" fill-rule="evenodd"/><path d="m156.57 93.18.87 3.6-16.62.96-4.41-5.4z" fill="#592963" fill-rule="evenodd" opacity=".3"/><path d="m151.32 71.67h14.91v.19h-14.91z" fill="#726295" transform="matrix(.99973059 -.02321079 .02321079 .99973059 -1.62 3.7)"/><path d="m148.87 74.63v-.19l14.9-.5.01.19z" fill="#726295"/><path d="m139.8 88.19h14.33v.19h-14.33z" fill="#726295"/><path d="m138.53 86.69 9.74-6.76 1.86-3.38-6.13 2.45s-4.35 5.87-5.47 7.69z" fill="#8b689a" fill-rule="evenodd" opacity=".6"/><path d="m135.77 80.8a8.66 8.66 0 0 1 2.77-4.5 29.41 29.41 0 0 1 4.14.39l7.45-3.06a4.68 4.68 0 0 1 0 2.92 5.77 5.77 0 0 1 -3.13 2.23 13.27 13.27 0 0 0 -5.43 1l.43.9s-6.85 2.85-6.23.12z" fill="url(#aA)"/><path d="m84.76 31 2 1 2.24 3.39s-1.47-4.75-3.65-6.47a3.24 3.24 0 0 0 -.59 2.08z" fill="url(#aB)"/><path d="m95.42 28.68 1.42 2.83v-.59a39.91 39.91 0 0 1 5.51.59 14.36 14.36 0 0 1 2.59 1.34 17.87 17.87 0 0 0 -2.81-2.64c-.82-.38-6.71-1.53-6.71-1.53z" fill="url(#aC)"/><path d="m104.08 37.65-.19 1a9.76 9.76 0 0 1 -7.36 1.89s-.07-.31-.13-.8c-.15-1.26-.26-3.72.84-5.44a7.59 7.59 0 0 1 1.35-.06 6.5 6.5 0 0 1 2.92.74 6.07 6.07 0 0 1 2.57 2.67z" fill="url(#aD)"/><path d="m89.83 40.19a4.23 4.23 0 0 1 -1.92 2.49 3.18 3.18 0 0 1 -1.69 0v-.48c-.25-2.83-.24-5.82-.24-5.82a3.85 3.85 0 0 1 1 0 2.64 2.64 0 0 1 1.54.7 8 8 0 0 1 1.31 3.11z" fill="url(#aE)"/><path d="m99.8 37c0 1.71-1.08 3.1-2.41 3.1a1.92 1.92 0 0 1 -1-.28c-.15-1.26-.26-3.72.84-5.44a7.59 7.59 0 0 1 1.35-.06 3.31 3.31 0 0 1 1.22 2.68z" fill="url(#aF)"/><path d="m99 37a2.09 2.09 0 0 1 -1.79 2.29 1.44 1.44 0 0 1 -.73-.21 6.55 6.55 0 0 1 .62-4 5.46 5.46 0 0 1 1 0 2.45 2.45 0 0 1 .9 1.92z" fill="#522f30"/><path d="m87.71 39.11c0 1.71-.66 3.1-1.49 3.1-.25-2.83-.55-5.82-.55-5.82a6.77 6.77 0 0 1 1.32 0 4.32 4.32 0 0 1 .72 2.72z" fill="url(#aG)"/><path d="m87.18 39c0 1.16-.45 2.11-1 2.11-.17-1.93-.38-4-.38-4a4.82 4.82 0 0 1 .91 0 3 3 0 0 1 .47 1.89z" fill="#522f30"/><path d="m96.44 40.05v.65l-.08.56a13.65 13.65 0 0 0 7.53-2.58s-2.49 1.89-7.36 1.89z" fill="#d2726c" fill-rule="evenodd"/><path d="m86.18 42.2-.07 1a3.92 3.92 0 0 0 3.58-2.49s-.65 1.72-3.3 1.92z" fill="#d2726c" fill-rule="evenodd"/><path d="m96.56 36-1.56-1.18h1.5l.44-1.3s5.16-.15 7.16 4.13c0 0-2-3.08-7-3.08a6.58 6.58 0 0 0 -.54 1.43z" fill="#522f30"/><path d="m86 38-1.43-1h.71l.15-1.61a4.51 4.51 0 0 1 2.93 1.07c1.19 1 1.51 3.59 1.51 3.59a5 5 0 0 0 -1.74-3 3.73 3.73 0 0 0 -2.15-.67z" fill="#522f30"/><path d="m100.42 37.48a.62.62 0 1 1 -.62-.61.61.61 0 0 1 .62.61z" fill="#f5f5f5"/><path d="m88.43 39.3a.53.53 0 0 1 -.53.53.54.54 0 0 1 0-1.07.54.54 0 0 1 .53.54z" fill="#f5f5f5"/><path d="m86.67 45.71a13 13 0 0 0 3.69 0c2.06-.29 2-.67 2-.67l2.18.57-1.2.23a6.78 6.78 0 0 1 -2.72 1.89 7.28 7.28 0 0 1 -3.95-2.02z" fill="#d2726c" fill-rule="evenodd"/><path d="m92.33 46.76s.74-1.31 1-1.31a4.25 4.25 0 0 1 .87.23 5.65 5.65 0 0 0 -1.87 1.08z" fill="#a64a4c"/><path d="m86.67 45.71s2.85-4.2 3.66-5 .45 4.75.45 4.75-2.37 1.07-4.11.25z" fill="url(#aH)"/><path d="m98.49 18.64 3.53-.32s9.64 9.59 13.78 19.77l-2.19.6s-11.28-11.69-15.12-20.05z" fill="url(#aI)"/><path d="m113.63 48.57-.02 19.35 4.67 4.66-3.03-25.39z" fill="url(#aJ)"/><path d="m89.9 51.61a5.65 5.65 0 0 0 0 2.48 13.82 13.82 0 0 0 4.3-1.23c1.74-1.08 3.53-4.58 3.53-4.58a20.9 20.9 0 0 1 -3.28 2.27c-.76.24-4.55 1.06-4.55 1.06z" fill="#d2726c" fill-rule="evenodd"/><path d="m89.78 52.18a8.07 8.07 0 0 1 -.78-1.81 17.49 17.49 0 0 1 3-.66c1.43-.17 3.08-.09 3.62-.21a11.47 11.47 0 0 0 2.16-1.22 10.52 10.52 0 0 1 -3.28 2.27c-1 .39-4.55 1.06-4.55 1.06z" fill="#b14d63" fill-rule="evenodd"/><path d="m96.2 48.12s2.36.12 3 .75a3.28 3.28 0 0 0 -1.94-1.24z" fill="url(#aK)" fill-rule="evenodd" opacity=".5"/><path d="m89 35.39a18.33 18.33 0 0 1 1.3 5.3 6.61 6.61 0 0 1 -5.18 3.61 10.8 10.8 0 0 0 .94-3c.13-3.79-1.42-8.71-1.42-9.86a9.47 9.47 0 0 1 .78-2.44 38.52 38.52 0 0 1 3.58 6.39z" fill="url(#aL)" fill-rule="evenodd" opacity=".8"/><path d="m100.61 56.89-.61 2.89a12.53 12.53 0 0 0 9.34-8.12l.11-.55a23.21 23.21 0 0 1 -8.84 5.78z" fill="url(#aM)" fill-rule="evenodd" opacity=".91"/><path d="m98.49 18.64s-7.59-.29-9.45.29-4.1 11.32-4.1 11.32 4.32-8.28 6.55-9.76 7-1.85 7-1.85z" fill="url(#aN)" fill-rule="evenodd"/><path d="m123.68 51.1v.72l-.13 2.54v.47l-3.7-10.93.08 4.38 2.49 25.35v.79l-.07 1.13-.1 1.55-4.27-27.44-1.76.57 3.5 23.77-1.44-1.45-4.67-21v-12.86s-8.8-9.88-10.27-12.25l-4-6.41a64.33 64.33 0 0 0 7.93 10.22 60.43 60.43 0 0 0 7.73 6.67v-1.28l-9.14-13.95 10 13.33 2.41 2.46-.55-4-1.19-4.48c.75 2.73 4.27 15.66 7.15 22.1z" fill="url(#aO)" fill-rule="evenodd" opacity=".5"/><path d="m109.49 48.25s1.36 1.59 2.08 1.59 5.15-3.73 5.55-4.61a9.85 9.85 0 0 0 0-6.75 9.45 9.45 0 0 0 -2.05-.52 9.78 9.78 0 0 0 -4.65 3.85 31.08 31.08 0 0 0 -.93 6.44z" fill="url(#aP)"/><path d="m111.48 45s1.22-4.25 3.81-5.46c0 0 1.64 1.62 1.64 2.63a17 17 0 0 1 -.68 3.24l-3 2.18a16.07 16.07 0 0 0 2.62-2.59 8.31 8.31 0 0 0 .53-2.81l-1-.82a3.5 3.5 0 0 1 0 2.19c-.36 1.27-2.67 3.16-2.67 3.16h-.73s1.09-2.12.76-2.46-1.28.74-1.28.74z" fill="url(#aQ)" fill-rule="evenodd" opacity=".8"/><path d="m102.84 18.32 3.72 4.11v-1.06l8 .63 2.36.2a9.47 9.47 0 0 0 -2.41-2.2c-1.42-.91-11.67-1.68-11.67-1.68z" fill="url(#aR)"/><path d="m98.49 18.64s-8.44-.28-9.68.41-5 10.62-5 10.62 2.55-12.2 6-14.1a40.07 40.07 0 0 1 11.35 2.52z" fill="url(#aS)"/><path d="m137 99.3c-.34.48-1.1 1.56-2.15 3-4.45 6.06-14.08 18.38-18.78 18.38-1 0-5-5.18-6.1-12s0-16.22 0-16.22l-1.2-2.21s-.57.68-1.51 1.92a81.18 81.18 0 0 0 -9.72 16.65l.72.8-3 3.24s-6.2 4.61-13.1 3.88-7.66-5.74-7.66-5.74-.58-3.24-.22-3.6 2.84-.25 2.84-.25c-.12-.31-3.54-10.15-4.12-18.44a26.09 26.09 0 0 1 .1-5l6.47-5.53 1.3-1.12.38-.6 3-4.68 2.13-6.56a60.5 60.5 0 0 0 8.83-1.13 11.05 11.05 0 0 0 3.21-1.09l-3.42 2.34a11.75 11.75 0 0 0 -1.49 7.2c.6-.17 10.28-3 15-7.63l-.16-2.29 1.57 1.58c1.5 1.52 3.91 4 6.31 6.37 1.62 1.61 2.73 2.69 3.49 3.46a6.34 6.34 0 0 1 1.75 2.35c.43 1.21-.91 10-1.25 13.16s.62 9.94.62 9.94 1-.58 1.59 0c0 0 7.14-3.24 10.78-6a13.91 13.91 0 0 0 1.22-1s-.94 7.42 0 8.35c.71.65 2.04-.83 2.57-1.53z" fill="url(#aT)" fill-rule="evenodd"/><path d="m110.78 65.63s-8.49 8.12-17.4 9.26l.12-2.35c.56-.19 9.52-3.31 14.8-8.59v-2.4l1.57 2.6z" fill="url(#aU)" fill-rule="evenodd"/><path d="m99 62.33a3.44 3.44 0 0 1 -.55.66 8.66 8.66 0 0 1 -2.19 1.51c-2.49 3.26-2.7 8-2.7 8l-3.17 1.94a13.79 13.79 0 0 1 4.88-10.35z" fill="url(#aV)" fill-rule="evenodd"/><path d="m72.12 67.62-1.76 1.78s1.28 4.49 1.85 5.06 3.19-1.59 3.19-1.59l1.76-2.35s-2.37 1.64-3.76 1.64c0 0-1.28-1.16-1.28-4.54z" fill="url(#aW)" fill-rule="evenodd"/><path d="m72.12 67.62s.1 3.79 2 4.11c1.13.19 3-1.21 3-1.21s-2.09 1.64-3.76 1.64c.04 0-1.15 0-1.24-4.54z" fill="#a64a4c"/><g fill-rule="evenodd"><path d="m119.72 74-8.94.86-15.78 5.07-10.47 2.59c5.47-1.72 12.62-6.38 12.62-6.38l-11.71-.88-4.54 1.84 4.72-4.52.08-.07 3.68-3-3.55 1.59-1.58.71-3 4.68-1.65 1.73-1.22-6.88c4.06-2.85 8-6.08 8-6.08a60.5 60.5 0 0 0 8.83-1.13l3.79-1.8a3.44 3.44 0 0 1 -.55.66 8.66 8.66 0 0 1 -2.19 1.51c-2.49 3.26-2.7 8-2.7 8 .56-.19 9.52-3.31 14.8-8.59v-2.4l1.57 2.6c1.5 1.52 3.91 4 6.31 6.37 1.62 1.61 2.73 2.69 3.49 3.46z" fill="#8b689a" opacity=".6"/><path d="m97.53 108.8a29.41 29.41 0 0 1 -5.61 3.68 20.73 20.73 0 0 0 6.33-2.88l-3 3.24s-6.2 4.61-13.1 3.88-7.65-5.72-7.65-5.72-.58-3.24-.22-3.6c0 0 2.66 4.22 5.16 5.61s7.25 1.16 7.25 1.16a55.8 55.8 0 0 1 -6.2-2.16c-1-.63-3.37-4.86-3.37-4.86-.14-.4-5.12-14.69-4-23.43l7.58 13.53-3-8.34 4.54 8.42 14.31-7.79-2.83 10 4.48-9.11v3.09l9-6.39 1.51 3.09a81.52 81.52 0 0 0 -10.21 16.38c-.32.72-.65 1.46-.97 2.2z" fill="url(#aX)" opacity=".5"/><path d="m108.76 90.23a81.52 81.52 0 0 0 -10.26 16.37l2.5-8.6 6.24-10.83z" fill="url(#aY)" opacity=".5"/><path d="m73.13 83.75 4.6 8.25-2.3 9.71s-3.01-9.23-2.3-17.96z" fill="url(#aZ)" opacity=".5"/><path d="m86.69 114.21 3.07-2.74 8.47-21v3.09l9-6.39 1.51 3.09-5.74 7.48-5.47 11.06-5.61 3.68a23.67 23.67 0 0 0 6.33-2.88l-3 3.24s-6.24 4.63-13.1 3.88l2.07-2.55z" fill="url(#a0)" opacity=".5"/><path d="m137 99.3c-.34.48-1.1 1.56-2.15 3-.75.14-1.43 0-1.66-.77-.59-2.06 0-8.11 0-8.11a13.91 13.91 0 0 0 1.22-1s-.94 7.42 0 8.35c.73.71 2.06-.77 2.59-1.47z" fill="url(#a1)"/><path d="m137 99.3c-.34.48-1.1 1.56-2.15 3-4.45 6.06-14.08 18.38-18.78 18.38-1 0-5-5.18-6.1-12s0-16.22 0-16.22l-1.2-2.21s-.57.68-1.51 1.92v-5l3.51 5.2s2.47 8.42 6.5 11c0 0-5.13-10-5.74-17.29.21.83 3.57 14.07 7.47 16.13a10.6 10.6 0 0 1 1.82-2.72 1.19 1.19 0 0 1 1.57 0c-.31.27-5.35 4.83-6.43 11l7.14-1.85a35.33 35.33 0 0 0 10.09-15.17l1.22-1s-.94 7.42 0 8.35c.73.66 2.06-.82 2.59-1.52z" fill="url(#a2)" opacity=".5"/><path d="m75 73.43c-2.82 3.86-7.57 10.49-8.91 13.42 0 0-3.82 6.76-8.71 9.93 0 0-4.71 2.11-7 2.11-.86 0-3-8.43.49-15.15-1.77 6.46.78 10.31.78 10.31 7-.92 16.43-12.08 16.72-12.43l-3.61 2.13c4.24-2.81 9.6-10.12 9.6-10.12z" fill="url(#a3)" opacity=".5"/><path d="m122.38 99.44s-.43-.57-1.57 0-4.12 8.32-4.12 8.32 2.68-5.91 5.69-8.32z" fill="url(#a4)" opacity=".5"/><path d="m135.12 117a.15.15 0 0 1 0-.06.13.13 0 0 0 0 .06z" fill="url(#a5)" opacity=".5"/><path d="m181.18 108.06 1.95-2.31 1.45.71-1.4 1.99z" fill="#fff"/><path d="m71.48 98.89-8.44 10.41-12.64 15.01-3.78 3.71 8.62-11.73z" fill="#9addff"/><path d="m-11.41 115.7s6.14 3.11 11.45 1.14l.24-3.27a50.43 50.43 0 0 1 -10.14-3z" fill="url(#a6)"/><path d="m53.54 20.75s-3.71 5.09-8.66 6.64l4 8.87s9.61-1.56 12-6.07z" fill="url(#a7)"/><path d="m144.57 187.57s2.54 5.57 0 10.37l4.1 1.08s3.82-6.27 2.67-11.45z" fill="url(#a8)"/><path d="m4.55 183.69s10.14 13.45 25.59 19.21l13.64-5.18s-17.19 0-27.55-12z" fill="url(#a9)"/></g></g></svg>