<svg viewBox="0 0 188.71 188.71" xmlns="http://www.w3.org/2000/svg" xmlns:xlink="http://www.w3.org/1999/xlink"><clipPath id="a"><circle cx="94.35" cy="94.35" r="94.35"/></clipPath><clipPath id="b"><circle cx="94.35" cy="-119.39" r="94.35"/></clipPath><linearGradient id="c" gradientUnits="userSpaceOnUse" x1="55.01" x2="78.31" y1="52.57" y2="-79.58"><stop offset="0" stop-color="#ff957c"/><stop offset=".98" stop-color="#d17d67"/></linearGradient><linearGradient id="d" gradientUnits="userSpaceOnUse" x1="90.34" x2="118.1" y1="71.99" y2="-85.46"><stop offset="0" stop-color="#ff957c"/><stop offset=".98" stop-color="#ffae78"/></linearGradient><radialGradient id="e" cx="66.09" cy="-1911.03" gradientTransform="matrix(1 0 0 2.38 0 4523.39)" gradientUnits="userSpaceOnUse" r="27.28"><stop offset="0" stop-color="#ffeadb"/><stop offset=".96" stop-color="#542a58"/></radialGradient><radialGradient id="f" cx="106.17" cy="-2128.65" gradientTransform="matrix(1 0 0 2.84 0 6016.08)" gradientUnits="userSpaceOnUse" r="24.91"><stop offset="0" stop-color="#ffeadb"/><stop offset=".95" stop-color="#542a58"/></radialGradient><clipPath id="g"><path clip-rule="evenodd" d="m74.3 29.25a24.46 24.46 0 0 1 6 11l-.87 1.37-3.09 16.7h-3.14l-.6-13.44-3.79 2.79-6.81 11.56-19.3 1.22v-1.45l15.59-9.34-.32 1.51 2.27-.63a89.09 89.09 0 0 1 11.76-15.05z"/></clipPath><clipPath id="h"><path clip-rule="evenodd" d="m108.78 62.94-4.53 10.28.87 1.78h17.43l.53-1.59a165.6 165.6 0 0 0 0-26.12s0 11.53-1.5 14.7-11 4.8-11 .19a75.88 75.88 0 0 0 1.34-13.45s-2.04 10.5-3.14 14.21z"/></clipPath><linearGradient id="i" gradientUnits="userSpaceOnUse" x1="107.55" x2="107.55" y1="50.76" y2="-79.73"><stop offset="0" stop-color="#fff"/><stop offset=".99" stop-color="#b07ede"/></linearGradient><linearGradient id="j" x1="71.2" x2="71.2" xlink:href="#i" y1="43.83" y2="-56.83"/><linearGradient id="k" x1="114.35" x2="114.35" xlink:href="#i" y1="71.89" y2="70.22"/><linearGradient id="l" x1="53.11" x2="53.11" xlink:href="#i" y1="58.72" y2="56.72"/><linearGradient id="m" gradientTransform="matrix(-.35901962 .93333001 -.93333001 -.35901962 7408.54 4944.08)" gradientUnits="userSpaceOnUse" x1="-1953.65" x2="-1953.03" y1="8665.34" y2="8650.69"><stop offset=".01" stop-color="#ff55c9"/><stop offset="1" stop-color="#ff64cc"/></linearGradient><linearGradient id="n" gradientTransform="matrix(.55 .84 -.84 .55 5114.86 544.84)" gradientUnits="userSpaceOnUse" x1="-3195.24" x2="-3194.75" y1="3879.6" y2="3868.05"><stop offset=".01" stop-color="#ffc202"/><stop offset="1" stop-color="#ffca00"/></linearGradient><linearGradient id="o" gradientUnits="userSpaceOnUse" x1="28.35" x2="74.5" y1="7.35" y2="7.35"><stop offset=".02" stop-color="#f2d1fe"/><stop offset="1" stop-color="#fff"/></linearGradient><circle cx="94.35" cy="94.35" fill="#caeff9" r="94.35"/><g clip-path="url(#a)"><path d="m29.63 125.23c.53-.42-5.81-3.34-10.43-3-.92.06-4-.21-3.89 1.14a3.81 3.81 0 0 0 1.58 3.14c1.57 1.43 9.3 1.49 12.74-1.28z" fill="#ff9566"/><path d="m18.5 122.16c.65-.55 0-6.26-.9-7s-4.7-.63-5.33 1a3.53 3.53 0 0 0 .3 3.76c.9 1.08 5.53 2.57 5.93 2.24z" fill="#ff9566"/><path d="m16.33 116.15c.65-.55 0-6.26-.91-7s-5.24-2.35-5.87-.73a7.43 7.43 0 0 0 .85 5.48c.9 1.1 5.53 2.59 5.93 2.25z" fill="#ff9566"/><path d="m173.8 133.16c4.69 7.47 8.32 9.3 9 18.88-3.56.52-15.41 8.56-18.57 6.6s-6.39-17.21-6.39-17.21z" fill="#ff9566"/><path d="m172.45 157.37c-.24-1.27-2.07-2-4.09-1.63s-3.48 1.71-3.24 3 2.06 2 4.09 1.63 3.47-1.73 3.24-3z" fill="#ff9566"/><path d="m178.55 154.84c-.24-1.27-2.07-2-4.09-1.62s-3.48 1.7-3.25 3 2.07 2 4.09 1.62 3.48-1.72 3.25-3z" fill="#ff9566"/><path d="m183.72 151.89c-.23-1.27-2.66-9.8-4.68-9.43s-2.88 9.51-2.65 10.78 2.06 2 4.09 1.63 3.52-1.71 3.24-2.98z" fill="#ff9566"/><path d="m171.88 130.61c6 3.29 7.87 8.71 7.44 11.4s-9.73 7-10.66 7.64c-1.19.79-5.06-1.85-3.53-3.93s5.43-4 5.43-4-5.9-4-3.41-8.62c1.85-3.44 4.73-2.49 4.73-2.49z" fill="#ffb882"/><path d="m177.13 146.35c1.8.91 5.68 4.65 5.76 6s-3.11 3.09-4.72 2.26-4.62-4.33-4.65-5.56 2.76-3.12 3.61-2.7z" fill="#ffb882"/><path d="m171.44 149.31c1.73.9 5.52 4.67 5.64 6s-2.84 3.26-4.39 2.44-4.51-4.37-4.57-5.65 2.51-3.21 3.32-2.79z" fill="#ffb882"/><path d="m164.8 151.29c1.68 1 5.25 5 5.3 6.32s-3 3.09-4.52 2.19-4.26-4.62-4.25-5.9 2.67-3.08 3.47-2.61z" fill="#ffb882"/><ellipse cx="-2.88" cy="193.9" fill="#fcf0d9" rx="6.17" ry="5.04" transform="matrix(.89664104 -.44275823 .44275823 .89664104 -86.13 18.76)"/><path d="m53.09 224.43c53.73 12.49 90.14-14.17 87.79-50.68-22.33-18.62-87.79 50.68-87.79 50.68z" fill="#eacfa9"/><path d="m122.42 47.68-5.09 41.46c19.06 23.71 45.16 53.49 45.16 53.49l12.79-4.54s-29.28-66.58-52.86-90.41z" fill="#ffb882"/><path d="m129.76 68c-2.07-5.16-12.76 21.92-12.76 21.92 19 23.76 43.14 54.63 43.14 54.63l8-2.68c-17.27-25.73-33.4-61.34-38.38-73.87z" fill="#ff9566"/><path d="m3.5 243.31h200.57s10.7.26 12.2-6.46-1.72-9-1.72-9 7.28-8.53-1.07-19.91-19.48 5.38-19.48 5.38 1.71-18.36-14.13-15-15 22.49-15 22.49-3.43-8-10.07-5.69-6.2 11.63-6.2 11.63-3.86-8.79-10.92-5.17-25.9 18.62-41.31 3.11-32.93-11.46-37.21-2.16c0 0 7.76-41.73-31.8-40.08-19.36.82-20.92 20.92-20.92 20.92-14.98-11.37-43.82 39.94-2.94 39.94z" fill="#f4e1c1"/><path d="m88.81 168.38c-12.81 40.88-43.31 74.93-43.31 74.93h-1.09l10.28-79.07z" fill="#ffb882"/><path d="m52.86 230c1.39-.44 2.76-.81 4.13-1.13 10.01-13.78 24.14-35.87 31.82-60.49l-34.12-4.14-8.89 68.41a60.53 60.53 0 0 1 7.06-2.65z" fill="#ff9566"/><path d="m104.5 171.65c17.85 40.59 49.5 71.66 49.5 71.66h1l-21.78-78.49z" fill="#ffb882"/><path d="m140.69 191.64-7.44-26.82-28.75 6.83c8.5 19.33 20.11 36.49 29.95 49.17.55-11.69 2.84-22.01 6.24-29.18z" fill="#ff9566"/><path d="m106.7 31.07c2.71-.44 2.06-3.95.59-4.33 0 0 .89-3.3-2.44-3.18 0 0 .72-3-2.6-2.13s.01 10.35 4.45 9.64z" fill="#f4d5b0"/><path d="m113.27 41.62c3.74-.63 2.88-5.09.87-5.52 0 0 1.26-4.25-3.33-4 0 0 1-3.88-3.56-2.63s-.1 13.19 6.02 12.15z" fill="#f4d5b0"/><path d="m73 41.11c-3.74-.63-2.88-5.09-.87-5.52 0 0-1.26-4.25 3.33-4 0 0-1-3.87 3.56-2.63s.14 13.19-6.02 12.15z" fill="#f4d5b0"/><path d="m80.56 30.49c-2.68.13-2.76-3.3-1.43-3.94 0 0-1.51-2.93 1.69-3.48 0 0-1.29-2.7 2.06-2.51s2.06 9.72-2.32 9.93z" fill="#f4d5b0"/><path d="m102.84 27.66c2-.36 2.34-2.65 1.58-3.36s-2.07-1-2.47-.12.21 3.6.89 3.48z" fill="#ff9566"/><path d="m102.5 26.77c1.34-.22 1.56-1.48 1.07-1.87s-1.34-.51-1.61 0 .1 1.94.54 1.87z" fill="#db5b3e"/><path d="m82.77 28.63c-1.88-.4-2.37-2.72-1.76-3.43s1.76-.94 2.21-.06.17 3.63-.45 3.49z" fill="#ff9566"/><path d="m83 27.83a1.49 1.49 0 0 1 -1-2c.37-.41 1-.56 1.31 0s.02 2.08-.31 2z" fill="#db5b3e"/><path d="m41.22 96.42c1.16-18.66 13.32-47.05 26.25-52.28s7.2 69.43-16.56 79.36c-15.97 6.68-10.21-18.71-9.69-27.08z" fill="#ffb882"/><path d="m66.28 46.83c-20.57 24.52-3.61 58.09-16.73 65.23-2 1.07-10.72-5.56-12.23-5.71 0 10.29 2.63 21.74 13.59 17.15 23.76-9.93 15.88-76.95 15.37-76.67z" fill="#ff9566"/><path d="m68.77 130.18c.29-6.68-1-21.87-2.5-27.88-16.85-29.77-6.06-49.57-4.27-51.95 7.4-9.71 22.22-14.7 32-15.58s28.27 7.45 34.75 20.92c4 8.27 5.4 30.82-3.16 45.67-3.55 7.62-4 18.22-2.25 29.11z" fill="#ffb882"/><g fill="#ff9566"><path d="m92.59 119.69c0-3.29 1.45-15 1.45-15l1.72 17.37z"/><path d="m94.19 112.51c2.25.4 11.11 1 11.11 1l-11-3z"/><path d="m94.19 117.52c2.25.4 11.11 1 11.11 1l-11-3z"/><path d="m93.82 112.51c-2.12.4-10.51 1-10.51 1l10.43-3z"/><path d="m93.82 117.52c-2.12.4-10.51 1-10.51 1l10.43-3z"/><path d="m64.4 45.78a15.41 15.41 0 0 0 -.93 1.81c-1.84 3.59 1.89 7.08 1.89 7.08-2.78 4.9 3.21 7.93 3.21 7.93-2.19 4.77 4 7 4 7-.27 4.18 5.87 4.52 5.87 4.52.22 4.49 7.8 4.14 7.8 4.14s.59 4.27 6.49 4.08c3.45-.11 4.38-4.57 4.38-4.57 5.26 2 6.68-2.92 6.68-2.92 5 .47 7.16-1.45 7.27-5.15 5.44-.79 7.4-3.43 6.83-7.42 3.75-1.12 5.64-6.38 3.49-9.24a4.47 4.47 0 0 0 -.57-7.62c-6.38-4.65-16.74-7.1-27.72-7-11.53.05-21.73 2.58-28.69 7.36z"/><path d="m65.77 102.61c1.52 6 3.88 20.9 3.59 27.57l54 .29c-.34-2.14-.59-4.27-.76-6.37-9.62-1.11-59.51 13-44.59-85 0-.15 0-.3 0-.44-.66.24-1.32.5-2 .76l-1 .48c-5.71 22-11.5 37.94-12.66 58.64.27.46 3.2 3.67 3.42 4.07z"/><path d="m130.56 90.82c-6.89 12.35-24.07 9.88-34.92 9.88-16.41 0-29.77 1-38.23-14.38a107.19 107.19 0 0 0 7.23 16.53c1.53 6 4.42 20.65 4.13 27.33h5.13a27.19 27.19 0 0 1 -.19-3.15c0-13.43 10-24.32 22.29-24.32s22.29 10.89 22.29 24.32a25.29 25.29 0 0 1 -.22 3.39h5.31c-1.75-10.89-1-21.09 2.57-28.71a74 74 0 0 0 4.61-10.89z"/><path d="m94.33 85.89s-1.16 12.11-2.61 15.54a7.41 7.41 0 0 1 5.22-.29c-2.39-6.14-2.61-15.25-2.61-15.25z"/></g><path d="m122.78 126.69c-4.47-3.74-62.43 18.74-46.41-85.41.44-2.81-1.27-3.76-1.93.32-12.06 74.5-19.8 94.18-29.84 182.69 45.09-26.87 70.88-13.57 96.28-50.54 0 0-13.95-43.59-18.1-47.06z" fill="#fcf0d9"/><path d="m74.88 91.45c-2-12.11-1.86-28.36 1.49-50.17.44-2.81-2-3.61-2.69.47-4.33 26.75-7.34 46.25-10.87 64.63 6-17 6-33.1 8.22-35.23 1.73-1.65.47 10.24 3.85 20.3z" fill="#f4e1c1"/><path d="m123.37 127.36c2.73 30.86 2.32 53.87-3.48 67.09 7.27-4.43 14.14-10.74 21-20.7-.01 0-12.79-39.92-17.52-46.39z" fill="#f4e1c1"/><path d="m92.31 78.58c-5.51.06-5.88-2.58-5.88-2.58s-7.08.18-7.31-4.36c0 0-5.75-.48-5.53-4.7 0 0-5.8-2.43-3.79-7.21 0 0-5-3.09-2.47-8 0 0-2.7-4.19-1-7.78a7.63 7.63 0 0 1 4.72-4.27s.81-3.36 2.68-4.68a11.86 11.86 0 0 1 4.57-1.67s.46-3.72 5-6.44c0 0-1.76-1.24-.89-2.55a6 6 0 0 1 2-1.9s-2.41-.5-.05-2.44a1.48 1.48 0 0 1 -.09-2.2 2.76 2.76 0 0 1 2.73-.53 1.33 1.33 0 0 1 .77-1.88 2.53 2.53 0 0 1 2.29.19s.52-1.7 2-1.71a2.53 2.53 0 0 1 2.14 1.42s1-1.38 2.16-.53.87 1.58.87 1.58 1.72-1.28 2.54-.28a3.64 3.64 0 0 1 .7 2.34s1.64-.38 2 1a1.82 1.82 0 0 1 -.89 2 1.35 1.35 0 0 1 1.53 1.21 2.74 2.74 0 0 1 -1.21 2.39 4.73 4.73 0 0 1 3.44 2.46 8.46 8.46 0 0 1 1 4c3.1-.11 6.33 2.27 8.22 5.94 1.7-.45 4.16 2.42 4.07 6.41 3.66 2.49 2.19 6.18.5 7.35 2 2.94.29 8.22-3.2 9.27.56 4.06-1.26 6.68-6.33 7.35-.08 3.75-2.11 5.65-6.76 5 0 0-1.29 4.92-6.22 2.81a4.68 4.68 0 0 1 -4.31 2.99z" fill="#fcf0d9"/><path d="m103 58.52c-.13.15-.28.29-.42.44a15.69 15.69 0 0 1 1.7-.1c-.47-.1-.9-.21-1.28-.34z" fill="#fce7ca"/><path d="m118.6 43.89c.09-4-2.37-6.86-4.07-6.41-1.89-3.67-5.12-6-8.22-5.94a8.52 8.52 0 0 0 -1-4 5.81 5.81 0 0 0 -.38-.61 5.35 5.35 0 0 1 .37 1.94 5.83 5.83 0 0 1 -1.18 3.42h.68c4.51 0 8.16 2.31 8.16 5.16a4.51 4.51 0 0 1 -2.43 3.67c5.16 1.32 8.74 4.52 8.25 7.62a4.85 4.85 0 0 1 -2.69 3.26 4 4 0 0 1 .17 1.14c0 3.24-3.94 5.88-8.85 6 2.78.57 4.73 1.89 4.73 3.42 0 2.06-3.54 5.36-7.86 5.36s-7.79-3.3-7.79-5.36a1.93 1.93 0 0 1 .16-.74 16.44 16.44 0 0 1 -3.19.31 15.23 15.23 0 0 1 -6.39-1.32 1.79 1.79 0 0 1 0 .23 2.19 2.19 0 0 1 -1.29 1.77 8.72 8.72 0 0 1 3.7-.75c2.91 0 5.27 1.17 5.27 2.61s-2.37 4.33-5.28 4.33-5.23-2.84-5.23-4.28a2.16 2.16 0 0 1 1.28-1.72c-.85.43-2 1.8-3.29 1.8-2.67 0-4.8-2.28-4.8-3.72s2.16-2.61 4.83-2.61a7.89 7.89 0 0 1 1.8.19 5.51 5.51 0 0 1 -.8-1.23 8.08 8.08 0 0 1 -3.49.75c-3.26 0-5.91-1.73-5.91-3.85a2.89 2.89 0 0 1 .71-1.84c-4.29-1.07-7.32-3.64-7.32-6.66 0-2.58 2.22-4.83 5.54-6.1a3.09 3.09 0 0 1 -.24-1.16c0-2.65 3.53-4.79 7.88-4.79a9.81 9.81 0 0 1 6.66 2.22 2.83 2.83 0 0 1 .35-.34c-3.54-1.37-5.92-3.91-5.92-6.82a5.81 5.81 0 0 1 0-.72 9.07 9.07 0 0 0 -3.26 5.19 11.86 11.86 0 0 0 -4.52 1.69c-1.87 1.32-2.68 4.68-2.68 4.68a7.63 7.63 0 0 0 -4.72 4.27c-1.71 3.59 1 7.78 1 7.78-2.56 4.9 2.47 8 2.47 8-2 4.78 3.49 7.48 3.49 7.48-.22 4.22 5.83 4.43 5.83 4.43.23 4.54 7.31 4.36 7.31 4.36s.37 2.67 5.88 2.61a4.68 4.68 0 0 0 4.28-2.86c4.93 2.11 6.22-2.81 6.22-2.81 4.65.6 6.68-1.3 6.76-5 5.07-.67 6.89-3.29 6.33-7.35 3.49-1 5.22-6.33 3.2-9.27 1.68-1.25 3.15-4.94-.51-7.43z" fill="#fce7ca"/><path d="m101.57 21.45a1.82 1.82 0 0 0 .89-2c-.34-1.4-2-1-2-1a3.86 3.86 0 0 0 -.36-1.79l-.12-.05a1.34 1.34 0 0 1 -1 1.77 2.52 2.52 0 0 1 -2.24-.49s-.74 1.61-2.19 1.44a2.54 2.54 0 0 1 -1.93-1.69s-1.15 1.24-2.21.24-.66-1.68-.66-1.68-1.88 1-2.55-.06a2.12 2.12 0 0 1 -.11-.21 1.55 1.55 0 0 0 -.09 1.34 2.76 2.76 0 0 0 -2.76.57 1.48 1.48 0 0 0 .09 2.2c-2.38 1.9.07 2.38.07 2.38a6 6 0 0 0 -2 1.9 1.41 1.41 0 0 0 0 1.54c1.77-2.88 6-4.92 11-4.92a14.65 14.65 0 0 1 9.4 3.07 2.08 2.08 0 0 0 .28-1.35 1.36 1.36 0 0 0 -1.51-1.21z" fill="#fce7ca"/><path d="m92.53 25.79a2.23 2.23 0 0 0 -2.12 1.89l-.21 1.14a.9.9 0 0 0 .8 1.07 13.93 13.93 0 0 0 3.35 0 .9.9 0 0 0 .65-1.18l-.37-1.27a2.2 2.2 0 0 0 -2.1-1.65z" fill="#f4e1c1"/><path d="m85 25.74c1.58-1.06 4.71.06 7.8 0s6.2-1.38 7.48-.19c0 0-1.69 2.09-7.68 1.66-6.35 1.11-7.6-1.47-7.6-1.47z" fill="#ffb882"/><path d="m85.58 26.35c1.68-.64 4.36.58 7.18.5 2.63-.08 5.4-1.3 6.91-.88a5.49 5.49 0 0 0 .64-.45c-1.28-1.19-4.36.1-7.48.19s-6.22-1-7.8 0a1.88 1.88 0 0 0 .55.64z" fill="#ff9566"/><path d="m92.51 26a1.86 1.86 0 0 0 -1.74 1.59l-.17 1a.74.74 0 0 0 .61.89 11 11 0 0 0 2.75 0 .75.75 0 0 0 .59-1l-.3-1.06a1.82 1.82 0 0 0 -1.74-1.42z" fill="#ff9566"/><path d="m92.51 26a1.5 1.5 0 0 0 -1.3 1.42l-.13.85a.68.68 0 0 0 .46.8 7.06 7.06 0 0 0 2 0 .68.68 0 0 0 .45-.86l-.23-.95a1.43 1.43 0 0 0 -1.25-1.26z" fill="#ffb882"/><path d="m-6.6 234.58c32.34 6.76 63.45-16.74 100-29.81-20.53-3.08-33.67-12.87-42.88-26.24-13.92 24.3-21.23 51.68-57.12 56.05z" fill="#fcf0d9"/><path d="m31.42 201.69c3.66-8.3-.86-15.57-8.89-15.1-6.55.39-12.25 6-13.59 12.07-1.2 5.42 2.15 2.53 7.32 3.41 6.14 1.05 11.99 6.78 15.16-.38z" fill="#fcf0d9"/><path d="m29.78 123.32c11.77 1.16 19.12.29 22.22-1.63 9.86-6.12 4.66-27.27-9.66-26.21-3.92.29-18.89 8.94-20.18 10.74-2.16 3.05 2.98 16.64 7.62 17.1z" fill="#ffb882"/><path d="m54.93 100c-.29 4.57-2.26 10.19-6.09 12.56-3.1 1.92-10.56 4.14-22.32 3-1.61-.16-3.27-2-4.66-4.58.91 5.5 4.49 13.39 7.85 13.73 11.76 1.16 19.57 0 22.67-1.87 6.32-3.96 7.15-16.07 2.55-22.84z" fill="#ff9566"/><path d="m31.74 123.32c-5.83.18-8.22 4.16-14.16-.43-4-3.11-5.75-11.67-5-14.75 5.08-.41 7.93-6.2 16-3s11.72 17.93 3.16 18.18z" fill="#ffb882"/><path d="m27.5 102.58c-4.21-.66-5.66 2-6 3.65s2.89 13.62 5.17 14.24c1.59.43 10.49-2 10.54-4 .05-1.81-8.76-13.74-9.71-13.89z" fill="#ff9566"/><path d="m34.41 116.45c-7.36.42-9.63-3.82-17.34-8.12-1.1-.62-6.33-1-4.86 4.68 1 4.13 3.34 9.14 5.7 11 5.94 4.58 8.89 1 14.73.88 4.32-.13 5.3-4.35 4.17-8.9a7.84 7.84 0 0 1 -2.4.46z" fill="#ff9566"/><path d="m48.75 174.97-3.91-15.22-1.08 3.56-14.68-34.94-7.87-23.85-2.76-12.12-19.71-48.25 2.68 16.98-2.12.27 16.91 38.31-2.87-1.48 12.4 26.83 2.25 9.43 14.85 28.66-2.74-1.3z" fill="#ffdd71"/><path d="m81.44 209.44c4.26-1.32 7.63-3.45 11.52-4.55 14.13-26.57 26.74-51.16 28.09-72.09-1.77 14.2-12.81 47.35-39.61 76.64z" fill="#f4e1c1"/><path d="m120.37 96.65c-.11-.81-1.84-1.24-3.86-1s-3.59 1.13-3.49 1.94 1.84 1.24 3.87 1 3.58-1.14 3.48-1.94z" fill="#ef8054"/><path d="m20.37 113.43-1.28-18.19-.64-2.84-10.01-24.51v14.21l7.77 17.61-2.87-1.48z" fill="#fff297"/><path d="m40.02 154.41-10.94-26.04-1.57-4.75 2.65 15.06 9.86 19.02z" fill="#fff297"/><path d="m14.36 179.28c2 .49 2.41 2.77.59 5.1s-3.73 2.59-5.51 1.56c-1.53-.9-2.38-2.36-.82-4.2s3.99-2.89 5.74-2.46z" fill="#f4e1c1"/><path d="m58.55 128.86c-1.73 9.33-3.42 18.92-5.13 29.56-1.2 32.76-6.45 45.8-6.75 48.27 3.5-9.51 11.43-35.63 11.88-77.83z" fill="#f4e1c1"/><path d="m71.53 87.78c2.88 28.12 19.06 40.84 36.05 40.84 0 0-23.81 2.5-32.76-21a49.59 49.59 0 0 1 -3.29-19.84z" fill="#f4e1c1"/><path d="m131.62 149.79c.62 9.18 3.6 31.38 3.6 31.38l5.66-7.42s-9.59-28.75-9.26-23.96z" fill="#fcf0d9"/><path d="m88.46 22.33a10.62 10.62 0 0 1 4.33 1.58s5.14-2.64 9.3-2.49l-4.64-1.65-14.04 1.23s-.58.28-.59.74a1 1 0 0 0 1 1s1.18-.87 4.64-.41z" fill="#fce7ca"/><path d="m102.52 16.67c-.08-.23-1.33 1.27-2.27 2.45h-2a5.55 5.55 0 0 0 -.62-2.4c-.28-.13-.9 1.24-1.37 2.36l-2.59-.08a6.68 6.68 0 0 0 -1.06-2.47c-.32-.13-.8 1.37-1.09 2.43h-1.88a10.25 10.25 0 0 0 -1.76-2.96c-.38-.14-.51 1.65-.55 2.83h-2.12c-.87-1.26-2.15-3.06-2.24-2.8-.49 1.41-.12 3.38.35 5l18.71.35h.06c.49-1.53.91-3.38.43-4.71z" fill="#f7b42f"/><path d="m94.48 45.81a9.23 9.23 0 0 1 8.71-1.31s-3.7-3.84-1.89-8.42c-2.19 4.41-1.81 5.39-6.82 9.73z" fill="#fce7ca"/><path d="m96.3 19h-2.63a6.68 6.68 0 0 0 -1.06-2.47c-.32-.13-.8 1.37-1.09 2.43h-1.88c-.15-.32-.31-.65-.48-1-1 1.09-1.94 2.15-2.82 3.16l9.25.17c.18-.22.36-.45.55-.67a28.24 28.24 0 0 1 2.06-2.15 3.88 3.88 0 0 0 -.53-1.79c-.28-.13-.9 1.24-1.37 2.32z" fill="#ffcb48"/><path d="m40.24 187.33c-.65-1.33-2.49-1.75-4.12-1a2.73 2.73 0 1 0 2.37 4.8c1.63-.76 2.41-2.48 1.75-3.8z" fill="#fcf0d9"/><path d="m75.89 185.37c37.66-32.16 36.11-52.23 36.11-52.23s-9.2 17.3-15.63 27c-7.54 11.5-20.48 25.23-20.48 25.23z" fill="#f4e1c1"/><path d="m97.3 26.16c0-.13-.57-.44-1.25-.36s-1.24.54-1.22.67.57 0 1.26-.11 1.23-.08 1.21-.2z" fill="#603642"/><path d="m90.06 26.61c0-.12-.43-.57-1.11-.67a1.65 1.65 0 0 0 -1.36.32c0 .12.57.13 1.25.22s1.21.26 1.22.13z" fill="#603642"/><path d="m27.29 102.35c-3.92-1.7-6.51-.29-6.61 1.44s2.18 11.12 4.24 12.29c1.43.81 4.27.22 4.83-1.73.49-1.73-1.58-11.62-2.46-12z" fill="#ffb882"/><path d="m20.65 112.83c1-.84 0-6.23-1.5-6.57s-8.45 0-9.46 1.9c-.7 1.32-.23 4.24 1.41 5.07 1.46.77 8.9.11 9.55-.4z" fill="#ffb882"/><path d="m22.76 119.45c1-.78-.49-5.37-2-5.57s-8.31.53-9.17 2.23a3.53 3.53 0 0 0 1.76 4.29c1.54.54 8.82-.46 9.41-.95z" fill="#ffb882"/><path d="m25.19 126c.94-.62.12-4.83-1.16-5.13s-7.45-.2-8.39 1.24a3.11 3.11 0 0 0 1.12 4c1.24.59 7.86.29 8.43-.11z" fill="#ffb882"/></g><g clip-path="url(#b)"><path d="m42.67 60.45-5.96.85 54.14 2.19 12.16 1.44 10.92 2.59-8.81 7.48-3.51.78h25.25l-2.83-3.89 7.73-1.67 50.04-3.85-26.8-9.95-26.79.3-69.23 1z" fill="#592963" opacity=".5"/><path d="m77.76 50.76 2.57-9.16 1.12-1.6s-1-4.52-5.71-10.7c0 0-1.58-3.49-1.58-4.74s10.84-18.37 10.1-26.87-5.69-14.55-6.34-16.78 2.41-17.91 2.41-17.91l-5.33-4-4.65 74 4.65 7.45z" fill="#9addff" fill-rule="evenodd"/><path d="m123.22 49.09s.14-4.71.39-5.87.42-2.66.42-2.66-3-6.26-3-12.13c0-2.73 5-18.22 4-27.94s-8.63-15.34-9.72-18.65 1.49-38.75-2.25-54.68-14.56-28.16-14.56-28.16l.62-2.26.93-2-.65-1.35 7.85-15-15.09 13.39 13.34 56.1 7.25 69.91 9.38 36.49z" fill="#9addff" fill-rule="evenodd"/><path d="m73.05 24.93a10.26 10.26 0 0 0 1.25 4.32l-2.3 6.24c-1.6 2.06-3.42 4.48-5.17 6.84-4.05 5.45-7.83 10.67-7.83 10.67h-1.79s7-21.5 8.64-32.44.87-30.92.87-30.92l-1.92-3.21c-1.67-6.37-3.35-17.6-4.47-26-.83-6.1-1.33-10.69-1.33-10.69 0-1.86 0-4.11.09-6.57.21-10.87.91-25.56.91-25.56 17.72 0 22 15.87 22 15.87s-1.27 10.28-2.59 21.24c-1.41 11.4-2.76 23.54-2.76 25.67 0 4.17 6.77 8.21 6.77 16.84s-10.37 25.59-10.37 27.7z" fill="url(#c)"/><path d="m123.3 50.39c.23 4.37.54 10.06.54 13a80.23 80.23 0 0 1 -.76 10l-18.15 1.15-.68-1.34s3.56-6.33 4.23-9 3.84-16.42 3.84-18-.71-4.53-.71-6.55.71-4.39.71-8.52-5.32-18.39-6.72-24.25a43.05 43.05 0 0 1 -.95-7.88c-.22-4.11-.17-8-.64-9.55-.76-2.64-5.51-8.45-8.78-19.87-.34-1.2-.69-2.46-1-3.77-1-3.74-2.11-7.86-3.11-11.68-2-7.67-3.61-14.17-3.61-14.17l-5.51-6.48c0-12.34 17.57-22.21 17.57-22.21s4.22 2.83 8.43 13.73a93.67 93.67 0 0 1 3.74 12.56c4.92 21.45 1.63 39.74 2.69 44.83s8.26 10.18 9.41 18.82-3.2 23.74-3.2 27.19a49.27 49.27 0 0 0 2.17 11.66c.57 1.45.21 3 .21 4.68-.02.68.12 2.9.28 5.65z" fill="url(#d)"/><path d="m73.05 24.93a10.26 10.26 0 0 0 1.25 4.32l-2.3 6.24c-1.6 2.06-3.42 4.48-5.17 6.84-4.05 5.45-7.83 10.67-7.83 10.67h-1.79s7-21.5 8.64-32.44.87-30.92.87-30.92l-1.92-3.21c-1.67-6.37-3.35-17.6-4.47-26-.83-6.1-1.33-10.69-1.33-10.69 0-1.86 0-4.11.09-6.57.21-10.87.91-25.56.91-25.56 17.72 0 22 15.87 22 15.87s-1.27 10.28-2.59 21.24c-1.41 11.4-2.76 23.54-2.76 25.67 0 4.17 6.77 8.21 6.77 16.84s-10.37 25.59-10.37 27.7z" fill="url(#e)" opacity=".8"/><path d="m123.3 50.39c.23 4.37.54 10.06.54 13a80.23 80.23 0 0 1 -.76 10l-18.15 1.15-.68-1.34s3.56-6.33 4.23-9 3.84-16.42 3.84-18-.71-4.53-.71-6.55.71-4.39.71-8.52-5.32-18.39-6.72-24.25a43.05 43.05 0 0 1 -.95-7.88c-.22-4.11-.17-8-.64-9.55-.76-2.64-5.51-8.45-8.78-19.87-.34-1.2-.69-2.46-1-3.77-1-3.74-2.11-7.86-3.11-11.68-2-7.67-3.61-14.17-3.61-14.17l-5.51-6.48c0-12.34 17.57-22.21 17.57-22.21s4.22 2.83 8.43 13.73a93.67 93.67 0 0 1 3.74 12.56c4.92 21.45 1.63 39.74 2.69 44.83s8.26 10.18 9.41 18.82-3.2 23.74-3.2 27.19a49.27 49.27 0 0 0 2.17 11.66c.57 1.45.21 3 .21 4.68-.02.68.12 2.9.28 5.65z" fill="url(#f)" opacity=".8"/><g clip-path="url(#g)"><path d="m42.67 29.25h37.66v31.2h-37.66z" fill="#241322"/><ellipse cx="65.9" cy="37.83" fill="#241322" rx="12.5" ry="17.5" transform="matrix(.03 -1 1 .03 25.92 102.45)"/><ellipse cx="65.9" cy="37.83" fill="#251423" rx="12.11" ry="16.95" transform="matrix(.03298074 -.99945599 .99945599 .03298074 25.92 102.45)"/><ellipse cx="65.9" cy="37.83" fill="#261524" rx="11.72" ry="16.4" transform="matrix(.03298074 -.99945599 .99945599 .03298074 25.92 102.45)"/><ellipse cx="65.9" cy="37.83" fill="#271625" rx="11.32" ry="15.85" transform="matrix(.03298074 -.99945599 .99945599 .03298074 25.92 102.45)"/><ellipse cx="65.9" cy="37.83" fill="#281726" rx="10.93" ry="15.3" transform="matrix(.03 -1 1 .03 25.92 102.45)"/><ellipse cx="65.9" cy="37.83" fill="#291726" rx="10.53" ry="14.74" transform="matrix(.03298074 -.99945599 .99945599 .03298074 25.92 102.45)"/><ellipse cx="65.9" cy="37.83" fill="#2a1827" rx="10.14" ry="14.19" transform="matrix(.03 -1 1 .03 25.92 102.45)"/><ellipse cx="65.9" cy="37.83" fill="#2b1928" rx="9.74" ry="13.64" transform="matrix(.03298074 -.99945599 .99945599 .03298074 25.92 102.45)"/><ellipse cx="65.9" cy="37.83" fill="#2c1a29" rx="9.35" ry="13.09" transform="matrix(.03298074 -.99945599 .99945599 .03298074 25.92 102.45)"/><ellipse cx="65.9" cy="37.83" fill="#2d1b2a" rx="8.96" ry="12.54" transform="matrix(.03298074 -.99945599 .99945599 .03298074 25.92 102.45)"/><ellipse cx="65.9" cy="37.83" fill="#2e1c2b" rx="8.56" ry="11.98" transform="matrix(.03298074 -.99945599 .99945599 .03298074 25.92 102.45)"/><ellipse cx="65.9" cy="37.83" fill="#2f1d2c" rx="8.17" ry="11.43" transform="matrix(.03 -1 1 .03 25.92 102.45)"/><path d="m66.15 30.06c6 .2 10.76 3.84 10.62 8.13s-5.12 7.61-11.13 7.41-10.76-3.84-10.64-8.13 5.15-7.6 11.15-7.41z" fill="#301e2d"/><ellipse cx="65.9" cy="37.83" fill="#311f2e" rx="7.38" ry="10.33" transform="matrix(.03298074 -.99945599 .99945599 .03298074 25.92 102.45)"/><path d="m66.13 30.85c5.39.18 9.67 3.45 9.54 7.3s-4.6 6.84-10 6.66-9.67-3.44-9.54-7.3 4.6-6.84 10-6.66z" fill="#32202f"/><ellipse cx="65.9" cy="37.83" fill="#33202f" rx="6.59" ry="9.22" transform="matrix(.03298074 -.99945599 .99945599 .03298074 25.92 102.45)"/><path d="m66.1 31.64c4.79.16 8.58 3.06 8.47 6.48s-4.09 6.06-8.88 5.9-8.57-3.02-8.46-6.47 4.09-6.07 8.87-5.91z" fill="#352130"/><path d="m66.09 32c4.48.15 8 2.87 7.92 6.07s-3.82 5.68-8.3 5.53-8-2.86-7.93-6.06 3.83-5.65 8.31-5.54z" fill="#362231"/><path d="m66.08 32.43c4.17.14 7.48 2.67 7.38 5.65s-3.56 5.29-7.74 5.16-7.48-2.67-7.39-5.66 3.57-5.29 7.75-5.15z" fill="#372332"/><path d="m66.06 32.82c3.88.13 6.94 2.48 6.85 5.24s-3.3 4.91-7.18 4.78-6.94-2.47-6.84-5.24 3.3-4.9 7.17-4.78z" fill="#382433"/><path d="m66.05 33.22c3.57.11 6.39 2.28 6.31 4.83s-3 4.52-6.61 4.4-6.4-2.28-6.31-4.83 3.04-4.52 6.61-4.4z" fill="#392534"/><path d="m66 33.61c3.26.11 5.84 2.09 5.77 4.42s-2.79 4.13-6 4-5.86-2.03-5.77-4.39 2.77-4.14 6-4.03z" fill="#3a2635"/><path d="m66 34c3 .09 5.31 1.89 5.24 4s-2.53 3.75-5.49 3.65-5.3-1.89-5.23-4 2.55-3.74 5.48-3.65z" fill="#3b2736"/><path d="m66 34.4c2.66.09 4.76 1.69 4.69 3.59s-2.26 3.36-4.91 3.28-4.76-1.7-4.7-3.6 2.28-3.36 4.92-3.27z" fill="#3c2837"/><path d="m66 34.79c2.35.08 4.21 1.5 4.15 3.18s-2 3-4.35 2.9-4.21-1.5-4.16-3.18 2.01-2.97 4.36-2.9z" fill="#3d2938"/><path d="m66 35.19c2 .06 3.66 1.3 3.61 2.76s-1.74 2.6-3.79 2.53-3.66-1.31-3.61-2.77 1.73-2.59 3.79-2.52z" fill="#3e2938"/><path d="m66 35.58c1.74.06 3.12 1.11 3.08 2.36s-1.49 2.2-3.23 2.14-3.14-1.08-3.1-2.35 1.48-2.21 3.25-2.15z" fill="#3f2a39"/><path d="m66 36c1.44 0 2.57.91 2.54 1.94s-1.23 1.82-2.66 1.77-2.57-.92-2.54-1.94 1.18-1.84 2.66-1.77z" fill="#402b3a"/><path d="m66 36.37c1.13 0 2 .72 2 1.53s-1 1.43-2.1 1.4-2-.73-2-1.53.92-1.44 2.1-1.4z" fill="#412c3b"/><path d="m65.93 36.76c.83 0 1.48.53 1.46 1.12s-.7 1-1.53 1-1.48-.53-1.46-1.12.71-1.02 1.53-1z" fill="#422d3c"/><path d="m65.92 37.16c.52 0 .94.33.92.7s-.44.66-1 .65-.94-.34-.93-.71.49-.66 1.01-.64z" fill="#432e3d"/></g><g clip-path="url(#h)"><path d="m104.25 47.29h19.99v27.7h-19.99z" fill="#241322"/><path d="m116.52 44.94a17.13 17.13 0 0 1 9.78 3.24h-1.3v7.19h5.15c-.18 5.51-6.57 9.77-14.28 9.51s-13.82-4.88-13.64-10.43 6.58-9.77 14.29-9.51z" fill="#241322"/><ellipse cx="116.19" cy="54.91" fill="#251423" rx="9.66" ry="13.53" transform="matrix(.03298074 -.99945599 .99945599 .03298074 57.49 169.24)"/><path d="m116.5 45.57c7.23.23 12.94 4.61 12.77 9.77s-6.16 9.15-13.38 8.92-13-4.62-12.78-9.78 6.17-9.15 13.39-8.91z" fill="#261524"/><ellipse cx="116.19" cy="54.91" fill="#271625" rx="9.03" ry="12.65" transform="matrix(.03298074 -.99945599 .99945599 .03298074 57.49 169.24)"/><path d="m116.48 46.2c6.74.22 12.07 4.3 11.91 9.11s-5.75 8.54-12.48 8.32-12.07-4.31-11.91-9.12 5.74-8.51 12.48-8.31z" fill="#281726"/><ellipse cx="116.19" cy="54.91" fill="#291726" rx="8.41" ry="11.77" transform="matrix(.03298074 -.99945599 .99945599 .03298074 57.49 169.23)"/><path d="m116.46 46.83c6.25.2 11.2 4 11.05 8.45s-5.33 7.92-11.58 7.72-11.2-4-11.06-8.46 5.34-7.92 11.59-7.71z" fill="#2a1827"/><ellipse cx="116.19" cy="54.91" fill="#2b1928" rx="7.78" ry="10.89" transform="matrix(.03 -1 1 .03 57.49 169.24)"/><ellipse cx="116.19" cy="54.91" fill="#2c1a29" rx="7.46" ry="10.44" transform="matrix(.03298074 -.99945599 .99945599 .03298074 57.49 169.24)"/><path d="m116.43 47.77c5.52.18 9.89 3.53 9.76 7.47s-4.71 7-10.23 6.81-9.89-3.52-9.77-7.47 4.72-6.99 10.24-6.81z" fill="#2d1b2a"/><ellipse cx="116.19" cy="54.91" fill="#2e1c2b" rx="6.83" ry="9.56" transform="matrix(.03298074 -.99945599 .99945599 .03298074 57.49 169.24)"/><path d="m116.41 48.4c5 .16 9 3.21 8.9 6.81s-4.31 6.38-9.31 6.21-9-3.21-8.9-6.81 4.27-6.38 9.31-6.21z" fill="#2f1d2c"/><path d="m116.4 48.71c4.79.16 8.58 3.06 8.47 6.49s-4.09 6.07-8.88 5.91-8.59-3.06-8.47-6.48 4.08-6.08 8.88-5.92z" fill="#301e2d"/><path d="m116.39 49c4.55.15 8.15 2.9 8 6.15s-3.84 5.85-8.39 5.65-8.15-2.91-8-6.16 3.84-5.76 8.39-5.64z" fill="#311f2e"/><ellipse cx="116.19" cy="54.91" fill="#32202f" rx="5.57" ry="7.8" transform="matrix(.03298074 -.99945599 .99945599 .03298074 57.49 169.24)"/><path d="m116.37 49.66c4.06.13 7.28 2.59 7.18 5.49s-3.47 5.15-7.53 5-7.28-2.6-7.18-5.5 3.46-5.13 7.53-4.99z" fill="#33202f"/><path d="m116.36 50c3.82.13 6.84 2.44 6.75 5.17s-3.26 4.83-7.11 4.68-6.84-2.44-6.75-5.17 3.29-4.84 7.11-4.68z" fill="#352130"/><ellipse cx="116.19" cy="54.91" fill="#362231" rx="4.63" ry="6.48" transform="matrix(.03298074 -.99945599 .99945599 .03298074 57.49 169.23)"/><path d="m116.34 50.6c3.33.11 6 2.13 5.89 4.51s-2.84 4.22-6.18 4.11-6-2.13-5.89-4.51 2.84-4.22 6.18-4.11z" fill="#372332"/><path d="m116.33 50.91c3.09.11 5.53 2 5.46 4.19s-2.64 3.91-5.73 3.81-5.54-2-5.46-4.18 2.63-3.92 5.73-3.82z" fill="#382433"/><path d="m116.31 51.23c2.85.09 5.11 1.82 5 3.85s-2.43 3.61-5.28 3.51-5.1-1.81-5-3.85 2.44-3.61 5.28-3.51z" fill="#392534"/><ellipse cx="116.19" cy="54.91" fill="#3a2635" rx="3.37" ry="4.72" transform="matrix(.03298074 -.99945599 .99945599 .03298074 57.49 169.23)"/><path d="m116.29 51.86c2.37.07 4.24 1.5 4.18 3.19s-2 3-4.38 2.92-4.23-1.51-4.17-3.2 2.01-2.99 4.37-2.91z" fill="#3b2736"/><path d="m116.28 52.17c2.12.07 3.8 1.35 3.75 2.87s-1.81 2.68-3.93 2.61-3.79-1.35-3.74-2.87 1.81-2.68 3.92-2.61z" fill="#3c2837"/><path d="m116.27 52.49c1.88.06 3.36 1.19 3.32 2.53s-1.6 2.38-3.48 2.32-3.36-1.2-3.31-2.54 1.6-2.38 3.47-2.31z" fill="#3d2938"/><path d="m116.26 52.8c1.64.05 2.93 1 2.89 2.21s-1.39 2.07-3 2-2.92-1-2.88-2.21 1.36-2.05 2.99-2z" fill="#3e2938"/><path d="m116.25 53.11c1.39 0 2.49.89 2.46 1.88s-1.19 1.76-2.58 1.72-2.48-.89-2.45-1.88 1.18-1.76 2.57-1.72z" fill="#3f2a39"/><path d="m116.24 53.43c1.15 0 2.06.73 2 1.55s-1 1.45-2.13 1.41-2-.73-2-1.55.99-1.45 2.13-1.41z" fill="#402b3a"/><path d="m116.23 53.74c.9 0 1.62.58 1.6 1.23s-.77 1.14-1.67 1.11-1.62-.58-1.6-1.22.77-1.15 1.67-1.12z" fill="#412c3b"/><path d="m116.22 54.06c.66 0 1.18.42 1.17.89s-.56.84-1.22.81-1.19-.42-1.17-.89.56-.87 1.22-.81z" fill="#422d3c"/><path d="m116.21 54.37c.42 0 .75.27.74.57s-.36.52-.77.51-.75-.27-.74-.56.36-.53.77-.52z" fill="#432e3d"/></g><g fill-rule="evenodd"><path d="m123 44.75c0 .67.12 2.89.28 5.64l-.23.37s-2.88-8.26-6.14-8.26-4.61 3.74-4.61 3.74c0-1.53-.71-4.53-.71-6.55s.71-4.39.71-8.52-5.3-18.43-6.7-24.29a43.05 43.05 0 0 1 -.95-7.88c5.17 7.62 7.86 27.31 7.86 27.31s2.88 7.11 4.23 5.76 5.76-13.91 4.12-25.15-7.86-15.78-7.86-15.78h-4.63l-2.88-1.92 4.51.78 2.74-3.46s1.64-12.9-2.74-17.28-15.38-3.51-15.78-3.48c-1-3.74-2.11-7.86-3.11-11.68l.85-10.69 13.04-23.14 3 4.73a93.67 93.67 0 0 1 3.74 12.56c4.92 21.45 1.63 39.74 2.69 44.83s8.26 10.18 9.41 18.82-3.2 23.74-3.2 27.19a49.27 49.27 0 0 0 2.17 11.66c.57 1.46.19 2.94.19 4.69z" fill="url(#i)" opacity=".8"/><path d="m73.05 24.93a10.26 10.26 0 0 0 1.25 4.32l-2.3 6.24c-1.6 2.06-3.42 4.48-5.17 6.84l-2 1.5 7.43-14.58.12-2.11-1-2c8.23-23.06 3.62-35.54 3.62-35.54-2.69-2.69-7.7 1.54-7.7 1.54l-.55-1.54-1.95-3.17 1.49 1.75 1 .57s3.27-22.47 2.32-24.89-9.26-3.4-9.26-3.4c-.85-6.13-1.35-10.72-1.35-10.72 0-1.86 0-4.11.09-6.57l3.56.23 16.74 11.32c-1.39 11.4-2.74 23.54-2.74 25.67 0 4.17 6.77 8.21 6.77 16.84s-10.37 25.59-10.37 27.7z" fill="url(#j)" opacity=".8"/><path d="m109.56 71.29s2.73 1.07 8.36.36l1.21-1.42s-2.93 1-4.78.41-3.44-.64-4.79.65z" fill="url(#k)"/><path d="m46.13 58.72s10-.31 14-1.63a5.79 5.79 0 0 1 -3.64 0c-2.49-.57-7.96-.77-10.36 1.63z" fill="url(#l)"/><path d="m34.55 7.54s-6.07 1.67-10.91-.19l-2.42 9.4s8.5 4.76 13.15 2.7z" fill="url(#m)"/><path d="m126.09-7.17s-3.27 5.17-8.67 5.69l1.34 4s7.34-.24 11-4z" fill="url(#n)"/><path d="m28.35 5.57s15 1.78 26.25-6.52l19.9 1.75s-18.69 15.4-45.06 14.82z" fill="url(#o)"/></g></g></svg>