<svg viewBox="0 0 188.71 188.71" xmlns="http://www.w3.org/2000/svg" xmlns:xlink="http://www.w3.org/1999/xlink"><clipPath id="a"><circle cx="94.35" cy="94.35" r="94.35"/></clipPath><linearGradient id="b" gradientTransform="matrix(.99160359 -.12931482 .12931482 .99160359 -643.21 535.43)" gradientUnits="userSpaceOnUse" x1="760.56" x2="760.56" y1="-355.71" y2="-367.58"><stop offset="0" stop-color="#fff"/><stop offset=".23" stop-color="#c8b9b9"/><stop offset=".51" stop-color="#8b6b6b"/><stop offset=".74" stop-color="#5d3131"/><stop offset=".91" stop-color="#420d0d"/><stop offset="1" stop-color="#370000"/></linearGradient><circle cx="94.35" cy="94.35" fill="#272d44" r="94.35"/><g clip-path="url(#a)"><path d="m86.79 61.44c-12.27 10.83-28.07 13-35.29 4.79s-3.13-23.59 9.14-34.42 28.07-13 35.29-4.79 3.13 23.59-9.14 34.42z" fill="#d81f1f"/><path d="m64.84 106.2a58.73 58.73 0 0 0 -32.84 30.08c-10.17 21.89-8.48 34.65 14.65 20.35 3.22-2 2.07-20.24 25.52-22.61 11.94-1.22-7.33-27.82-7.33-27.82z" fill="#622ba6"/><path d="m160.44 108.36 11.5-.9a4.52 4.52 0 0 0 4.14-4.85l-1.43-18.19a4.52 4.52 0 0 0 -4.85-4.14l-11.5.91c-2.47.19-2.58 1.91-2.38 4.38l1.46 18.75c.2 2.47.62 4.24 3.06 4.04z" fill="#ffc099"/><path d="m168.25 98.2a2.93 2.93 0 0 0 3.52-2.2l2.93-12.1a2.93 2.93 0 0 0 -2.16-3.52 2.93 2.93 0 0 0 -3.54 2.15l-2.92 12.14a2.93 2.93 0 0 0 2.17 3.53z" fill="#ffc099"/><path d="m172.71 91.87s-1.1 6.34-4.22 6.07c-3.49-.3-2-5.08-1-9.27 0 0-3.82 9.13-.1 10.06s4.84-2.45 5.32-6.86z" fill="#b37c5c"/><path d="m174.63 84.17a2.9 2.9 0 0 0 -1.63-3.61 2.8 2.8 0 0 0 -3.86 1.67s1.42-2.32 3.61-1.48 1.88 3.42 1.88 3.42z" fill="#ffd8ba"/><path d="m162.49 94.55a2.94 2.94 0 0 0 3.58-2.07l3.23-12.06a2.93 2.93 0 0 0 -2.07-3.58 2.93 2.93 0 0 0 -3.58 2.07l-3.23 12.09a2.94 2.94 0 0 0 2.07 3.55z" fill="#ffc099"/><path d="m169.3 80.62a2.92 2.92 0 0 0 -1.57-3.62 2.78 2.78 0 0 0 -3.9 1.58s1.48-2.29 3.64-1.39 1.83 3.43 1.83 3.43z" fill="#ffd8ba"/><path d="m162 85.28s-1.86 6.25-2 7 1.35 2.56 2.82 2.68a3.07 3.07 0 0 0 3.38-2.16c.51-1.6 2.14-8.76 2.14-8.76l-2.6 8.66s-1.37 2-3.2 1.5a2.88 2.88 0 0 1 -2-2.52z" fill="#b37c5c"/><path d="m157.4 90.43a2.94 2.94 0 0 0 3.6-2.12l3-12.1a2.94 2.94 0 0 0 -2.12-3.55 2.94 2.94 0 0 0 -3.55 2.11l-3.08 12.1a3 3 0 0 0 2.15 3.56z" fill="#ffc099"/><path d="m164 76.4a2.92 2.92 0 0 0 -1.62-3.63 2.79 2.79 0 0 0 -3.88 1.62s1.46-2.3 3.63-1.43 1.87 3.44 1.87 3.44z" fill="#ffd8ba"/><path d="m156.82 80.88s-1.86 6.25-2 7 1.35 2.55 2.82 2.68a3.11 3.11 0 0 0 3.39-2.16c.5-1.61 2.14-8.77 2.14-8.77l-2.61 8.66s-1.37 2-3.2 1.51a2.89 2.89 0 0 1 -2-2.52z" fill="#b37c5c"/><path d="m102.42 109.74s13.18-.69 18.71 7.79 4.11 18.93 21.08 22 21.68-25.64 18.27-36.53c0 0 4.63-7.66 11.8-1.23 0 0 5.3 50.12-29.3 47.92s-20.73-25.92-37.2-30.09-3.36-9.86-3.36-9.86z" fill="#ffc099"/><path d="m156.54 69.21c0-.62-.08-1.23-.14-1.82l-3.16-.77 2.92-.79a1.42 1.42 0 0 1 0-.2c-1.69-8.06-12.2-15.79-12.2-15.79a31.81 31.81 0 0 1 2.04 8.49l2.91 1.72h-2.71c0 .38.07.78.09 1.19h1.6l-1.57.38a56.21 56.21 0 0 1 -.47 11c-2 14.28 9.64 18.94 9.64 18.94.64.3 1.73-1.42 1.73-1.42-2.64-4-.54-12.52-.65-19.92l-1.25-.49z" fill="#ffbb0f"/><path d="m155.49 91.54c.64.3 1.73-1.42 1.73-1.42-2-2.94-1.31-8.41-.89-14.06a8.4 8.4 0 0 1 -7.56-5 9 9 0 0 0 -2.44-3.37c-.09 1.55-.24 3.19-.48 4.91-1.97 14.28 9.64 18.94 9.64 18.94z" fill="#e59a0e"/><path d="m155.51 96.25a6.47 6.47 0 0 1 3.58 2.61c6.91 10-5.85 7.22-5.85 7.22z" fill="#ffc099"/><path d="m155.15 97.15s4.39-4 3-6.32-2.87 1.27-7.48 2.14-7.54 1.59-6.7 3 7.1 11.27 10.65 10.15.53-8.97.53-8.97z" fill="#ffc099"/><g fill="#b37c5c"><path d="m154.85 96.82a3.26 3.26 0 0 1 -2 2.55s1.3-1.27 1-2.17z"/><path d="m158.19 91s-.06-1.34-1.06-.8a19 19 0 0 1 -9.65 3.47s5.74-1.1 7.83-2.75 2.96-1.75 2.88.08z"/><path d="m158.4 91.57s.15 4.92-6.16 5.5c0 0 6.11 1.86 6.16-5.5z"/><path d="m155.74 96.59a6.79 6.79 0 0 1 3 2s-.24-1.32-2.49-2.35z"/></g><path d="m158 93.13 4 6.23-.32-4.11-3.26-3.85a12.2 12.2 0 0 1 -.42 1.73z" fill="#a6a6a6"/><path d="m157.19 123s.05-6.07 1-6.12 15.37 12.12 15.37 12.12l-3.17 5z" fill="#d4e2d5"/><path d="m154.85 119.94 17.86 13.3c1.48 4-9.92 23.25-30.68 22.17s-30.73-13.29-31.68-22.32-15.05-14.09-16.16-14.84 1.9-16.69 12.83-15.58 20.6 11.4 22 20.75 21.03 13.79 25.83-3.48z" fill="#622ba6"/><path d="m116 174.56c0 4-3.8 7.33-8.52 7.35l-38.78.17c-4.73 0-8.57-3.24-8.59-7.28l-.25-59.51c0-4 3.8-7.33 8.53-7.35l38.78-.16c4.72 0 8.57 3.23 8.58 7.28z" fill="#622ba6"/><path d="m102.21 175.55c0 3.53-1.91 6.39-4.3 6.4l-19.62.05c-2.39 0-4.34-2.84-4.36-6.37l-.21-51.91c0-3.53 1.91-6.4 4.3-6.41l19.62-.08c2.39 0 4.34 2.84 4.35 6.37z" fill="#e8f1e8"/><path d="m128.14 98.47c-.39 15.36-19.16 27.35-41.93 26.77s-40.91-13.5-40.52-28.86 19.16-27.38 41.93-26.77 40.91 13.5 40.52 28.86z" fill="#e8f1e8"/><path d="m87.62 80.15c-20.34-.51-37.5 9-41.2 22 3.6 12.71 19.94 22.6 39.79 23.1 20.35.51 37.5-9 41.2-22-3.6-12.71-19.94-22.6-39.79-23.1z" fill="#d4e2d5"/><path d="m88.56 117.31-4.31-.1a6 6 0 0 1 -5.85-6.12l.23-9.86a6 6 0 0 1 6.12-5.85l4.31.1a6 6 0 0 1 5.84 6.12l-.23 9.87a6 6 0 0 1 -6.11 5.84z" fill="#fdbf98"/><path d="m88.69 111.59-4.31-.1a6 6 0 0 1 -5.84-6.12l.22-9.86a6 6 0 0 1 6.13-5.85l4.3.1a6 6 0 0 1 5.81 6.12l-.23 9.87a6 6 0 0 1 -6.08 5.84z" fill="#1d0202" opacity=".17"/><path d="m99 101.88-11 1.43a20.49 20.49 0 0 1 -22.86-17.61l-2.23-17.11a20.5 20.5 0 0 1 17.62-22.9l11-1.44a20.5 20.5 0 0 1 22.9 17.62l2.22 17.13a20.48 20.48 0 0 1 -17.65 22.88z" fill="#fdbf98"/><path d="m103.67 85.78-1.74.23a2.94 2.94 0 0 1 -3.29-2.54l-2.64-20.1a1.47 1.47 0 0 1 1.26-1.64l4.64-.6a1.49 1.49 0 0 1 1.67 1.29l2.62 20.07a2.94 2.94 0 0 1 -2.52 3.29z" fill="#fb9494"/><path d="m102.25 86 1.09-.14a3.23 3.23 0 0 0 2.37-1.56c-3.52 1.19-5-.38-5-.38l-2.93-22.26-.35.05a1.64 1.64 0 0 0 -1.43 1.82l2.56 19.62a3.26 3.26 0 0 0 3.69 2.85z" fill="#d18080"/><path d="m91.74 70.87c.38 2.94-.43 5.46-1.8 5.64s-2.81-2.05-3.19-5 .42-5.45 1.8-5.63 2.81 2.06 3.19 4.99z" fill="#501c10"/><path d="m109.54 68.55c.38 2.94-.43 5.46-1.81 5.64s-2.8-2-3.18-5 .42-5.45 1.8-5.63 2.8 2.06 3.19 4.99z" fill="#501c10"/><path d="m101.74 91.12s-15.59-1.85-18.49-10.12c0 0-7 10.26 2 15.66 12.05 7.17 16.49-5.54 16.49-5.54z" fill="#251855"/><path d="m85.39 88.3 1.7 5.44a16.59 16.59 0 0 0 -5.81-8.56c-1.08 3.46-1.28 8.28 4 11.44a13.17 13.17 0 0 0 7.2 2.21 17.37 17.37 0 0 0 -7.09-10.53z" fill="#fb9494"/><path d="m84 82.52c1.48 3.61 6 11 17.39 8.55-2.19-.31-13.65-2.24-17.39-8.55z" fill="#fff"/><path d="m69.43 76.4c2 5 1.25 9.94-1.63 11.09s-6.8-1.95-8.8-6.92-1.25-9.94 1.63-11.09 6.82 1.95 8.8 6.92z" fill="#fdbf98"/><path d="m67.47 77.18c1.24 3.11.78 6.22-1 6.93s-4.27-1.21-5.51-4.32-.78-6.22 1-6.93 4.27 1.21 5.51 4.32z" fill="url(#b)" opacity=".17"/><path d="m92.68 47.51s-14.55.63-18 12.52 3.51 34.69-14.41 33.58-11.87-15.61-5.75-15.12c0 0-2.53-19.57 6.5-32.09s31.45-5.7 31.45-5.7a19.41 19.41 0 0 1 18-1.85c10 4.07 10.62 35.35 10.62 35.35s4.11-1.5 6.17 1.67 2.06 10.58-4.11 11.86-6.62-2.55-6.62-2.55.54-10.3-1.18-16.3-2.57-23.11-22.67-21.37z" fill="#160503"/><path d="m88.44 84.5a1.76 1.76 0 0 0 1.9-1.72c.08-1.82-11.81-9-11.81-9s7.93 9.36 9.91 10.72z" fill="#160503"/><path d="m100.17 89.63a1.76 1.76 0 0 1 -.3-2.55c1.13-1.42 14.78 1 14.78 1s-12.09 1.82-14.48 1.55z" fill="#160503"/><path d="m85.1 103.48s5.79 11.45 5.71 11.06 3.16-12 3.16-12-3.72-2.74-8.87.94z" fill="#160503"/><path d="m128.44 79.72c-4.28-6-9.22.69-9.22.69s-1.48-23.55-8-30.63-16.28-2.39-16.28-2.39c-26.11-3.12-21.74 17.5-24.37 31.1s-10.3 8.14-10.3 8.14c2-6.78-5.72-8.14-5.72-8.14-6.12-.47-12.19 14 5.72 15.12s10.89-21.7 14.38-33.61 18-12.52 18-12.52c20.1-1.74 20.94 15.37 22.65 21.37s1.18 16.3 1.18 16.3.44 3.84 6.62 2.55c4.29-.85 5.61-4.7 5.34-7.98z" fill="#090101"/><path d="m55.13 150.14 3.24-40.78 30.71 18.29 6.3.47 27.46-13.78-4.95 41.98-25.18 8.24-8.01-.79z" fill="#d81f1f"/><path d="m88.08 127.05 8.19.62-3.43 37.24-8.59-.8z" fill="#a31616"/><path d="m60.03 110.34.54-1.97 31.03 18.17 28.99-13.52.11 2.39-24.89 12.5-7.26-.58z" fill="#d4e2d5"/><path d="m64.35 110.59.36-1.97 26.89 16.24 24.32-12.83.97 2.72-25.29 11.79z" fill="#c1c9c1"/><path d="m92.74 127.57 27.91-13.28-26.45 13.49z" fill="#c1c9c1"/><path d="m90.42 127.33-30.39-17.86 31.37 17.94z" fill="#c1c9c1"/><path d="m54.81 156.35s3-3.56 3.68-3.24 6.17 15.6 6.49 17.82-4.67 2.3-4.67 2.3z" fill="#d4e2d5"/><path d="m45.41 154.66s7.53 1.22 9-1.79c0 0 7.24 14.89 8.37 20.12s-33.09 6.49-35.83-6.5c-3.35-15.84 2-20.2 10-18.06 2.9.78 8.46 6.23 8.46 6.23z" fill="#622ba6"/><path d="m82.35 159.34c-7.22 5.59-15.5 7-18.48 3.14s.44-11.51 7.66-17.1 15.49-7 18.48-3.15-.45 11.52-7.66 17.11z" fill="#fdbf98"/><path d="m64.84 155.77c-1.4-.17-2.09-3.93-1.55-8.39s2.1-7.95 3.5-7.78 2.09 3.92 1.55 8.39-2.11 7.95-3.5 7.78z" fill="#fdbf98"/><g fill="#1d0202" opacity=".17"><path d="m67 139.67a.72.72 0 0 0 -.25-.07c-1.4-.17-3 3.31-3.5 7.78-.38 3.15-.15 5.93.51 7.37l-.06.15.09.08c.28-8.42 2.05-13.08 3.21-15.31z"/><path d="m90.7 148.23c-3.15 2.18-11 7.68-10.86 8.48s6.72-4.19 10.31-6.92a13.26 13.26 0 0 0 .55-1.56z"/><path d="m78.72 152.62c.83.86 9.07-5.43 12.29-7.94a5.21 5.21 0 0 0 -.38-1.38c-3.33 2.17-12.76 8.43-11.91 9.32z"/><path d="m69.59 149.57c8.79-9.45 15.75-9.39 19.4-8.31-3.57-2.56-10.95-.93-17.46 4.12a29.22 29.22 0 0 0 -3.23 2.89c-.69 1.53 1.29 1.3 1.29 1.3z"/></g><path d="m60.88 158.58a7 7 0 0 0 2.83-1.8c.82-1.11 6 7.87 6 7.87l-5.71 2.69z" fill="#ffc099"/><path d="m103.71 59.22s5.17-3.3 7.45-.92-.24 5.26-.24 5.26 1.08-6.27-4.89-4c-.03-.03-1.78 1.44-2.32-.34z" fill="#160503"/><path d="m92.21 60.45s-4.83-3.78-7.33-1.64-.27 5.26-.27 5.26-.47-6.34 5.26-3.53c0 0 1.63 1.61 2.34-.09z" fill="#160503"/></g></svg>