<svg viewBox="0 0 188.71 188.71" xmlns="http://www.w3.org/2000/svg"><circle cx="94.35" cy="94.35" fill="#272d44" r="94.35"/><g fill="#61ed46"><path d="m152.3 33.6h-15a1 1 0 1 1 0-2.08h15a1 1 0 0 1 0 2.08z"/><path d="m122.89 33.6h-61.26a1 1 0 0 1 0-2.08h61.26a1 1 0 1 1 0 2.08z"/><path d="m52 33.6h-17a1 1 0 1 1 0-2.08h17a1 1 0 0 1 0 2.08z"/><path d="m152.3 42.3h-12.88a1 1 0 0 1 0-2.09h12.88a1 1 0 0 1 0 2.09z"/><path d="m131.54 42.3h-76.94a1 1 0 0 1 0-2.09h76.94a1 1 0 0 1 0 2.09z"/><path d="m43.92 42.3h-8.92a1 1 0 1 1 0-2.09h8.88a1 1 0 1 1 0 2.09z"/><path d="m152.3 51h-117.3a1 1 0 1 1 0-2.09h117.3a1 1 0 0 1 0 2.09z"/><path d="m152.3 59.7h-99.17a1 1 0 0 1 0-2.09h99.17a1 1 0 0 1 0 2.09z"/><path d="m43.92 59.7h-8.92a1 1 0 1 1 0-2.09h8.88a1 1 0 1 1 0 2.09z"/><path d="m152.3 68.4h-7.48a1 1 0 1 1 0-2.09h7.48a1 1 0 0 1 0 2.09z"/><path d="m137.33 68.4h-102.33a1 1 0 1 1 0-2.09h102.33a1 1 0 1 1 0 2.09z"/><path d="m152.3 77.1h-117.3a1 1 0 1 1 0-2.1h117.3a1 1 0 0 1 0 2.09z"/><path d="m152.3 85.8h-8.45a1 1 0 0 1 0-2.09h8.45a1 1 0 0 1 0 2.09z"/><path d="m135 85.8h-77.23a1 1 0 0 1 0-2.09h77.23a1 1 0 1 1 0 2.09z"/><path d="m45 85.8h-10a1 1 0 1 1 0-2.09h10a1 1 0 1 1 0 2.09z"/><path d="m152.3 94.49h-18.84a1 1 0 1 1 0-2.08h18.84a1 1 0 0 1 0 2.08z"/><path d="m118.78 94.49h-83.78a1 1 0 1 1 0-2.08h83.74a1 1 0 0 1 0 2.08z"/></g><path d="m129.34 157.31.44-.06a21.08 21.08 0 0 0 18.22-25.17l-4.6-22.45a22 22 0 0 0 -21.62-17.63h-52.84a22 22 0 0 0 -21.57 17.59l-4.6 22.45a21.07 21.07 0 0 0 18.16 25.17l.44.06z" fill="#4d5a6a"/><path d="m129.35 157.47h-68l-.46-.05a21.25 21.25 0 0 1 -18.29-25.42l4.61-22.44a22.26 22.26 0 0 1 21.73-17.69h52.84a22.27 22.27 0 0 1 21.73 17.73l4.61 22.4a21.26 21.26 0 0 1 -18.32 25.38zm-60.41-65.26a21.91 21.91 0 0 0 -21.4 17.46l-4.61 22.44a20.93 20.93 0 0 0 18 25h.44 67.94.43a20.93 20.93 0 0 0 18-25l-4.61-22.44a21.93 21.93 0 0 0 -21.4-17.46z" fill="#000072"/><path d="m129.78 157.25-.43.06h-68l-.44-.06a21.06 21.06 0 0 1 -16.91-12.74 21 21 0 0 0 11.59 5.24l.44.05h68l.44-.05a21.09 21.09 0 0 0 18.17-25.18l-4.64-22.44a22.18 22.18 0 0 0 -1.36-4.32 21.89 21.89 0 0 1 6.71 11.82l4.65 22.44a21.08 21.08 0 0 1 -18.22 25.18z" fill="#000072" opacity=".3"/><path d="m132.64 94.91a21.92 21.92 0 0 0 -8.06-1.53h-52.84a22 22 0 0 0 -21.57 17.62l-4.6 22.45a21.08 21.08 0 0 0 10.18 22.55 21.12 21.12 0 0 1 -13-23.9l4.61-22.44a22 22 0 0 1 21.58-17.66h52.83a21.86 21.86 0 0 1 10.87 2.91z" fill="#fff" opacity=".55"/><path d="m129.34 158.4h-68.1-.44a22.18 22.18 0 0 1 -19.11-26.48l4.61-22.45a23.2 23.2 0 0 1 22.64-18.53h52.84a23.2 23.2 0 0 1 22.64 18.47l4.6 22.45a22.18 22.18 0 0 1 -19.11 26.48h-.44zm-67.9-2.19h67.84l.38-.05a20 20 0 0 0 17.22-23.86l-4.61-22.45a21 21 0 0 0 -20.49-16.72h-52.84a21 21 0 0 0 -20.5 16.72l-4.6 22.45a20 20 0 0 0 17.22 23.86z" fill="#000072"/><path d="m134.38 75.46c-.06.26-.13.52-.2.77s-.11.38-.17.57l-.01.2c0 .15-.1.31-.14.47l-.2.59c0 .09-.06.18-.08.26-.1.28-.2.57-.3.84s-.23.61-.35.91-.24.61-.37.91-.26.59-.39.88-.26.57-.4.85l-.05.11c-.12.26-.26.52-.39.78l-.45.86-.56 1-.41.68s0 0 0 0l-.51.82c-.29.46-.59.91-.9 1.36l-.5.68-.35.49-.55.72c-.17.24-.35.46-.54.69l-.3.38-.2.24-.37.44c-.34.4-.68.79-1 1.18l-.52.56c-.13.13-.25.27-.38.41l-.55.56-.8.79-.66.63-.1.09-.69.63-1.31 1.13-.33.27c-.22.19-.45.37-.68.55-.8.63-1.61 1.24-2.44 1.83a36.44 36.44 0 0 1 -10.45 5.1 36.9 36.9 0 0 1 -32-5.13l-.79-.57h-.08l-.91-.63-.8-.63-.78-.63-.78-.66-.75-.66-.75-.68-.72-.69c-.25-.23-.48-.46-.72-.7l-.7-.71-.69-.74-.65-.73-.5-.57c-.47-.57-.94-1.15-1.4-1.73l-.54-.73-.07-.09-.36-.5c-.27-.38-.53-.76-.79-1.15l-.42-.64c-.21-.33-.41-.65-.61-1l-.42-.7-.57-1-.4-.76-.39-.79a.54.54 0 0 1 -.05-.11c-.28-.56-.54-1.14-.78-1.72a.09.09 0 0 1 0-.07l-.36-.88c-.12-.3-.23-.6-.34-.91s-.22-.61-.33-.91-.15-.46-.22-.69-.12-.37-.17-.55a2.17 2.17 0 0 1 -.07-.24c-.06-.18-.11-.36-.16-.54l-.21-.79c-2.75-19.29 14.79-40.68 32.31-49.85a15.4 15.4 0 0 1 14.25 0c.39.21.78.42 1.17.65 17.13 9.85 33.82 30.35 31.15 49.2z" fill="#4d5a6a"/><path d="m101.67 106.61c.5-.13 1-.27 1.48-.42a36.44 36.44 0 0 0 10.45-5.1h.05c.83-.59 1.65-1.2 2.44-1.83.23-.18.46-.36.68-.55l.34-.27c.44-.37.87-.75 1.3-1.13l.69-.63.1-.09.66-.63.8-.79.55-.56.38-.41c.18-.19.36-.37.52-.56.35-.39.7-.78 1-1.18.13-.14.25-.29.37-.44l.2-.24.31-.38.54-.69.54-.72.36-.49c.13-.2.27-.39.41-.59.31-.45.61-.9.9-1.36.18-.27.35-.54.52-.82l.4-.68c.19-.33.38-.66.56-1l.45-.86q.21-.39.39-.78l.06-.11.39-.85c.14-.29.27-.59.39-.88s.25-.6.37-.91.24-.6.35-.91.2-.55.3-.84l.09-.26c.06-.2.13-.39.19-.59s.1-.31.14-.47a1.42 1.42 0 0 0 .07-.22c0-.19.11-.38.16-.57l.21-.77c2.63-18.62-13.62-38.85-30.52-48.83 11.89 10.81 20.88 26 18.87 40.18-.06.25-.13.51-.2.77s-.11.38-.17.57l-.06.21-.15.47c-.06.2-.12.4-.19.6l-.09.26q-.13.42-.3.84c-.11.31-.22.61-.34.91l-.37.9-.39.89c-.13.28-.26.57-.4.85v.11l-.39.78c-.14.29-.29.57-.44.86s-.37.66-.57 1-.26.46-.4.69a0 0 0 0 0 0 0l-.51.83c-.3.46-.6.91-.91 1.36-.13.2-.27.39-.41.58l-.35.49c-.18.25-.37.49-.55.73l-.54.69c-.1.13-.2.26-.31.38l-.19.24-.37.44-1 1.17-.52.56-.38.41-.55.56-.81.8c-.22.21-.43.42-.66.62l-.1.1-.69.63c-.42.38-.86.75-1.3 1.12l-.33.28-.68.55c-.8.63-1.61 1.24-2.45 1.83a36.44 36.44 0 0 1 -10.45 5.1 34.5 34.5 0 0 1 -3.86.95 36.89 36.89 0 0 1 -6.54.65 36.89 36.89 0 0 0 6.54-.65h.18c-.78.2-1.58.38-2.37.53a36.89 36.89 0 0 1 -14.56-.17l-.17-.13.79.62.77.58h.08l.79.57a36.94 36.94 0 0 0 28.2 6.09c.67-.13 1.35-.28 2-.45-.56.2-1.17.34-1.79.46z" fill="#000072" opacity=".4"/><path d="m109.5 30.58c-1.34-.91-2.71-1.76-4.07-2.55-.4-.23-.79-.45-1.18-.65a15.34 15.34 0 0 0 -14.25 0c-17.52 9.17-35.06 30.56-32.33 49.85l.21.79c0 .18.1.36.16.53a2.33 2.33 0 0 0 .07.25c0 .18.11.36.17.55s.15.46.22.68l.33.92c.11.31.23.61.35.91s.23.57.35.86a.21.21 0 0 0 0 .07c.24.58.5 1.15.78 1.72v.11l.39.78.41.77c.18.34.37.68.56 1l.42.71c.2.33.4.66.61 1l.42.65.88 1.13.36.5.07.1.57.74c.45.59.92 1.17 1.4 1.73.16.2.33.39.5.58s.43.49.65.73l.69.74.69.72.72.7.72.69.75.68.76.66.77.65.78.64.8.62.72.54c-.3-.19-.6-.4-.9-.61l-.79-.57-.08-.06c-.26-.19-.52-.38-.77-.58l-.8-.62-.78-.64-.83-.67-.76-.66-.74-.68-.73-.69-.71-.7-.7-.72-.69-.74-.67-.74-.5-.57c-.48-.57-1-1.15-1.4-1.74-.18-.24-.37-.48-.54-.72l-.07-.09-.37-.5c-.27-.38-.53-.76-.78-1.15-.15-.21-.29-.43-.42-.64s-.42-.66-.62-1l-.42-.71c-.19-.33-.37-.67-.56-1s-.27-.51-.4-.77-.27-.52-.39-.78a.6.6 0 0 1 -.06-.11c-.28-.57-.54-1.14-.78-1.72v-.07c-.12-.28-.24-.57-.35-.86s-.24-.6-.35-.91-.22-.61-.32-.91-.16-.46-.23-.69-.11-.37-.17-.55-.05-.16-.07-.24-.11-.36-.15-.54-.15-.52-.21-.79c-2.73-19.28 14.81-40.67 32.33-49.84a15.34 15.34 0 0 1 14.25 0c.39.2.79.42 1.18.65a65.05 65.05 0 0 1 5.9 3.83z" fill="#fff" opacity=".55"/><path d="m94.93 108.39a37.92 37.92 0 0 1 -21.93-6.93l-.8-.58h-.06l-.78-.58-.77-.6h-.06l-.77-.7c-.3-.24-.56-.46-.82-.69l-.77-.67-.73-.66-.74-.7-.73-.72-.71-.73-.7-.75c-.23-.26-.45-.5-.67-.76l-.51-.58c-.5-.6-1-1.19-1.43-1.78l-.12-.15-.43-.57-.07-.1c-.14-.18-.26-.36-.39-.54-.29-.41-.56-.79-.8-1.17-.15-.21-.3-.44-.44-.66s-.42-.66-.62-1l-.13-.22-.3-.5c-.19-.33-.37-.66-.55-1l-.41-.79c-.13-.26-.27-.52-.39-.78a1.3 1.3 0 0 1 -.08-.17c-.3-.61-.55-1.16-.77-1.7a1.07 1.07 0 0 1 -.07-.15c-.12-.28-.23-.56-.35-.85s-.24-.62-.35-.94-.23-.62-.34-.94l-.23-.7-.17-.56a2.13 2.13 0 0 1 -.08-.27c0-.16-.11-.35-.16-.55s-.14-.52-.21-.79v-.12c-1.65-11.68 3.85-22.49 8.76-29.51a70.52 70.52 0 0 1 24.05-21.59 16.46 16.46 0 0 1 15.26 0 70.62 70.62 0 0 1 24.15 21.47c4.91 7 10.41 17.83 8.76 29.51a.35.35 0 0 1 0 .11c-.06.27-.13.53-.2.79l-.19.65a1.54 1.54 0 0 0 -.05.17l-.11.35v.12l-.18.57v.05l-.09.27c-.1.29-.2.58-.31.87s-.23.62-.36.93-.24.61-.37.93-.27.61-.41.91-.26.58-.4.87l-.06.12-.4.8c-.15.31-.31.6-.47.89s-.38.69-.58 1l-.4.69c-.17.28-.35.56-.53.84-.32.51-.62 1-.92 1.4l-.43.6c-.11.16-.23.32-.36.49l-.55.74-.56.72-.32.39-.57.69c-.35.41-.7.81-1.06 1.2l-.52.56-.4.43-.57.59-.81.8-.67.63-.12.12-.7.63c-.45.4-.9.79-1.33 1.15l-.47.31c-.23.2-.46.38-.7.57-.81.64-1.64 1.27-2.49 1.87a38 38 0 0 1 -21.88 6.95zm-21.39-9.26.75.54a35.89 35.89 0 0 0 41.24 0s0 0 0 0c.81-.58 1.61-1.18 2.39-1.8l.67-.53.32-.28c.41-.34.84-.71 1.28-1.1l.66-.61h.06l.64-.61c.27-.25.53-.51.79-.77l.53-.55.38-.4.5-.54c.35-.39.69-.77 1-1.16l.55-.66.3-.37c.17-.22.35-.44.52-.67s.36-.47.53-.71l.35-.48.4-.57c.29-.41.58-.85.89-1.33.17-.26.33-.53.5-.8.13-.22.27-.44.39-.67s.38-.65.56-1l.43-.83c.13-.25.25-.5.37-.75l.07-.13c.12-.26.25-.53.37-.8s.26-.58.38-.87l.36-.87c.12-.3.23-.59.33-.88s.21-.56.3-.83l.1-.3c.06-.17.11-.35.17-.53v-.13l.09-.31v-.07s0-.06 0-.09l.18-.63c.07-.22.13-.45.19-.68 1.19-8.55-1.79-18.45-8.39-27.88a68.39 68.39 0 0 0 -23.37-20.79 14.26 14.26 0 0 0 -13.23 0 68.2 68.2 0 0 0 -23.09 20.68c-6.61 9.43-9.58 19.33-8.39 27.88.06.24.12.47.19.71s.09.34.14.51l.07.23c.06.19.11.37.17.55l.22.67.31.88c.11.31.23.6.34.88s.23.57.34.85v.06c.21.52.46 1.06.75 1.66a.25.25 0 0 1 0 .07l.37.75.4.76.53.94.28.48.13.21c.19.32.39.64.59 1s.27.42.41.62c.24.36.49.72.77 1.12l.35.48.07.09c.13.19.27.37.41.55l.12.15c.42.55.88 1.12 1.36 1.69l.48.56.65.72.67.72.67.69.7.69.72.68c.23.22.46.42.69.63l.74.65.75.64c.26.2.49.4.73.59l.79.62.73.55a.38.38 0 0 1 .29.23z" fill="#000072"/><path d="m125.63 81c-.07.2-.14.41-.22.62-2 5.21-6 8-8.42 4.84l1.44-7.07 1-4.8c3.74-2.59 8.76-1.42 6.2 6.41z" fill="#fdbd91"/><path d="m119.4 87.92a3.15 3.15 0 0 1 -2.52-1.38v-.05l2.44-12c2-1.4 4.37-1.64 5.75-.6.91.67 2.19 2.5.67 7.16-.06.2-.14.41-.21.63-1.36 3.48-3.6 5.91-5.71 6.21a2.09 2.09 0 0 1 -.42.03zm-2.27-1.49a2.8 2.8 0 0 0 2.66 1.2c2-.29 4.18-2.67 5.5-6 .08-.21.15-.42.22-.62 1.08-3.34.88-5.78-.58-6.88-1.29-1-3.46-.73-5.41.59z" fill="#000072"/><path d="m125.63 81c-.07.2-.14.41-.22.62-2 5.21-6 8-8.42 4.84l1.44-7.07h.53q2.21 6.87 6.38 1.22s.1.12.29.39z" fill="#000072" opacity=".3"/><path d="m119.4 88.66a3.92 3.92 0 0 1 -3.11-1.66.88.88 0 0 1 -.17-.71l2.42-11.88a.91.91 0 0 1 .37-.55c2.35-1.6 5-1.82 6.67-.55 1.1.86 2.65 3.11.66 8.61-1.48 3.8-3.89 6.36-6.3 6.7a3.27 3.27 0 0 1 -.54.04zm-1.47-2.44a1.94 1.94 0 0 0 1.76.66c1.73-.24 3.7-2.48 4.9-5.58s1.14-5.64-.09-6.6c-1-.74-2.7-.56-4.31.43z" fill="#000072"/><path d="m64.24 81c.07.2.14.41.22.62 2 5.21 6 8 8.42 4.84l-1.43-7.07-1-4.8c-3.75-2.59-8.76-1.42-6.21 6.41z" fill="#fdbd91"/><path d="m70.47 88h-.44c-2.12-.31-4.38-2.76-5.74-6.25-.08-.22-.15-.43-.22-.64-1.53-4.68-.23-6.53.69-7.22 1.4-1 3.74-.81 5.81.61h.06l2.45 12v.06a3.2 3.2 0 0 1 -2.61 1.44zm-6.06-7c.07.2.14.41.22.62 1.31 3.37 3.46 5.73 5.45 6a2.69 2.69 0 0 0 2.61-1.16l-2.39-11.76c-1.93-1.29-4.06-1.52-5.32-.57-1.45 1.08-1.65 3.5-.57 6.81z" fill="#000072"/><path d="m69.63 87.7c-1.86-.62-3.78-2.87-5-6-.07-.21-.15-.42-.21-.63-2.56-7.82 2.46-9 6.22-6.4v.08c-3.4-1.28-6.83.5-4.63 7.25.07.21.14.42.22.63a12.38 12.38 0 0 0 3.4 5.07z" fill="#fff" opacity=".55"/><path d="m70.47 88.66a3.27 3.27 0 0 1 -.54 0c-2.4-.34-4.82-2.9-6.29-6.68-2-5.52-.45-7.77.65-8.63 1.64-1.27 4.32-1 6.67.55a.91.91 0 0 1 .37.55l2.42 11.88a.88.88 0 0 1 -.17.71 3.91 3.91 0 0 1 -3.11 1.62zm-3.58-14.42a2.45 2.45 0 0 0 -1.52.46c-1.23 1-1.26 3.37-.08 6.63 1.19 3.07 3.16 5.31 4.89 5.55a1.94 1.94 0 0 0 1.76-.66l-2.26-11.09a5.55 5.55 0 0 0 -2.79-.89z" fill="#000072"/><path d="m118.87 79.57v4.07a21.29 21.29 0 0 1 -9.1 17.57l-.24.16a26.12 26.12 0 0 1 -29.07 0l-.25-.16a21.27 21.27 0 0 1 -9.1-17.57v-4.07s0-.26 0-.73c.22-3.7 1.2-20.34 1.36-20.77 5.27-14.07 57.53-10.62 46.4 21.5z" fill="#fdbd91"/><path d="m95 106a26.27 26.27 0 0 1 -14.63-4.46l-.23-.16a21.42 21.42 0 0 1 -9.21-17.73v-4.08s0-.27 0-.74c.36-6.11 1.21-20.39 1.37-20.82 1.37-3.69 6-6.43 12.76-7.51a42.7 42.7 0 0 1 20.28 1.89c6.17 2.22 19.87 9.31 13.68 27.21v4a21.44 21.44 0 0 1 -9.19 17.72l-.09.06-.15.1a26.26 26.26 0 0 1 -14.59 4.52zm-3.72-55.6a39.29 39.29 0 0 0 -6.11.47c-6.62 1.05-11.17 3.7-12.49 7.27-.13.47-.81 11.45-1.35 20.71v.73 4.06a21 21 0 0 0 9 17.42l.24.16a25.81 25.81 0 0 0 28.86 0l.16-.1.09-.06a21.08 21.08 0 0 0 9-17.42v-4.13c6.11-17.62-7.37-24.6-13.45-26.78a42.28 42.28 0 0 0 -13.96-2.34z" fill="#000072"/><path d="m118.87 79.57v4.07a21.29 21.29 0 0 1 -9.1 17.57l-.24.16a26.12 26.12 0 0 1 -29.07 0l-.25-.16-.54-.39a26.14 26.14 0 0 0 26-1.79l.24-.17a21.28 21.28 0 0 0 9.09-17.57l.34-5.12c3.79-10.9-.09-17.44-6.59-22.17 8.82 4.36 14.61 12.65 10.12 25.57z" fill="#000072" opacity=".3"/><path d="m118.87 79.57v1.65c-2.62-3.87-3.13-14.42-3.13-14.42-2.3 2.49-15.19 5.36-24.24.56a.57.57 0 0 0 -.78.75 2.36 2.36 0 0 0 .16.3c-1.19.74-6.8 0-9.84-1.75a1.4 1.4 0 0 0 -2.08 1c-.68 4.34-2.85 7.34-7.48 11.91l-.33-.73c.22-3.7 1.2-20.34 1.36-20.77 5.23-14.07 57.49-10.62 46.36 21.5z" fill="#000072" opacity=".3"/><path d="m104.9 103.84a26.14 26.14 0 0 1 -24.44-2.47l-.25-.16a21.27 21.27 0 0 1 -9.1-17.57v-4.07s1.22-21 1.4-21.5c1.1-3 4.27-5.14 8.5-6.44-3.18 1.32-5.52 3.24-6.43 5.69-.18.48-1.4 21.5-1.4 21.5v4.06a21.29 21.29 0 0 0 9.11 17.58l.25.16c5.7 5.17 14.93 5.55 22.36 3.22z" fill="#fff" opacity=".55"/><path d="m95 106.69a26.92 26.92 0 0 1 -15-4.59 2.2 2.2 0 0 1 -.25-.17 22.07 22.07 0 0 1 -9.49-18.3v-4.11c1.23-21.13 1.4-21.6 1.45-21.75 3.22-8.66 21.35-10.56 33.93-6 6 2.16 10.54 5.57 13.13 9.88 3.05 5.06 3.39 11.16 1 18.11v3.91a22.12 22.12 0 0 1 -9.48 18.3l-.25.17a27 27 0 0 1 -15.04 4.55zm-23-27.09v4a20.35 20.35 0 0 0 8.72 16.85l.24.16a25.14 25.14 0 0 0 28.09 0l.23-.16a20.37 20.37 0 0 0 8.72-16.82v-4.06a1 1 0 0 1 .05-.29c5.91-17-7.14-23.78-13-25.89-12.75-4.58-29-2-31.66 4.93-.2 1.13-.94 13.26-1.39 21.28z" fill="#000072"/><path d="m118.6 49.46c6.59 8.42 5.77 23.09.22 30.77-4.25-2.34-4.53-13.43-4.53-13.43-10.06 2.73-20.24 1.06-29.47-6.89-.2 3.13 2.42 6 2.42 6a12.08 12.08 0 0 1 -3.24-.47c-3.34-1-5.32-3.42-6.54-6.46-1.17 10.55-1.24 12.9-6.38 20.59-5.08-10.99-6.08-24.57 2.5-28.57-11.92-4.1-7.52-12.41 2.74-5-5-7.23 1.32-10 2.64-2 7.41-13.55 40-8.8 44.42 6.59l-4.77-1z" fill="#ac3d50"/><path d="m118.87 80.47-.14-.08c-4-2.2-4.55-11.7-4.62-13.36-10.68 2.84-20.48.58-29.12-6.73 0 2.87 2.36 5.49 2.38 5.51l.29.32h-.43a12.85 12.85 0 0 1 -3.23-.52 10 10 0 0 1 -6.4-5.91l-.07.58c-1 9.44-1.32 12-6.27 19.39l-.18.27-.14-.29c-5.16-11.07-6-24.35 2.18-28.65-4.82-1.75-6.71-4.1-6.87-5.75a2 2 0 0 1 1-2c1.42-.81 4.32-.67 8.36 2-1.69-2.77-1.64-4.78-1-5.7a1.42 1.42 0 0 1 1.54-.63c1 .22 2.29 1.5 2.89 4.43 4.09-6.76 13.96-8.26 21.9-7.35 9.49 1.06 20.17 5.94 22.62 14.46l.08.29-4.6-1c6.4 8.65 5.29 23.18-.07 30.6zm-4.41-13.91v.23c0 .11.32 10.77 4.3 13.2 5.28-7.47 6.28-22-.32-30.42l-.23-.3h.45l4.45 1c-2.56-8.18-13-12.87-22.22-13.9-8-.89-18 .64-21.78 7.64l-.26.46-.08-.52c-.52-3.11-1.78-4.44-2.7-4.64a1 1 0 0 0 -1.15.49c-.61.91-.57 3 1.54 6.07l.61.87-.87-.62c-4.31-3.1-7.4-3.3-8.73-2.53a1.61 1.61 0 0 0 -.86 1.65c.14 1.51 2.07 3.88 7 5.59l.43.15-.41.19c-8.32 3.94-7.57 17-2.52 28.06 4.72-7.13 5-9.7 6-19l.22-2 .27.67c1.35 3.39 3.46 5.47 6.42 6.35a11.46 11.46 0 0 0 2.75.47c-.67-.85-2.36-3.24-2.19-5.83v-.37l.28.24c8.67 7.48 18.53 9.78 29.3 6.85z" fill="#000072"/><path d="m76.27 57.15a12 12 0 0 1 1.1 2.92c-1.06 9.64-1.31 12.08-6.26 19.5-.58-1.24-1.11-2.52-1.57-3.81 4.07-6.31 4.54-9.88 5.48-18.38a.66.66 0 0 1 1.25-.23z" fill="#000072" opacity=".3"/><path d="m74.38 44.69c-6.45-2.74-8.79 2-2.5 5.62-9.08-3.96-5.88-10.4 2.5-5.62z" fill="#fff" opacity=".55"/><path d="m73.38 51.07a1.19 1.19 0 0 1 .3 2c-5.84 4.84-5.62 15.73-1.77 25.23-.25.4-.53.83-.82 1.26-5.09-10.89-6.04-24.31 2.29-28.49z" fill="#fff" opacity=".55"/><path d="m75.92 45.82c-3.41-5.24-.31-8.26 1.76-5.84-1.14.16-1.82 1.93-.55 4.73a.87.87 0 0 1 -1.21 1.11z" fill="#fff" opacity=".55"/><path d="m116.91 42.57a51.05 51.05 0 0 0 -20-4.36c-1 2-4.6 1.92-6.09.49-3.84.69-7.09 2.14-9.12 4.56a1.34 1.34 0 0 1 -2.17-.13.61.61 0 0 1 -.03-.13c6.36-8.12 27.81-8.78 37.41-.43z" fill="#fff" opacity=".55"/><path d="m118.82 81.11a.84.84 0 0 1 -.43-.11c-3.87-2.14-4.74-10-4.93-13.08a31.06 31.06 0 0 1 -27.46-5.92 10.6 10.6 0 0 0 1.91 3.36.87.87 0 0 1 -.65 1.46 10.72 10.72 0 0 1 -9.21-4.82c-.93 8.29-1.46 11-6.21 18.1a.9.9 0 0 1 -.8.39.86.86 0 0 1 -.73-.51c-5-10.8-6-23.68 1.26-28.81-4.16-1.8-5.85-4.12-6-5.82a2.67 2.67 0 0 1 1.43-2.71c1.33-.77 3.77-.82 7.06.84-.73-2-.54-3.45 0-4.3a2.1 2.1 0 0 1 2.26-.93c1.29.27 2.36 1.53 3 3.48 4.65-6 14-7.3 21.68-6.45 9.73 1.08 20.68 6.13 23.22 15a.86.86 0 0 1 -.21.84.85.85 0 0 1 -.82.26l-2.62-.56a26.9 26.9 0 0 1 3.56 14.35c-.08 6-1.76 11.67-4.61 15.62a.89.89 0 0 1 -.7.32zm-4.53-15.19a.9.9 0 0 1 .52.17.88.88 0 0 1 .36.68c.07 2.74.83 9.84 3.43 12.22 4.79-7.42 5.55-21-.69-29a.87.87 0 0 1 .87-1.4l3.25.69c-3.03-7.16-12.62-11.28-21.21-12.28-9.82-1.06-18.08 1.8-21.09 7.31a.88.88 0 0 1 -1.64-.31c-.49-3-1.63-4-2.16-4.07a.38.38 0 0 0 -.42.19c-.37.55-.51 2.35 1.53 5.29a.88.88 0 0 1 -1.24 1.21c-3.77-2.71-6.73-3.21-8-2.49a1 1 0 0 0 -.51 1c.13 1.4 2.21 3.49 6.56 5a.88.88 0 0 1 .59.78.9.9 0 0 1 -.5.85c-4.6 2.18-5.73 7.15-5.87 10.93a37 37 0 0 0 3.16 15c4-6.17 4.25-8.72 5.23-17.58l.14-1.27a.87.87 0 0 1 .75-.78.89.89 0 0 1 .94.55c1.41 3.54 3.74 5.58 7.07 6.2a9 9 0 0 1 -1.44-5 .88.88 0 0 1 1.45-.61c8.49 7.31 18.13 9.56 28.67 6.7a.85.85 0 0 1 .25.02z" fill="#000072"/><path d="m114.29 67.68a.88.88 0 0 1 -.23-1.73c1.09-.3 2.19-.65 3.28-1a.88.88 0 1 1 .61 1.65c-1.14.42-2.29.79-3.44 1.1a.83.83 0 0 1 -.22-.02z" fill="#000072"/><path d="m118.82 80.23c-4.25-2.34-4.53-13.43-4.53-13.43-10.06 2.73-20.24 1.06-29.47-6.89-.2 3.13 2.42 6 2.42 6a12.08 12.08 0 0 1 -3.24-.47c-4.81-7.93-2.76-9.8 4.16-7.36 19.2 6.19 33.18 7.16 30.41-8.62 6.62 8.42 5.8 23.09.25 30.77z" fill="#000072" opacity=".3"/><path d="m113.94 56.78c0 1.34-2.61 2.42-5.82 2.42s-5.83-1.08-5.83-2.42 2.61-1.36 5.83-1.36 5.82.03 5.82 1.36z" fill="#fefefe" opacity=".2"/><path d="m98.07 95.83s-1.26.81-4.55.81c-.71 0-2.75-.06-5.33-2.42a5.5 5.5 0 0 0 5.26 3.43 6.67 6.67 0 0 0 4.62-1.82z" fill="#000072"/><path d="m79.41 80.57a4.06 4.06 0 0 1 1.75-2.15 5.26 5.26 0 0 1 2.77-.75 5.18 5.18 0 0 1 2.75.79 4.17 4.17 0 0 1 1.78 2.11 22.25 22.25 0 0 0 -2.38-.7 10.87 10.87 0 0 0 -2.17-.25 9.92 9.92 0 0 0 -2.15.21 15.23 15.23 0 0 0 -2.35.74z" fill="#000072"/><path d="m110.92 80.57a15.23 15.23 0 0 0 -2.35-.74 9.92 9.92 0 0 0 -2.15-.21 10.85 10.85 0 0 0 -2.16.25 21 21 0 0 0 -2.38.7 4.15 4.15 0 0 1 1.77-2.11 5.21 5.21 0 0 1 2.75-.79 5.26 5.26 0 0 1 2.77.75 4 4 0 0 1 1.75 2.15z" fill="#000072"/><ellipse cx="84.82" cy="85.93" fill="#000072" rx="3.02" ry="3.99"/><ellipse cx="85.59" cy="85" fill="#fff" rx=".91" ry="1.34"/><path d="m85.59 86.53c-.61 0-1.1-.67-1.1-1.53s.49-1.52 1.1-1.52 1.1.67 1.1 1.52-.49 1.53-1.1 1.53zm0-2.68c-.4 0-.73.53-.73 1.15s.33 1.16.73 1.16.73-.53.73-1.16-.32-1.15-.73-1.15z" fill="#000072"/><ellipse cx="105.72" cy="85.93" fill="#000072" rx="3.02" ry="3.99"/><ellipse cx="104.95" cy="85" fill="#fff" rx=".91" ry="1.34"/><path d="m105 86.53c-.62 0-1.1-.67-1.1-1.53s.48-1.52 1.1-1.52 1 .67 1 1.52-.44 1.53-1 1.53zm0-2.68c-.4 0-.73.53-.73 1.15s.33 1.16.73 1.16.73-.53.73-1.16-.39-1.15-.73-1.15z" fill="#000072"/><path d="m139.13 156.87a9.95 9.95 0 0 1 -9.75 8h-67.19a10 10 0 0 1 -9.76-8z" fill="#c6d3e3"/><path d="m129.38 165h-67.19a10.16 10.16 0 0 1 -9.93-8.12v-.22h87.15l-.05.22a10.12 10.12 0 0 1 -9.93 8.12zm-76.72-8a9.8 9.8 0 0 0 9.53 7.61h67.19a9.79 9.79 0 0 0 9.53-7.61z" fill="#000072"/><path d="m129.38 165.94h-67.19a11.08 11.08 0 0 1 -10.83-8.85 1.1 1.1 0 0 1 1.08-1.31h86.69a1.1 1.1 0 0 1 1.08 1.31 11.09 11.09 0 0 1 -10.83 8.85zm-75.5-8a8.89 8.89 0 0 0 8.31 5.78h67.19a8.87 8.87 0 0 0 8.3-5.78z" fill="#000072"/><path d="m139.13 156.87a9.95 9.95 0 0 1 -9.75 8h-41.56a34 34 0 0 0 18.09-5.8 16.74 16.74 0 0 1 1.16-2.18z" fill="#000072" opacity=".3"/><path d="m139.11 114.74-3.51 40a4.72 4.72 0 0 1 -4.71 4.32h-70.22a4.72 4.72 0 0 1 -4.7-4.32l-3.51-40a6.72 6.72 0 0 1 6.69-7.31h73.26a6.65 6.65 0 0 1 3.51 1 6.73 6.73 0 0 1 3.19 6.31z" fill="#c6d3e3"/><path d="m130.89 159.23h-70.22a4.88 4.88 0 0 1 -4.88-4.48l-3.51-40a6.91 6.91 0 0 1 6.87-7.51h73.26a6.9 6.9 0 0 1 6.88 7.51l-3.51 40a4.88 4.88 0 0 1 -4.89 4.48zm-71.74-51.62a6.55 6.55 0 0 0 -6.5 7.12l3.5 40a4.51 4.51 0 0 0 4.52 4.14h70.22a4.52 4.52 0 0 0 4.53-4.14l3.5-40a6.53 6.53 0 0 0 -6.51-7.11z" fill="#000072"/><path d="m138 110.4a6.69 6.69 0 0 0 -2.83-.62h-73.27a6.72 6.72 0 0 0 -6.69 7.3l3.51 40a4.39 4.39 0 0 0 .5 1.73 4.71 4.71 0 0 1 -3.22-4.08l-3.51-40a6.72 6.72 0 0 1 6.69-7.31h73.26a6.73 6.73 0 0 1 5.56 2.98z" fill="#fff" opacity=".75"/><path d="m130.89 160.14h-70.22a5.78 5.78 0 0 1 -5.79-5.31l-3.51-40a7.8 7.8 0 0 1 7.79-8.5h73.25a7.82 7.82 0 0 1 7.79 8.5l-3.51 40a5.78 5.78 0 0 1 -5.8 5.31zm-71.73-51.61a5.62 5.62 0 0 0 -5.61 6.11l3.51 40a3.61 3.61 0 0 0 3.61 3.36h70.22a3.61 3.61 0 0 0 3.62-3.31l3.5-40a5.61 5.61 0 0 0 -5.6-6.11z" fill="#000072"/><path d="m139.11 114.74-3.51 40a4.72 4.72 0 0 1 -4.71 4.32h-63.34c39-3.07 63.09-18.82 68.36-50.64a6.73 6.73 0 0 1 3.2 6.32z" fill="#000072" opacity=".3"/><rect fill="#fff" height="20.37" opacity=".3" rx="2.07" transform="matrix(.99564371 -.09323949 .09323949 .99564371 -11.92 6.81)" width="8.57" x="62.7" y="120.89"/><path d="m101.86 142.08-.8.65-.1 2a1.06 1.06 0 0 1 -1.09 1 1 1 0 0 1 -1-1v-.86a.31.31 0 0 0 -.31-.32.33.33 0 0 0 -.33.3v.86a1 1 0 0 1 -1.07 1 1 1 0 0 1 -1-1v-.72a.47.47 0 0 0 -.47-.46.45.45 0 0 0 -.47.44v.72a1 1 0 0 1 -1.05 1 1.07 1.07 0 0 1 -1-1v-.86a.31.31 0 0 0 -.32-.31.29.29 0 0 0 -.31.3v.86a1 1 0 0 1 -1 1 1.1 1.1 0 0 1 -1.07-1l-.06-2-.78-.68a10.08 10.08 0 0 1 -3.45-7 9.68 9.68 0 0 1 9.77-10.33 10 10 0 0 1 6 17.67z" fill="#fff" fill-rule="evenodd"/><path d="m95.67 124.4h.16a10 10 0 0 1 6 17.67l-.8.65-.1 2a1.05 1.05 0 0 1 -1.06 1 1 1 0 0 1 -1-1v-.86a.31.31 0 0 0 -.31-.32.33.33 0 0 0 -.32.3v.86a1 1 0 0 1 -1 1 1 1 0 0 1 -1-1v-.72a.47.47 0 0 0 -.47-.46.45.45 0 0 0 -.46.44v.72a1 1 0 0 1 -1 1 1.07 1.07 0 0 1 -1-1v-.86a.31.31 0 0 0 -.32-.31.29.29 0 0 0 -.3.3v.86a1 1 0 0 1 -1 1 1.09 1.09 0 0 1 -1.07-1l-.06-2-.78-.68a10.08 10.08 0 0 1 -3.45-7 9.68 9.68 0 0 1 9.61-10.34m0-1.77a11.19 11.19 0 0 0 -8.22 3.54 11.67 11.67 0 0 0 -3.16 8.67 12 12 0 0 0 4.06 8.28l.2.17v1.25a2.84 2.84 0 0 0 2.79 2.74h.08a2.9 2.9 0 0 0 1.28-.3 3.05 3.05 0 0 0 1.35.37h.08a2.82 2.82 0 0 0 1.2-.6 2.92 2.92 0 0 0 1.49.47h.08a2.83 2.83 0 0 0 1.3-.31 2.94 2.94 0 0 0 1.35.38h.08a2.81 2.81 0 0 0 2.83-2.65l.06-1.24.18-.15a11.59 11.59 0 0 0 4.29-8.18 11.83 11.83 0 0 0 -3.07-8.88 11.45 11.45 0 0 0 -8.33-3.77z" fill="#000072"/><path d="m92 132.43a2.6 2.6 0 0 0 -2.62 2.76 2.86 2.86 0 0 0 2.8 2.69 2.6 2.6 0 0 0 2.63-2.66 2.86 2.86 0 0 0 -2.81-2.79z" fill="#000072" fill-rule="evenodd"/><path d="m99.55 132.35a2.79 2.79 0 0 0 -2.79 2.77 2.71 2.71 0 0 0 2.68 2.71 2.8 2.8 0 0 0 2.79-2.68 2.68 2.68 0 0 0 -2.68-2.8z" fill="#000072" fill-rule="evenodd"/></svg>